MontserratZ-ExtraBold.ufo
<glyph name="exclam" format="2">
  <advance width="301"/>
  <unicode hex="0021"/>
  <outline>
    <contour>
      <point x="75.0685" y="255.277" type="line"/>
      <point x="37.5164" y="700" type="line"/>
      <point x="264.07" y="700" type="line"/>
      <point x="226.208" y="255.277" type="line"/>
    </contour>
    <contour>
      <point x="150.793" y="-8.75869" type="qcurve" smooth="yes"/>
      <point x="101.172" y="-8.75869"/>
      <point x="37.1028" y="53.2418"/>
      <point x="37.1028" y="96.0352" type="qcurve" smooth="yes"/>
      <point x="37.1028" y="139.829"/>
      <point x="101.172" y="199.45"/>
      <point x="150.793" y="199.45" type="qcurve" smooth="yes"/>
      <point x="201.415" y="199.45"/>
      <point x="264.174" y="139.829"/>
      <point x="264.174" y="96.0352" type="qcurve" smooth="yes"/>
      <point x="264.174" y="53.2418"/>
      <point x="201.415" y="-8.75869"/>
    </contour>
  </outline>
</glyph>
<glyph name="numbersign" format="2">
  <advance width="730"/>
  <unicode hex="0023"/>
  <outline>
    <contour>
      <point x="383.448" y="0" type="line"/>
      <point x="470.138" y="700" type="line"/>
      <point x="605.622" y="700" type="line"/>
      <point x="518.932" y="0" type="line"/>
    </contour>
    <contour>
      <point x="16.7239" y="148.792" type="line"/>
      <point x="16.7239" y="277.69" type="line"/>
      <point x="679.346" y="277.69" type="line"/>
      <point x="679.346" y="148.792" type="line"/>
    </contour>
    <contour>
      <point x="124.138" y="0" type="line"/>
      <point x="211.138" y="700" type="line"/>
      <point x="346.622" y="700" type="line"/>
      <point x="259.622" y="0" type="line"/>
    </contour>
    <contour>
      <point x="50.4136" y="422.31" type="line"/>
      <point x="50.4136" y="551.208" type="line"/>
      <point x="712.725" y="551.208" type="line"/>
      <point x="713.035" y="422.31" type="line"/>
    </contour>
  </outline>
</glyph>
<glyph name="ampersand" format="2">
  <advance width="752"/>
  <unicode hex="0026"/>
  <outline>
    <contour>
      <point x="310.242" y="-13.8277" type="qcurve" smooth="yes"/>
      <point x="229.966" y="-13.8277"/>
      <point x="103.862" y="37.3103"/>
      <point x="31.2756" y="126.517"/>
      <point x="31.2756" y="183.276" type="qcurve" smooth="yes"/>
      <point x="31.2756" y="238.483"/>
      <point x="79.793" y="324.38"/>
      <point x="182.759" y="396"/>
      <point x="262.586" y="429.173" type="qcurve" smooth="yes"/>
      <point x="315.69" y="451.897"/>
      <point x="376.103" y="488.241"/>
      <point x="401.345" y="520.965"/>
      <point x="401.345" y="537.758" type="qcurve" smooth="yes"/>
      <point x="401.345" y="558.723"/>
      <point x="372.897" y="584.93"/>
      <point x="345.38" y="584.93" type="qcurve" smooth="yes"/>
      <point x="315.553" y="584.93"/>
      <point x="282.794" y="555.413"/>
      <point x="282.794" y="532.827" type="qcurve" smooth="yes"/>
      <point x="282.794" y="519.655"/>
      <point x="294.415" y="494.241"/>
      <point x="327.346" y="459.828"/>
      <point x="357.277" y="432.655" type="qcurve" smooth="yes"/>
      <point x="725.898" y="104.76" type="line"/>
      <point x="623.517" y="-12.3793" type="line"/>
      <point x="208.207" y="358.758" type="line" smooth="yes"/>
      <point x="173.896" y="388.62"/>
      <point x="130.827" y="445.31"/>
      <point x="110.069" y="501.448"/>
      <point x="110.069" y="530.138" type="qcurve" smooth="yes"/>
      <point x="110.069" y="583.655"/>
      <point x="168.414" y="664.931"/>
      <point x="273.966" y="710.448"/>
      <point x="344.69" y="710.448" type="qcurve" smooth="yes"/>
      <point x="410.035" y="710.448"/>
      <point x="506.587" y="669.621"/>
      <point x="560.553" y="593.655"/>
      <point x="560.553" y="541.827" type="qcurve" smooth="yes"/>
      <point x="560.553" y="496"/>
      <point x="514.346" y="420.482"/>
      <point x="417.38" y="356.482"/>
      <point x="341.622" y="325.31" type="qcurve" smooth="yes"/>
      <point x="296.036" y="305.965"/>
      <point x="241.07" y="268.379"/>
      <point x="217.208" y="228.724"/>
      <point x="217.208" y="204.242" type="qcurve" smooth="yes"/>
      <point x="217.208" y="183.587"/>
      <point x="243.174" y="149.691"/>
      <point x="290.863" y="130.587"/>
      <point x="324.138" y="130.587" type="qcurve" smooth="yes"/>
      <point x="381.862" y="130.587"/>
      <point x="480.276" y="187.587"/>
      <point x="550.517" y="297.76"/>
      <point x="564.448" y="375.863" type="qcurve"/>
      <point x="716.898" y="329.621" type="line"/>
      <point x="694.829" y="227.242"/>
      <point x="580.346" y="72.5174"/>
      <point x="412.966" y="-13.8277"/>
    </contour>
  </outline>
</glyph>
<glyph name="parenleft" format="2">
  <advance width="369"/>
  <unicode hex="0028"/>
  <outline>
    <contour>
      <point x="189.31" y="-194" type="line"/>
      <point x="127.172" y="-103.69"/>
      <point x="60.3441" y="136.69"/>
      <point x="60.3441" y="274" type="qcurve" smooth="yes"/>
      <point x="60.3441" y="411.31"/>
      <point x="127.172" y="652.31"/>
      <point x="189.31" y="742" type="qcurve"/>
      <point x="370.863" y="742" type="line"/>
      <point x="305.725" y="625.724"/>
      <point x="246.277" y="397.793"/>
      <point x="246.277" y="274" type="qcurve" smooth="yes"/>
      <point x="246.277" y="150.207"/>
      <point x="305.725" y="-77.7239"/>
      <point x="370.863" y="-194" type="qcurve"/>
    </contour>
  </outline>
</glyph>
<glyph name="parenright" format="2">
  <advance width="369"/>
  <unicode hex="0029"/>
  <outline>
    <contour>
      <point x="179.587" y="-194" type="qcurve"/>
      <point x="-1.96619" y="-194" type="line"/>
      <point x="64.1718" y="-77.7239"/>
      <point x="122.931" y="150.207"/>
      <point x="122.931" y="274" type="qcurve" smooth="yes"/>
      <point x="122.931" y="397.793"/>
      <point x="64.1718" y="625.724"/>
      <point x="-1.96619" y="742" type="qcurve"/>
      <point x="179.587" y="742" type="line"/>
      <point x="242.725" y="652.31"/>
      <point x="308.863" y="411.31"/>
      <point x="308.863" y="274" type="qcurve" smooth="yes"/>
      <point x="308.863" y="136.69"/>
      <point x="242.725" y="-103.69"/>
    </contour>
  </outline>
</glyph>
<glyph name="asterisk" format="2">
  <advance width="453"/>
  <unicode hex="002A"/>
  <outline>
    <contour>
      <point x="443.105" y="593.551" type="line"/>
      <point x="312.932" y="523.379" type="line"/>
      <point x="312.932" y="553.345" type="line"/>
      <point x="443.105" y="483.172" type="line"/>
      <point x="384.656" y="386.689" type="line"/>
      <point x="265.001" y="459.24" type="line"/>
      <point x="280.449" y="468.309" type="line"/>
      <point x="282.829" y="334.723" type="line"/>
      <point x="169.31" y="334.723" type="line"/>
      <point x="171.69" y="468.309" type="line"/>
      <point x="187.138" y="459.24" type="line"/>
      <point x="67.4831" y="386.689" type="line"/>
      <point x="9.72394" y="483.172" type="line"/>
      <point x="140.207" y="553.345" type="line"/>
      <point x="140.207" y="523.379" type="line"/>
      <point x="9.72394" y="593.551" type="line"/>
      <point x="67.4831" y="690.345" type="line"/>
      <point x="187.138" y="617.483" type="line"/>
      <point x="171.69" y="608.414" type="line"/>
      <point x="169.31" y="742" type="line"/>
      <point x="282.829" y="742" type="line"/>
      <point x="280.449" y="608.414" type="line"/>
      <point x="265.001" y="617.483" type="line"/>
      <point x="384.656" y="690.345" type="line"/>
    </contour>
  </outline>
</glyph>
<glyph name="plus" format="2">
  <advance width="609"/>
  <unicode hex="002B"/>
  <outline>
    <contour>
      <point x="227.758" y="112.138" type="line"/>
      <point x="227.758" y="587.862" type="line"/>
      <point x="381.691" y="587.862" type="line"/>
      <point x="381.691" y="112.138" type="line"/>
    </contour>
    <contour>
      <point x="58.4136" y="277.413" type="line"/>
      <point x="58.4136" y="422.587" type="line"/>
      <point x="551.035" y="422.587" type="line"/>
      <point x="551.035" y="277.413" type="line"/>
    </contour>
  </outline>
</glyph>
<glyph name="comma" format="2">
  <advance width="283"/>
  <unicode hex="002C"/>
  <outline>
    <contour>
      <point x="39.9653" y="-156.897" type="line"/>
      <point x="114.655" y="103.001" type="line"/>
      <point x="142.069" y="-4.68967" type="line"/>
      <point x="92.138" y="-4.68967"/>
      <point x="27.7582" y="53.9315"/>
      <point x="27.7582" y="104.484" type="qcurve" smooth="yes"/>
      <point x="27.7582" y="155.725"/>
      <point x="92.8277" y="216.346"/>
      <point x="141.759" y="216.346" type="qcurve" smooth="yes"/>
      <point x="191.001" y="216.346"/>
      <point x="255.45" y="155.415"/>
      <point x="255.45" y="104.484" type="qcurve" smooth="yes"/>
      <point x="255.45" y="90.3455"/>
      <point x="250.76" y="61.7592"/>
      <point x="237.243" y="22.0347"/>
      <point x="222.346" y="-10.6897" type="qcurve" smooth="yes"/>
      <point x="158.863" y="-156.897" type="line"/>
    </contour>
  </outline>
</glyph>
<glyph name="hyphen" format="2">
  <advance width="388"/>
  <unicode hex="002D"/>
  <outline>
    <contour>
      <point x="48.4136" y="211.758" type="line"/>
      <point x="48.4136" y="358.484" type="line"/>
      <point x="339.724" y="358.484" type="line"/>
      <point x="339.724" y="211.758" type="line"/>
    </contour>
  </outline>
</glyph>
<glyph name="period" format="2">
  <advance width="283"/>
  <unicode hex="002E"/>
  <outline>
    <contour>
      <point x="141.449" y="-8.75869" type="qcurve" smooth="yes"/>
      <point x="93.207" y="-8.75869"/>
      <point x="27.1376" y="54.9315"/>
      <point x="27.1376" y="104.484" type="qcurve" smooth="yes"/>
      <point x="27.1376" y="155.036"/>
      <point x="93.207" y="216.346"/>
      <point x="141.449" y="216.346" type="qcurve" smooth="yes"/>
      <point x="189.38" y="216.346"/>
      <point x="255.45" y="155.036"/>
      <point x="255.45" y="104.484" type="qcurve" smooth="yes"/>
      <point x="255.45" y="54.9315"/>
      <point x="189.38" y="-8.75869"/>
    </contour>
  </outline>
</glyph>
<glyph name="slash" format="2">
  <advance width="415"/>
  <unicode hex="002F"/>
  <outline>
    <contour>
      <point x="-36.5864" y="-100" type="line"/>
      <point x="293.414" y="842" type="line"/>
      <point x="462.07" y="842" type="line"/>
      <point x="132.07" y="-100" type="line"/>
    </contour>
  </outline>
</glyph>
<glyph name="zero" format="2">
  <advance width="685"/>
  <unicode hex="0030"/>
  <outline>
    <contour>
      <point x="342.586" y="-13.8277" type="qcurve" smooth="yes"/>
      <point x="253" y="-13.8277"/>
      <point x="113.724" y="71.5516"/>
      <point x="34.2756" y="234.31"/>
      <point x="34.2756" y="350" type="qcurve" smooth="yes"/>
      <point x="34.2756" y="465.69"/>
      <point x="113.724" y="628.448"/>
      <point x="253" y="713.828"/>
      <point x="342.586" y="713.828" type="qcurve" smooth="yes"/>
      <point x="432.173" y="713.828"/>
      <point x="571.449" y="628.448"/>
      <point x="650.897" y="465.69"/>
      <point x="650.897" y="350" type="qcurve" smooth="yes"/>
      <point x="650.897" y="234.31"/>
      <point x="571.449" y="71.5516"/>
      <point x="432.173" y="-13.8277"/>
    </contour>
    <contour>
      <point x="342.586" y="148.174" type="qcurve" smooth="yes"/>
      <point x="374.586" y="148.174"/>
      <point x="423.62" y="187.622"/>
      <point x="451.757" y="276.793"/>
      <point x="451.757" y="350" type="qcurve" smooth="yes"/>
      <point x="451.757" y="423.896"/>
      <point x="423.62" y="512.378"/>
      <point x="374.586" y="551.826"/>
      <point x="342.586" y="551.826" type="qcurve" smooth="yes"/>
      <point x="310.897" y="551.826"/>
      <point x="261.553" y="512.378"/>
      <point x="233.415" y="423.896"/>
      <point x="233.415" y="350" type="qcurve" smooth="yes"/>
      <point x="233.415" y="276.793"/>
      <point x="261.553" y="187.622"/>
      <point x="310.897" y="148.174"/>
    </contour>
  </outline>
</glyph>
<glyph name="one" format="2">
  <advance width="405"/>
  <unicode hex="0031"/>
  <outline>
    <contour>
      <point x="136.172" y="0" type="line"/>
      <point x="136.172" y="629.482" type="line"/>
      <point x="221.345" y="546.516" type="line"/>
      <point x="5.93099" y="546.516" type="line"/>
      <point x="5.93099" y="700" type="line"/>
      <point x="334.312" y="700" type="line"/>
      <point x="334.312" y="0" type="line"/>
    </contour>
  </outline>
</glyph>
<glyph name="two" format="2">
  <advance width="599"/>
  <unicode hex="0032"/>
  <outline>
    <contour>
      <point x="30.4826" y="0" type="line"/>
      <point x="30.4826" y="124.208" type="line"/>
      <point x="292.482" y="369.069" type="line" smooth="yes"/>
      <point x="320.206" y="395.483"/>
      <point x="347.24" y="435.379"/>
      <point x="356.482" y="467.965"/>
      <point x="356.482" y="482.448" type="qcurve" smooth="yes"/>
      <point x="356.482" y="516.206"/>
      <point x="311" y="553.895"/>
      <point x="266.138" y="553.895" type="qcurve" smooth="yes"/>
      <point x="228" y="553.895"/>
      <point x="162.38" y="519.964"/>
      <point x="141.415" y="486.102" type="qcurve"/>
      <point x="-5.55211" y="568.275" type="line"/>
      <point x="33.3789" y="634.069"/>
      <point x="181.034" y="713.828"/>
      <point x="284.414" y="713.828" type="qcurve" smooth="yes"/>
      <point x="364.931" y="713.828"/>
      <point x="487.346" y="661.69"/>
      <point x="555.622" y="566.483"/>
      <point x="555.622" y="501.345" type="qcurve" smooth="yes"/>
      <point x="555.622" y="467.345"/>
      <point x="538.311" y="399.655"/>
      <point x="486.932" y="324.965"/>
      <point x="436.863" y="278.965" type="qcurve" smooth="yes"/>
      <point x="229.484" y="86.7249" type="line"/>
      <point x="195.898" y="156.932" type="line"/>
      <point x="575.346" y="156.932" type="line"/>
      <point x="575.346" y="0" type="line"/>
    </contour>
  </outline>
</glyph>
<glyph name="three" format="2">
  <advance width="603"/>
  <unicode hex="0033"/>
  <outline>
    <contour>
      <point x="267.828" y="-13.8277" type="qcurve" smooth="yes"/>
      <point x="195.207" y="-13.8277"/>
      <point x="49.6897" y="21.8962"/>
      <point x="-3.51737" y="55.3789" type="qcurve"/>
      <point x="67.7934" y="203.622" type="line"/>
      <point x="110.311" y="175.76"/>
      <point x="212.724" y="146.105"/>
      <point x="262" y="146.105" type="qcurve" smooth="yes"/>
      <point x="312.551" y="146.105"/>
      <point x="373.482" y="183.966"/>
      <point x="373.482" y="218.724" type="qcurve" smooth="yes"/>
      <point x="373.482" y="250.414"/>
      <point x="323.069" y="286.585"/>
      <point x="265.655" y="286.585" type="qcurve" smooth="yes"/>
      <point x="182.896" y="286.585" type="line"/>
      <point x="182.896" y="411.724" type="line"/>
      <point x="370.723" y="614.965" type="line"/>
      <point x="390.482" y="546.516" type="line"/>
      <point x="31.862" y="546.516" type="line"/>
      <point x="31.862" y="700" type="line"/>
      <point x="537.725" y="700" type="line"/>
      <point x="537.725" y="575.792" type="line"/>
      <point x="349.898" y="372.552" type="line"/>
      <point x="253.035" y="427.862" type="line"/>
      <point x="306.966" y="427.862" type="line" smooth="yes"/>
      <point x="437.725" y="427.862"/>
      <point x="572.622" y="310.793"/>
      <point x="572.622" y="219.035" type="qcurve" smooth="yes"/>
      <point x="572.622" y="159.345"/>
      <point x="508.104" y="52.7587"/>
      <point x="373.621" y="-13.8277"/>
    </contour>
  </outline>
</glyph>
<glyph name="four" format="2">
  <advance width="700"/>
  <unicode hex="0034"/>
  <outline>
    <contour>
      <point x="27.0343" y="133.965" type="line"/>
      <point x="27.0343" y="262.552" type="line"/>
      <point x="341.102" y="700" type="line"/>
      <point x="546.173" y="700" type="line"/>
      <point x="241.243" y="262.552" type="line"/>
      <point x="147.07" y="290.897" type="line"/>
      <point x="693.725" y="290.897" type="line"/>
      <point x="693.725" y="133.965" type="line"/>
    </contour>
    <contour>
      <point x="397.482" y="0" type="line"/>
      <point x="397.482" y="133.965" type="line"/>
      <point x="403.241" y="290.897" type="line"/>
      <point x="403.241" y="410" type="line"/>
      <point x="589.863" y="410" type="line"/>
      <point x="589.863" y="0" type="line"/>
    </contour>
  </outline>
</glyph>
<glyph name="five" format="2">
  <advance width="607"/>
  <unicode hex="0035"/>
  <outline>
    <contour>
      <point x="279.138" y="-13.8277" type="qcurve" smooth="yes"/>
      <point x="206.517" y="-13.8277"/>
      <point x="61" y="21.8962"/>
      <point x="7.79296" y="55.3789" type="qcurve"/>
      <point x="79.1038" y="203.622" type="line"/>
      <point x="121.621" y="175.76"/>
      <point x="223.345" y="146.105"/>
      <point x="272.621" y="146.105" type="qcurve" smooth="yes"/>
      <point x="323.172" y="146.105"/>
      <point x="384.792" y="184.656"/>
      <point x="384.792" y="219.724" type="qcurve" smooth="yes"/>
      <point x="384.792" y="241.241"/>
      <point x="361.206" y="273.551"/>
      <point x="302.862" y="290.827"/>
      <point x="249.311" y="290.827" type="qcurve" smooth="yes"/>
      <point x="58.7239" y="290.827" type="line"/>
      <point x="94.0343" y="700" type="line"/>
      <point x="539.794" y="700" type="line"/>
      <point x="539.794" y="546.516" type="line"/>
      <point x="164.311" y="546.516" type="line"/>
      <point x="265.312" y="633.551" type="line"/>
      <point x="242.139" y="357.586" type="line"/>
      <point x="141.138" y="444.621" type="line"/>
      <point x="296.38" y="444.621" type="line" smooth="yes"/>
      <point x="400.38" y="444.621"/>
      <point x="526.311" y="386.173"/>
      <point x="583.932" y="286.724"/>
      <point x="583.932" y="224.724" type="qcurve" smooth="yes"/>
      <point x="583.932" y="163.035"/>
      <point x="519.415" y="53.7587"/>
      <point x="384.931" y="-13.8277"/>
    </contour>
  </outline>
</glyph>
<glyph name="six" format="2">
  <advance width="649"/>
  <unicode hex="0036"/>
  <outline>
    <contour>
      <point x="358.483" y="-13.8277" type="qcurve" smooth="yes"/>
      <point x="260.345" y="-13.8277"/>
      <point x="114.621" y="64.4136"/>
      <point x="34.2756" y="218.034"/>
      <point x="34.2756" y="331.414" type="qcurve" smooth="yes"/>
      <point x="34.2756" y="453.483"/>
      <point x="128.552" y="624"/>
      <point x="296.414" y="713.828"/>
      <point x="406.449" y="713.828" type="qcurve" smooth="yes"/>
      <point x="465.035" y="713.828"/>
      <point x="573.518" y="687.31"/>
      <point x="611.656" y="662.552" type="qcurve"/>
      <point x="539.69" y="521.137" type="line"/>
      <point x="509.621" y="542.206"/>
      <point x="445.069" y="557.206"/>
      <point x="410.518" y="557.206" type="qcurve" smooth="yes"/>
      <point x="329.587" y="557.206"/>
      <point x="233.415" y="459.172"/>
      <point x="233.415" y="364.517" type="qcurve" smooth="yes"/>
      <point x="233.415" y="347.966"/>
      <point x="234.346" y="311.208"/>
      <point x="236.519" y="292.484" type="qcurve"/>
      <point x="187.484" y="333.035" type="line"/>
      <point x="206.553" y="369.518"/>
      <point x="263.967" y="419.621"/>
      <point x="342.622" y="445.552"/>
      <point x="392.242" y="445.552" type="qcurve" smooth="yes"/>
      <point x="458.104" y="445.552"/>
      <point x="566.794" y="391.173"/>
      <point x="632.553" y="292.414"/>
      <point x="632.553" y="224.655" type="qcurve" smooth="yes"/>
      <point x="632.553" y="151.828"/>
      <point x="559.346" y="44.6207"/>
      <point x="435" y="-13.8277"/>
    </contour>
    <contour>
      <point x="345.897" y="127.449" type="qcurve" smooth="yes"/>
      <point x="373.724" y="127.449"/>
      <point x="416.965" y="148.794"/>
      <point x="440.861" y="188.552"/>
      <point x="440.861" y="215.517" type="qcurve" smooth="yes"/>
      <point x="440.861" y="256.276"/>
      <point x="388.138" y="304.275"/>
      <point x="344.655" y="304.275" type="qcurve" smooth="yes"/>
      <point x="316.208" y="304.275"/>
      <point x="273.036" y="281.62"/>
      <point x="247.829" y="241.862"/>
      <point x="247.829" y="215.207" type="qcurve" smooth="yes"/>
      <point x="247.829" y="189.483"/>
      <point x="272.105" y="149.725"/>
      <point x="315.897" y="127.449"/>
    </contour>
  </outline>
</glyph>
<glyph name="seven" format="2">
  <advance width="632"/>
  <unicode hex="0037"/>
  <outline>
    <contour>
      <point x="140.482" y="0" type="line"/>
      <point x="413.482" y="627.482" type="line"/>
      <point x="465.931" y="543.068" type="line"/>
      <point x="110.656" y="543.068" type="line"/>
      <point x="192.105" y="634.241" type="line"/>
      <point x="192.105" y="434.861" type="line"/>
      <point x="23.4826" y="434.861" type="line"/>
      <point x="23.4826" y="700" type="line"/>
      <point x="602.932" y="700" type="line"/>
      <point x="602.932" y="575.792" type="line"/>
      <point x="355.967" y="0" type="line"/>
    </contour>
  </outline>
</glyph>
<glyph name="eight" format="2">
  <advance width="669"/>
  <unicode hex="0038"/>
  <outline>
    <contour>
      <point x="334.035" y="-13.8277" type="qcurve" smooth="yes"/>
      <point x="243.207" y="-13.8277"/>
      <point x="106.862" y="39.931"/>
      <point x="30.2756" y="138.759"/>
      <point x="30.2756" y="205.517" type="qcurve" smooth="yes"/>
      <point x="30.2756" y="271.966"/>
      <point x="107.31" y="365.173"/>
      <point x="244.345" y="413.931"/>
      <point x="334.035" y="413.931" type="qcurve" smooth="yes"/>
      <point x="423.724" y="413.931"/>
      <point x="561.069" y="365.173"/>
      <point x="638.415" y="271.655"/>
      <point x="638.415" y="205.517" type="qcurve" smooth="yes"/>
      <point x="638.415" y="138.759"/>
      <point x="561.518" y="39.931"/>
      <point x="424.862" y="-13.8277"/>
    </contour>
    <contour>
      <point x="334.035" y="124.691" type="qcurve" smooth="yes"/>
      <point x="381.689" y="124.691"/>
      <point x="439.275" y="171.449"/>
      <point x="439.275" y="211.966" type="qcurve" smooth="yes"/>
      <point x="439.275" y="252.483"/>
      <point x="381.689" y="298.931"/>
      <point x="334.035" y="298.931" type="qcurve" smooth="yes"/>
      <point x="286.38" y="298.931"/>
      <point x="229.415" y="252.483"/>
      <point x="229.415" y="211.966" type="qcurve" smooth="yes"/>
      <point x="229.415" y="171.449"/>
      <point x="286.38" y="124.691"/>
    </contour>
    <contour>
      <point x="334.035" y="316.069" type="qcurve" smooth="yes"/>
      <point x="252.345" y="316.069"/>
      <point x="126.621" y="361.827"/>
      <point x="55.2756" y="448.655"/>
      <point x="55.2756" y="509.793" type="qcurve" smooth="yes"/>
      <point x="55.2756" y="572.552"/>
      <point x="126.172" y="663.379"/>
      <point x="251.828" y="713.828"/>
      <point x="334.035" y="713.828" type="qcurve" smooth="yes"/>
      <point x="416.552" y="713.828"/>
      <point x="542.208" y="663.379"/>
      <point x="613.415" y="572.552"/>
      <point x="613.415" y="509.793" type="qcurve" smooth="yes"/>
      <point x="613.415" y="448.655"/>
      <point x="542.069" y="361.827"/>
      <point x="416.414" y="316.069"/>
    </contour>
    <contour>
      <point x="334.035" y="427.69" type="qcurve" smooth="yes"/>
      <point x="371.689" y="427.69"/>
      <point x="417.654" y="467.138"/>
      <point x="417.654" y="501.345" type="qcurve" smooth="yes"/>
      <point x="417.654" y="536.862"/>
      <point x="370.758" y="575.309"/>
      <point x="334.035" y="575.309" type="qcurve" smooth="yes"/>
      <point x="297.311" y="575.309"/>
      <point x="251.036" y="536.862"/>
      <point x="251.036" y="501.345" type="qcurve" smooth="yes"/>
      <point x="251.036" y="467.138"/>
      <point x="296.691" y="427.69"/>
    </contour>
  </outline>
</glyph>
<glyph name="nine" format="2">
  <advance width="649"/>
  <unicode hex="0039"/>
  <outline>
    <contour>
      <point x="290.414" y="713.828" type="qcurve" smooth="yes"/>
      <point x="388.862" y="713.828"/>
      <point x="534.277" y="635.586"/>
      <point x="614.622" y="482.655"/>
      <point x="614.622" y="368.586" type="qcurve" smooth="yes"/>
      <point x="614.622" y="246.517"/>
      <point x="520.346" y="76"/>
      <point x="353.483" y="-13.8277"/>
      <point x="242.448" y="-13.8277" type="qcurve" smooth="yes"/>
      <point x="183.862" y="-13.8277"/>
      <point x="75.6892" y="12.6897"/>
      <point x="37.2408" y="37.4484" type="qcurve"/>
      <point x="109.207" y="178.863" type="line"/>
      <point x="139.276" y="157.794"/>
      <point x="204.138" y="142.794"/>
      <point x="238.379" y="142.794" type="qcurve" smooth="yes"/>
      <point x="319.31" y="142.794"/>
      <point x="415.482" y="240.828"/>
      <point x="415.482" y="335.483" type="qcurve" smooth="yes"/>
      <point x="415.482" y="352.034"/>
      <point x="414.551" y="388.792"/>
      <point x="412.378" y="407.516" type="qcurve"/>
      <point x="461.413" y="366.965" type="line"/>
      <point x="443.344" y="330.482"/>
      <point x="384.931" y="280.379"/>
      <point x="306.586" y="254.448"/>
      <point x="256.655" y="254.448" type="qcurve" smooth="yes"/>
      <point x="191.103" y="254.448"/>
      <point x="82.1033" y="308.827"/>
      <point x="16.3446" y="408.276"/>
      <point x="16.3446" y="475.345" type="qcurve" smooth="yes"/>
      <point x="16.3446" y="548.483"/>
      <point x="89.5516" y="655.379"/>
      <point x="214.207" y="713.828"/>
    </contour>
    <contour>
      <point x="303" y="572.551" type="qcurve" smooth="yes"/>
      <point x="275.173" y="572.551"/>
      <point x="232.622" y="551.206"/>
      <point x="208.036" y="511.758"/>
      <point x="208.036" y="484.483" type="qcurve" smooth="yes"/>
      <point x="208.036" y="443.724"/>
      <point x="261.449" y="395.725"/>
      <point x="304.242" y="395.725" type="qcurve" smooth="yes"/>
      <point x="332.69" y="395.725"/>
      <point x="376.862" y="418.38"/>
      <point x="401.068" y="458.448"/>
      <point x="401.068" y="484.793" type="qcurve" smooth="yes"/>
      <point x="401.068" y="510.827"/>
      <point x="377.482" y="550.275"/>
      <point x="333.31" y="572.551"/>
    </contour>
  </outline>
</glyph>
<glyph name="less" format="2">
  <advance width="609"/>
  <unicode hex="003C"/>
  <outline>
    <contour>
      <point x="551.035" y="90.5855" type="line"/>
      <point x="58.4136" y="273.413" type="line"/>
      <point x="58.4136" y="426.587" type="line"/>
      <point x="551.035" y="609.415" type="line"/>
      <point x="551.035" y="463" type="line"/>
      <point x="113.724" y="308.138" type="line"/>
      <point x="113.724" y="391.862" type="line"/>
      <point x="551.035" y="237" type="line"/>
    </contour>
  </outline>
</glyph>
<glyph name="equal" format="2">
  <advance width="609"/>
  <unicode hex="003D"/>
  <outline>
    <contour>
      <point x="58.4136" y="404.31" type="line"/>
      <point x="58.4136" y="549.484" type="line"/>
      <point x="551.035" y="549.484" type="line"/>
      <point x="551.035" y="404.31" type="line"/>
    </contour>
    <contour>
      <point x="58.4136" y="150.516" type="line"/>
      <point x="58.4136" y="295.69" type="line"/>
      <point x="551.035" y="295.69" type="line"/>
      <point x="551.035" y="150.516" type="line"/>
    </contour>
  </outline>
</glyph>
<glyph name="greater" format="2">
  <advance width="609"/>
  <unicode hex="003E"/>
  <outline>
    <contour>
      <point x="58.4136" y="90.5855" type="line"/>
      <point x="58.4136" y="237" type="line"/>
      <point x="496.035" y="391.862" type="line"/>
      <point x="496.035" y="308.138" type="line"/>
      <point x="58.4136" y="463" type="line"/>
      <point x="58.4136" y="609.415" type="line"/>
      <point x="551.035" y="426.587" type="line"/>
      <point x="551.035" y="273.413" type="line"/>
    </contour>
  </outline>
</glyph>
<glyph name="question" format="2">
  <advance width="597"/>
  <unicode hex="003F"/>
  <outline>
    <contour>
      <point x="212.276" y="255.277" type="line"/>
      <point x="212.276" y="287.759"/>
      <point x="233.138" y="338.552"/>
      <point x="265.241" y="378.724"/>
      <point x="301.965" y="412.207"/>
      <point x="334.068" y="443"/>
      <point x="354.93" y="475.345"/>
      <point x="354.93" y="493.758" type="qcurve" smooth="yes"/>
      <point x="354.93" y="523.585"/>
      <point x="305.689" y="557.516"/>
      <point x="267.138" y="557.516" type="qcurve" smooth="yes"/>
      <point x="227.069" y="557.516"/>
      <point x="162.07" y="520.275"/>
      <point x="142.036" y="486.413" type="qcurve"/>
      <point x="-6.79343" y="566.103" type="line"/>
      <point x="32.4479" y="632.827"/>
      <point x="179.931" y="713.828"/>
      <point x="290.311" y="713.828" type="qcurve" smooth="yes"/>
      <point x="367.449" y="713.828"/>
      <point x="485.794" y="670.828"/>
      <point x="554.07" y="587.379"/>
      <point x="554.07" y="526.241" type="qcurve" smooth="yes"/>
      <point x="554.07" y="487.31"/>
      <point x="530.449" y="428.69"/>
      <point x="492.829" y="384.759"/>
      <point x="451.277" y="347.828"/>
      <point x="413.656" y="314.345"/>
      <point x="390.036" y="278"/>
      <point x="390.036" y="255.277" type="qcurve"/>
    </contour>
    <contour>
      <point x="301.311" y="-8.75869" type="qcurve" smooth="yes"/>
      <point x="251.69" y="-8.75869"/>
      <point x="187.931" y="53.2418"/>
      <point x="187.931" y="96.0352" type="qcurve" smooth="yes"/>
      <point x="187.931" y="139.829"/>
      <point x="251.69" y="199.45"/>
      <point x="301.311" y="199.45" type="qcurve" smooth="yes"/>
      <point x="351.932" y="199.45"/>
      <point x="414.691" y="139.829"/>
      <point x="414.691" y="96.0352" type="qcurve" smooth="yes"/>
      <point x="414.691" y="53.2418"/>
      <point x="351.932" y="-8.75869"/>
    </contour>
  </outline>
</glyph>
<glyph name="at" format="2">
  <advance width="1036"/>
  <unicode hex="0040"/>
  <outline>
    <contour>
      <point x="521.138" y="-207.828" type="qcurve" smooth="yes"/>
      <point x="410.621" y="-207.828"/>
      <point x="231.414" y="-138.448"/>
      <point x="102.965" y="-13.3793"/>
      <point x="34.2756" y="155"/>
      <point x="34.2756" y="253.31" type="qcurve" smooth="yes"/>
      <point x="34.2756" y="350.931"/>
      <point x="102.965" y="517.621"/>
      <point x="232.414" y="642.379"/>
      <point x="413.621" y="712.138"/>
      <point x="525.138" y="712.138" type="qcurve" smooth="yes"/>
      <point x="631.586" y="712.138"/>
      <point x="806.724" y="646.069"/>
      <point x="933.104" y="527.69"/>
      <point x="1001.79" y="369.448"/>
      <point x="1001.79" y="277.586" type="qcurve" smooth="yes"/>
      <point x="1001.79" y="185.69"/>
      <point x="944.31" y="57.5516"/>
      <point x="845.069" y="-8.06901"/>
      <point x="782.31" y="-8.06901" type="qcurve" smooth="yes"/>
      <point x="707.447" y="-8.06901"/>
      <point x="619.516" y="78.7934"/>
      <point x="619.516" y="163.035" type="qcurve" smooth="yes"/>
      <point x="619.516" y="196.759" type="line"/>
      <point x="621.068" y="247.483" type="line"/>
      <point x="612.068" y="409.104" type="line"/>
      <point x="612.068" y="485.207" type="line"/>
      <point x="775.207" y="485.207" type="line"/>
      <point x="775.207" y="179.656" type="line" smooth="yes"/>
      <point x="775.207" y="146.173"/>
      <point x="801" y="120.001"/>
      <point x="818.862" y="120.001" type="qcurve" smooth="yes"/>
      <point x="837.517" y="120.001"/>
      <point x="865.792" y="149.518"/>
      <point x="881.654" y="217.966"/>
      <point x="881.654" y="274.897" type="qcurve" smooth="yes"/>
      <point x="881.654" y="347.241"/>
      <point x="831.172" y="466.758"/>
      <point x="736.517" y="554.103"/>
      <point x="605.241" y="601.275"/>
      <point x="525.138" y="601.275" type="qcurve" smooth="yes"/>
      <point x="444.724" y="601.275"/>
      <point x="312.828" y="549.413"/>
      <point x="218.104" y="455.31"/>
      <point x="166.932" y="328.034"/>
      <point x="166.932" y="253.31" type="qcurve" smooth="yes"/>
      <point x="166.932" y="176.897"/>
      <point x="217.104" y="48.6211"/>
      <point x="310.828" y="-45.4822"/>
      <point x="441.414" y="-96.6545"/>
      <point x="521.138" y="-96.6545" type="qcurve" smooth="yes"/>
      <point x="569.897" y="-96.6545"/>
      <point x="671.207" y="-75.6545"/>
      <point x="720.345" y="-52.6545" type="qcurve"/>
      <point x="757.069" y="-160.138" type="line"/>
      <point x="711.759" y="-182.448"/>
      <point x="584.104" y="-207.828"/>
    </contour>
    <contour>
      <point x="473.241" y="-8.06901" type="qcurve" smooth="yes"/>
      <point x="413.965" y="-8.06901"/>
      <point x="312.931" y="53.793"/>
      <point x="251.31" y="167.034"/>
      <point x="251.31" y="243.103" type="qcurve" smooth="yes"/>
      <point x="251.31" y="319.172"/>
      <point x="312.241" y="431.414"/>
      <point x="413.276" y="492.965"/>
      <point x="473.241" y="492.965" type="qcurve" smooth="yes"/>
      <point x="538.482" y="492.965"/>
      <point x="625.62" y="432.207"/>
      <point x="669.826" y="320.586"/>
      <point x="669.826" y="243.103" type="qcurve" smooth="yes"/>
      <point x="669.826" y="166.31"/>
      <point x="627.999" y="53"/>
      <point x="541.862" y="-8.06901"/>
    </contour>
    <contour>
      <point x="516.138" y="127.518" type="qcurve" smooth="yes"/>
      <point x="544.896" y="127.518"/>
      <point x="589.309" y="154.415"/>
      <point x="615.447" y="206.276"/>
      <point x="615.447" y="243.103" type="qcurve" smooth="yes"/>
      <point x="615.447" y="280.241"/>
      <point x="589.309" y="330.792"/>
      <point x="544.896" y="357.378"/>
      <point x="516.138" y="357.378" type="qcurve" smooth="yes"/>
      <point x="487.759" y="357.378"/>
      <point x="442.656" y="330.482"/>
      <point x="417.829" y="279.62"/>
      <point x="417.829" y="243.103" type="qcurve" smooth="yes"/>
      <point x="417.829" y="206.586"/>
      <point x="442.656" y="155.035"/>
      <point x="487.759" y="127.518"/>
    </contour>
  </outline>
</glyph>
<glyph name="B" format="2">
  <advance width="769"/>
  <unicode hex="0042"/>
  <anchor x="382.621" y="700" name="t.uni0308"/>
  <anchor x="382.621" y="0" name="b.uni0324_3"/>
  <outline>
    <contour>
      <point x="70.3441" y="0" type="line"/>
      <point x="70.3441" y="700" type="line"/>
      <point x="427.897" y="700" type="line" smooth="yes"/>
      <point x="566.069" y="700"/>
      <point x="701.897" y="598.552"/>
      <point x="701.897" y="517.31" type="qcurve" smooth="yes"/>
      <point x="701.897" y="463.379"/>
      <point x="645.38" y="381.621"/>
      <point x="542.379" y="335.483"/>
      <point x="471.241" y="335.483" type="qcurve"/>
      <point x="490.62" y="382.966" type="line"/>
      <point x="564.552" y="382.966"/>
      <point x="674.552" y="338.207"/>
      <point x="735.828" y="252.759"/>
      <point x="735.828" y="192.069" type="qcurve" smooth="yes"/>
      <point x="735.828" y="101.379"/>
      <point x="589.483" y="0"/>
      <point x="447.897" y="0" type="qcurve" smooth="yes"/>
    </contour>
    <contour>
      <point x="265.725" y="142.656" type="line"/>
      <point x="432.241" y="142.656" type="line" smooth="yes"/>
      <point x="483.344" y="142.656"/>
      <point x="535.999" y="177.794"/>
      <point x="535.999" y="213.793" type="qcurve" smooth="yes"/>
      <point x="535.999" y="249.793"/>
      <point x="483.344" y="285.241"/>
      <point x="432.241" y="285.241" type="qcurve" smooth="yes"/>
      <point x="251.898" y="285.241" type="line"/>
      <point x="251.898" y="421.69" type="line"/>
      <point x="402.103" y="421.69" type="line" smooth="yes"/>
      <point x="452.034" y="421.69"/>
      <point x="502.068" y="456.138"/>
      <point x="502.068" y="489.517" type="qcurve" smooth="yes"/>
      <point x="502.068" y="523.585"/>
      <point x="452.034" y="557.344"/>
      <point x="402.103" y="557.344" type="qcurve" smooth="yes"/>
      <point x="265.725" y="557.344" type="line"/>
    </contour>
  </outline>
</glyph>
<glyph name="D" format="2">
  <advance width="826"/>
  <unicode hex="0044"/>
  <anchor x="354.655" y="700" name="t.uni0308"/>
  <anchor x="206.931" y="355" name="t.uni0307_1"/>
  <anchor x="356.345" y="0" name="b.uni0324_3"/>
  <outline>
    <contour>
      <point x="70.3441" y="0" type="line"/>
      <point x="70.3441" y="700" type="line"/>
      <point x="401.379" y="700" type="line" smooth="yes"/>
      <point x="517.138" y="700"/>
      <point x="692.966" y="614.069"/>
      <point x="791.724" y="457.759"/>
      <point x="791.724" y="350.69" type="qcurve" smooth="yes"/>
      <point x="791.724" y="242.931"/>
      <point x="692.966" y="85.931"/>
      <point x="517.138" y="0"/>
      <point x="401.379" y="0" type="qcurve" smooth="yes"/>
    </contour>
    <contour>
      <point x="268.484" y="157.622" type="line"/>
      <point x="392.621" y="157.622" type="line" smooth="yes"/>
      <point x="452.862" y="157.622"/>
      <point x="542.137" y="203.38"/>
      <point x="591.895" y="290.173"/>
      <point x="591.895" y="350.69" type="qcurve" smooth="yes"/>
      <point x="591.895" y="410.827"/>
      <point x="542.137" y="496.62"/>
      <point x="452.862" y="542.378"/>
      <point x="392.621" y="542.378" type="qcurve" smooth="yes"/>
      <point x="268.484" y="542.378" type="line"/>
    </contour>
  </outline>
</glyph>
<glyph name="E" format="2">
  <advance width="672"/>
  <unicode hex="0045"/>
  <anchor x="339.828" y="700" name="t.uni0308"/>
  <anchor x="337.345" y="0" name="b.uni0324_3"/>
  <anchor x="644.276" y="0" name="m.uni0328_4"/>
  <outline>
    <contour>
      <point x="251.898" y="428.828" type="line"/>
      <point x="576.931" y="428.828" type="line"/>
      <point x="576.931" y="281.482" type="line"/>
      <point x="251.898" y="281.482" type="line"/>
    </contour>
    <contour>
      <point x="265.725" y="153.484" type="line"/>
      <point x="631.862" y="153.484" type="line"/>
      <point x="631.862" y="0" type="line"/>
      <point x="70.3441" y="0" type="line"/>
      <point x="70.3441" y="700" type="line"/>
      <point x="618.552" y="700" type="line"/>
      <point x="618.552" y="546.516" type="line"/>
      <point x="265.725" y="546.516" type="line"/>
    </contour>
  </outline>
</glyph>
<glyph name="F" format="2">
  <advance width="642"/>
  <unicode hex="0046"/>
  <outline>
    <contour>
      <point x="254.346" y="393.311" type="line"/>
      <point x="576.931" y="393.311" type="line"/>
      <point x="576.931" y="239.827" type="line"/>
      <point x="254.346" y="239.827" type="line"/>
    </contour>
    <contour>
      <point x="268.484" y="0" type="line"/>
      <point x="70.3441" y="0" type="line"/>
      <point x="70.3441" y="700" type="line"/>
      <point x="618.552" y="700" type="line"/>
      <point x="618.552" y="546.516" type="line"/>
      <point x="268.484" y="546.516" type="line"/>
    </contour>
  </outline>
</glyph>
<glyph name="H" format="2">
  <advance width="806"/>
  <unicode hex="0048"/>
  <anchor x="401.069" y="700" name="t.uni0308"/>
  <anchor x="401.069" y="581.586" name="t.uni0307_1"/>
  <anchor x="401.069" y="0" name="b.uni0324_3"/>
  <outline>
    <contour>
      <point x="537.688" y="700" type="line"/>
      <point x="735.828" y="700" type="line"/>
      <point x="735.828" y="0" type="line"/>
      <point x="537.688" y="0" type="line"/>
    </contour>
    <contour>
      <point x="268.484" y="0" type="line"/>
      <point x="70.3441" y="0" type="line"/>
      <point x="70.3441" y="700" type="line"/>
      <point x="268.484" y="700" type="line"/>
    </contour>
    <contour>
      <point x="551.516" y="272.896" type="line"/>
      <point x="254.346" y="272.896" type="line"/>
      <point x="254.346" y="437.415" type="line"/>
      <point x="551.516" y="437.415" type="line"/>
    </contour>
  </outline>
</glyph>
<glyph name="I" format="2">
  <advance width="339"/>
  <unicode hex="0049"/>
  <anchor x="179.345" y="700" name="t.uni0308"/>
  <anchor x="179.345" y="0" name="b.uni0324_3"/>
  <anchor x="311.93" y="0" name="m.uni0328_4"/>
  <outline>
    <contour>
      <point x="70.3441" y="0" type="line"/>
      <point x="70.3441" y="700" type="line"/>
      <point x="268.484" y="700" type="line"/>
      <point x="268.484" y="0" type="line"/>
    </contour>
  </outline>
</glyph>
<glyph name="J" format="2">
  <advance width="557"/>
  <unicode hex="004A"/>
  <anchor x="298.862" y="700" name="t.uni0308"/>
  <outline>
    <contour>
      <point x="222.828" y="-13.8277" type="qcurve" smooth="yes"/>
      <point x="146.414" y="-13.8277"/>
      <point x="21.2413" y="38.862"/>
      <point x="-19.9657" y="89.2413" type="qcurve"/>
      <point x="88.1042" y="217.208" type="line"/>
      <point x="116.415" y="181.346"/>
      <point x="175.69" y="144.484"/>
      <point x="209.035" y="144.484" type="qcurve" smooth="yes"/>
      <point x="296.827" y="144.484"/>
      <point x="296.827" y="246.38" type="qcurve" smooth="yes"/>
      <point x="296.827" y="546.516" type="line"/>
      <point x="54.793" y="546.516" type="line"/>
      <point x="54.793" y="700" type="line"/>
      <point x="492.898" y="700" type="line"/>
      <point x="492.898" y="257.897" type="line" smooth="yes"/>
      <point x="492.898" y="121.035"/>
      <point x="354.829" y="-13.8277"/>
    </contour>
  </outline>
</glyph>
<glyph name="K" format="2">
  <advance width="752"/>
  <unicode hex="004B"/>
  <anchor x="385.862" y="700" name="t.uni0308"/>
  <anchor x="385.862" y="0" name="b.uni0324_3"/>
  <outline>
    <contour>
      <point x="247.208" y="155.276" type="line"/>
      <point x="236.38" y="377.036" type="line"/>
      <point x="536.999" y="700" type="line"/>
      <point x="754.587" y="700" type="line"/>
      <point x="455.484" y="374.621" type="line"/>
      <point x="345.276" y="260.171" type="line"/>
    </contour>
    <contour>
      <point x="70.3441" y="0" type="line"/>
      <point x="70.3441" y="700" type="line"/>
      <point x="265.725" y="700" type="line"/>
      <point x="265.725" y="0" type="line"/>
    </contour>
    <contour>
      <point x="540.275" y="0" type="line"/>
      <point x="311.931" y="288.758" type="line"/>
      <point x="441.036" y="426.862" type="line"/>
      <point x="770.139" y="0" type="line"/>
    </contour>
  </outline>
</glyph>
<glyph name="L" format="2">
  <advance width="610"/>
  <unicode hex="004C"/>
  <anchor x="179.345" y="700" name="t.uni0308"/>
  <anchor x="490.827" y="453.103" name="t.periodcentered.loclCAT"/>
  <anchor x="179.345" y="405.896" name="t.uni0307_1"/>
  <anchor x="419.897" y="700" name="t.uni031B_2"/>
  <anchor x="342.828" y="0" name="b.uni0324_3"/>
  <outline>
    <contour>
      <point x="70.3441" y="0" type="line"/>
      <point x="70.3441" y="700" type="line"/>
      <point x="268.484" y="700" type="line"/>
      <point x="268.484" y="156.932" type="line"/>
      <point x="602.173" y="156.932" type="line"/>
      <point x="602.173" y="0" type="line"/>
    </contour>
  </outline>
</glyph>
<glyph name="Q" format="2">
  <advance width="846"/>
  <unicode hex="0051"/>
  <anchor x="425.931" y="700" name="t.uni0308"/>
  <outline>
    <contour>
      <point x="423.069" y="-13.8277" type="qcurve" smooth="yes"/>
      <point x="339.31" y="-13.8277"/>
      <point x="196.793" y="40.1723"/>
      <point x="92.3446" y="138.552"/>
      <point x="34.2756" y="271.621"/>
      <point x="34.2756" y="350" type="qcurve" smooth="yes"/>
      <point x="34.2756" y="429.069"/>
      <point x="92.3446" y="561.448"/>
      <point x="196.793" y="659.828"/>
      <point x="339.31" y="713.828"/>
      <point x="423.069" y="713.828" type="qcurve" smooth="yes"/>
      <point x="507.517" y="713.828"/>
      <point x="649.035" y="660.138"/>
      <point x="753.483" y="561.759"/>
      <point x="811.552" y="429.379"/>
      <point x="811.552" y="350" type="qcurve" smooth="yes"/>
      <point x="811.552" y="271.31"/>
      <point x="753.483" y="138.241"/>
      <point x="649.035" y="39.862"/>
      <point x="507.517" y="-13.8277"/>
    </contour>
    <contour>
      <point x="652.069" y="-168.621" type="qcurve" smooth="yes"/>
      <point x="607.103" y="-168.621"/>
      <point x="528.689" y="-150.242"/>
      <point x="453.723" y="-108.104"/>
      <point x="372.689" y="-36.069"/>
      <point x="323.413" y="17.207" type="qcurve"/>
      <point x="529.553" y="68.5178" type="line"/>
      <point x="555.104" y="31.5178"/>
      <point x="595" y="-10.3441"/>
      <point x="633.586" y="-27.5855"/>
      <point x="656.138" y="-27.5855" type="qcurve" smooth="yes"/>
      <point x="714.345" y="-27.5855"/>
      <point x="761.517" y="21.4488" type="qcurve"/>
      <point x="848.311" y="-81.4831" type="line"/>
      <point x="775.173" y="-168.621"/>
    </contour>
    <contour>
      <point x="423.069" y="149.553" type="qcurve" smooth="yes"/>
      <point x="463.207" y="149.553"/>
      <point x="531.689" y="177.898"/>
      <point x="583.068" y="230.656"/>
      <point x="611.723" y="304.655"/>
      <point x="611.723" y="350" type="qcurve" smooth="yes"/>
      <point x="611.723" y="395.655"/>
      <point x="583.068" y="469.344"/>
      <point x="531.689" y="522.102"/>
      <point x="463.207" y="550.447"/>
      <point x="423.069" y="550.447" type="qcurve" smooth="yes"/>
      <point x="382.931" y="550.447"/>
      <point x="314.139" y="522.102"/>
      <point x="262.76" y="469.344"/>
      <point x="234.105" y="395.655"/>
      <point x="234.105" y="350" type="qcurve" smooth="yes"/>
      <point x="234.105" y="304.655"/>
      <point x="262.76" y="230.656"/>
      <point x="314.139" y="177.898"/>
      <point x="382.931" y="149.553"/>
    </contour>
  </outline>
</glyph>
<glyph name="R" format="2">
  <advance width="740"/>
  <unicode hex="0052"/>
  <anchor x="380.862" y="700" name="t.uni0308"/>
  <anchor x="380.862" y="0" name="b.uni0324_3"/>
  <outline>
    <contour>
      <point x="70.3441" y="0" type="line"/>
      <point x="70.3441" y="700" type="line"/>
      <point x="389.655" y="700" type="line" smooth="yes"/>
      <point x="485.793" y="700"/>
      <point x="625.38" y="637.552"/>
      <point x="701.208" y="521.034"/>
      <point x="701.208" y="441.276" type="qcurve" smooth="yes"/>
      <point x="701.208" y="361.827"/>
      <point x="625.38" y="247"/>
      <point x="485.793" y="185.931"/>
      <point x="389.655" y="185.931" type="qcurve" smooth="yes"/>
      <point x="180.242" y="185.931" type="line"/>
      <point x="268.484" y="269.276" type="line"/>
      <point x="268.484" y="0" type="line"/>
    </contour>
    <contour>
      <point x="502.999" y="0" type="line"/>
      <point x="329.137" y="254.69" type="line"/>
      <point x="539.725" y="254.69" type="line"/>
      <point x="715.277" y="0" type="line"/>
    </contour>
    <contour>
      <point x="268.484" y="247.621" type="line"/>
      <point x="180.242" y="338.794" type="line"/>
      <point x="378.069" y="338.794" type="line" smooth="yes"/>
      <point x="440.103" y="338.794"/>
      <point x="501.378" y="393.345"/>
      <point x="501.378" y="441.276" type="qcurve" smooth="yes"/>
      <point x="501.378" y="489.516"/>
      <point x="440.103" y="543.757"/>
      <point x="378.069" y="543.757" type="qcurve" smooth="yes"/>
      <point x="180.242" y="543.757" type="line"/>
      <point x="268.484" y="635.241" type="line"/>
    </contour>
  </outline>
</glyph>
<glyph name="S" format="2">
  <advance width="647"/>
  <unicode hex="0053"/>
  <anchor x="330.552" y="700" name="t.uni0308"/>
  <anchor x="330.552" y="0" name="b.uni0324_3"/>
  <outline>
    <contour>
      <point x="315.517" y="-13.8277" type="qcurve" smooth="yes"/>
      <point x="229.69" y="-13.8277"/>
      <point x="70.6549" y="28.6549"/>
      <point x="20.7582" y="62.5169" type="qcurve"/>
      <point x="85.8967" y="209.07" type="line"/>
      <point x="133.104" y="178.518"/>
      <point x="256.414" y="140.415"/>
      <point x="316.897" y="140.415" type="qcurve" smooth="yes"/>
      <point x="358.345" y="140.415"/>
      <point x="407.585" y="154.691"/>
      <point x="430.551" y="180.38"/>
      <point x="430.551" y="197.345" type="qcurve" smooth="yes"/>
      <point x="430.551" y="221"/>
      <point x="387.309" y="248.896"/>
      <point x="316.758" y="267"/>
      <point x="232.275" y="284.931"/>
      <point x="147.103" y="312.62"/>
      <point x="76.5512" y="357.689"/>
      <point x="33.3099" y="431.448"/>
      <point x="33.3099" y="487.448" type="qcurve" smooth="yes"/>
      <point x="33.3099" y="549.655"/>
      <point x="101.965" y="652.31"/>
      <point x="239.828" y="713.828"/>
      <point x="343.483" y="713.828" type="qcurve" smooth="yes"/>
      <point x="411.69" y="713.828"/>
      <point x="544.725" y="683.207"/>
      <point x="596.622" y="652.517" type="qcurve"/>
      <point x="536.173" y="506.344" type="line"/>
      <point x="486.035" y="533.275"/>
      <point x="388.104" y="559.585"/>
      <point x="341.793" y="559.585" type="qcurve" smooth="yes"/>
      <point x="300.966" y="559.585"/>
      <point x="251.036" y="542.62"/>
      <point x="229.07" y="514.551"/>
      <point x="229.07" y="497.276" type="qcurve" smooth="yes"/>
      <point x="229.07" y="474.31"/>
      <point x="272.312" y="447.104"/>
      <point x="342.863" y="430"/>
      <point x="428.036" y="412.449"/>
      <point x="512.518" y="385.069"/>
      <point x="583.07" y="340.311"/>
      <point x="626.311" y="267.242"/>
      <point x="626.311" y="212.242" type="qcurve" smooth="yes"/>
      <point x="626.311" y="151.035"/>
      <point x="557.346" y="48.3793"/>
      <point x="419.862" y="-13.8277"/>
    </contour>
  </outline>
</glyph>
<glyph name="U" format="2">
  <advance width="786"/>
  <unicode hex="0055"/>
  <anchor x="393.69" y="700" name="t.uni0308"/>
  <anchor x="635.655" y="700" name="t.uni031B_2"/>
  <anchor x="393.69" y="0" name="b.uni0324_3"/>
  <anchor x="624.965" y="0" name="m.uni0328_4"/>
  <outline>
    <contour>
      <point x="392.931" y="-13.8277" type="qcurve" smooth="yes"/>
      <point x="238.138" y="-13.8277"/>
      <point x="64.3441" y="155.828"/>
      <point x="64.3441" y="311.586" type="qcurve" smooth="yes"/>
      <point x="64.3441" y="700" type="line"/>
      <point x="262.484" y="700" type="line"/>
      <point x="262.484" y="317.655" type="line" smooth="yes"/>
      <point x="262.484" y="227.725"/>
      <point x="332.897" y="149.553"/>
      <point x="394.621" y="149.553" type="qcurve" smooth="yes"/>
      <point x="457.034" y="149.553"/>
      <point x="526.757" y="227.725"/>
      <point x="526.757" y="317.655" type="qcurve" smooth="yes"/>
      <point x="526.757" y="700" type="line"/>
      <point x="721.518" y="700" type="line"/>
      <point x="721.518" y="311.586" type="line" smooth="yes"/>
      <point x="721.518" y="155.828"/>
      <point x="547.724" y="-13.8277"/>
    </contour>
  </outline>
</glyph>
<glyph name="V" format="2">
  <advance width="766"/>
  <unicode hex="0056"/>
  <outline>
    <contour>
      <point x="285.379" y="0" type="line"/>
      <point x="-14.0347" y="700" type="line"/>
      <point x="199.623" y="700" type="line"/>
      <point x="452.105" y="94.1042" type="line"/>
      <point x="325.931" y="94.1042" type="line"/>
      <point x="584.172" y="700" type="line"/>
      <point x="779.553" y="700" type="line"/>
      <point x="480.45" y="0" type="line"/>
    </contour>
  </outline>
</glyph>
<glyph name="W" format="2">
  <advance width="1184"/>
  <unicode hex="0057"/>
  <anchor x="611.689" y="700" name="t.uni0308"/>
  <anchor x="611.689" y="0" name="b.uni0324_3"/>
  <outline>
    <contour>
      <point x="243" y="0" type="line"/>
      <point x="16.2066" y="700" type="line"/>
      <point x="220.415" y="700" type="line"/>
      <point x="410.725" y="94.1042" type="line"/>
      <point x="308.276" y="94.1042" type="line"/>
      <point x="508.655" y="700" type="line"/>
      <point x="691.208" y="700" type="line"/>
      <point x="880.76" y="94.1042" type="line"/>
      <point x="782.379" y="94.1042" type="line"/>
      <point x="979.448" y="700" type="line"/>
      <point x="1167.76" y="700" type="line"/>
      <point x="940.967" y="0" type="line"/>
      <point x="728.931" y="0" type="line"/>
      <point x="566.793" y="515.033" type="line"/>
      <point x="623.622" y="515.033" type="line"/>
      <point x="455.346" y="0" type="line"/>
    </contour>
  </outline>
</glyph>
<glyph name="X" format="2">
  <advance width="737"/>
  <unicode hex="0058"/>
  <outline>
    <contour>
      <point x="-2.10375" y="0" type="line"/>
      <point x="304" y="425.449" type="line"/>
      <point x="303.31" y="284.344" type="line"/>
      <point x="8.75822" y="700" type="line"/>
      <point x="231.864" y="700" type="line"/>
      <point x="419.656" y="429.449" type="line"/>
      <point x="325.276" y="428.449" type="line"/>
      <point x="510" y="700" type="line"/>
      <point x="723.657" y="700" type="line"/>
      <point x="429.725" y="292.413" type="line"/>
      <point x="429.725" y="431.587" type="line"/>
      <point x="739.588" y="0" type="line"/>
      <point x="512.413" y="0" type="line"/>
      <point x="320.897" y="284.723" type="line"/>
      <point x="411.898" y="285.413" type="line"/>
      <point x="224.071" y="0" type="line"/>
    </contour>
  </outline>
</glyph>
<glyph name="Y" format="2">
  <advance width="693"/>
  <unicode hex="0059"/>
  <anchor x="361.827" y="700" name="t.uni0308"/>
  <anchor x="354.896" y="269.414" name="t.uni0307_1"/>
  <anchor x="361.827" y="0" name="b.uni0324_3"/>
  <outline>
    <contour>
      <point x="247.241" y="0" type="line"/>
      <point x="247.241" y="296.138" type="line"/>
      <point x="292.552" y="177.172" type="line"/>
      <point x="-20.4831" y="700" type="line"/>
      <point x="189.105" y="700" type="line"/>
      <point x="414.656" y="320.725" type="line"/>
      <point x="293.552" y="320.725" type="line"/>
      <point x="520.792" y="700" type="line"/>
      <point x="713.105" y="700" type="line"/>
      <point x="401.449" y="177.172" type="line"/>
      <point x="445.381" y="296.138" type="line"/>
      <point x="445.381" y="0" type="line"/>
    </contour>
  </outline>
</glyph>
<glyph name="Z" format="2">
  <advance width="679"/>
  <unicode hex="005A"/>
  <anchor x="358.034" y="700" name="t.uni0308"/>
  <anchor x="356.483" y="0" name="b.uni0324_3"/>
  <outline>
    <contour>
      <point x="35.1033" y="0" type="line"/>
      <point x="35.1033" y="124.208" type="line"/>
      <point x="447.447" y="613.275" type="line"/>
      <point x="471.482" y="543.068" type="line"/>
      <point x="44.1723" y="543.068" type="line"/>
      <point x="44.1723" y="700" type="line"/>
      <point x="646.897" y="700" type="line"/>
      <point x="646.897" y="575.792" type="line"/>
      <point x="234.864" y="86.7249" type="line"/>
      <point x="210.519" y="156.932" type="line"/>
      <point x="661.966" y="156.932" type="line"/>
      <point x="661.966" y="0" type="line"/>
    </contour>
  </outline>
</glyph>
<glyph name="bracketleft" format="2">
  <advance width="389"/>
  <unicode hex="005B"/>
  <outline>
    <contour>
      <point x="70.3441" y="-194" type="line"/>
      <point x="70.3441" y="742" type="line"/>
      <point x="376.105" y="742" type="line"/>
      <point x="376.105" y="596.826" type="line"/>
      <point x="260.346" y="596.826" type="line"/>
      <point x="260.346" y="-48.8263" type="line"/>
      <point x="376.105" y="-48.8263" type="line"/>
      <point x="376.105" y="-194" type="line"/>
    </contour>
  </outline>
</glyph>
<glyph name="backslash" format="2">
  <advance width="415"/>
  <unicode hex="005C"/>
  <outline>
    <contour>
      <point x="452.07" y="-100" type="line"/>
      <point x="283.414" y="-100" type="line"/>
      <point x="-46.5864" y="842" type="line"/>
      <point x="122.07" y="842" type="line"/>
    </contour>
  </outline>
</glyph>
<glyph name="bracketright" format="2">
  <advance width="389"/>
  <unicode hex="005D"/>
  <outline>
    <contour>
      <point x="318.243" y="-194" type="line"/>
      <point x="12.4826" y="-194" type="line"/>
      <point x="12.4826" y="-48.8263" type="line"/>
      <point x="128.241" y="-48.8263" type="line"/>
      <point x="128.241" y="596.826" type="line"/>
      <point x="12.4826" y="596.826" type="line"/>
      <point x="12.4826" y="742" type="line"/>
      <point x="318.243" y="742" type="line"/>
    </contour>
  </outline>
</glyph>
<glyph name="asciicircum" format="2">
  <advance width="610"/>
  <unicode hex="005E"/>
  <outline>
    <contour>
      <point x="46.8615" y="139.931" type="line"/>
      <point x="229.689" y="560.069" type="line"/>
      <point x="380.38" y="560.069" type="line"/>
      <point x="562.898" y="139.931" type="line"/>
      <point x="418.655" y="139.931" type="line"/>
      <point x="263.793" y="513.276" type="line"/>
      <point x="345.966" y="513.276" type="line"/>
      <point x="191.104" y="139.931" type="line"/>
    </contour>
  </outline>
</glyph>
<glyph name="underscore" format="2">
  <advance width="500"/>
  <unicode hex="005F"/>
  <outline>
    <contour>
      <point x="0" y="-104.484" type="line"/>
      <point x="0" y="0" type="line"/>
      <point x="500" y="0" type="line"/>
      <point x="500" y="-104.484" type="line"/>
    </contour>
  </outline>
</glyph>
<glyph name="a" format="2">
  <advance width="683"/>
  <unicode hex="0061"/>
  <anchor x="358.276" y="551.655" name="t.uni0308"/>
  <anchor x="358.276" y="0" name="b.uni0324_3"/>
  <anchor x="648.482" y="0" name="m.uni0328_4"/>
  <outline>
    <contour>
      <point x="296.62" y="-8.75869" type="qcurve" smooth="yes"/>
      <point x="223.448" y="-8.75869"/>
      <point x="101.827" y="59.931"/>
      <point x="30.4479" y="185.379"/>
      <point x="30.4479" y="271.517" type="qcurve" smooth="yes"/>
      <point x="30.4479" y="357.655"/>
      <point x="101.827" y="483.104"/>
      <point x="223.448" y="551.104"/>
      <point x="296.62" y="551.104" type="qcurve" smooth="yes"/>
      <point x="366.758" y="551.104"/>
      <point x="463.723" y="490.724"/>
      <point x="514.24" y="367.276"/>
      <point x="514.24" y="271.517" type="qcurve" smooth="yes"/>
      <point x="514.24" y="175.379"/>
      <point x="466.413" y="50.931"/>
      <point x="370.138" y="-8.75869"/>
    </contour>
    <contour>
      <point x="336.655" y="142.415" type="qcurve" smooth="yes"/>
      <point x="368.793" y="142.415"/>
      <point x="419.965" y="172.311"/>
      <point x="450.482" y="230.931"/>
      <point x="450.482" y="271.517" type="qcurve" smooth="yes"/>
      <point x="450.482" y="313.103"/>
      <point x="419.965" y="370.034"/>
      <point x="368.793" y="399.93"/>
      <point x="336.655" y="399.93" type="qcurve" smooth="yes"/>
      <point x="304.518" y="399.93"/>
      <point x="253.346" y="370.034"/>
      <point x="222.829" y="313.103"/>
      <point x="222.829" y="271.517" type="qcurve" smooth="yes"/>
      <point x="222.829" y="230.931"/>
      <point x="253.346" y="172.311"/>
      <point x="304.518" y="142.415"/>
    </contour>
    <contour>
      <point x="456.24" y="0" type="line"/>
      <point x="456.24" y="92.6197" type="line"/>
      <point x="457.102" y="271.828" type="line"/>
      <point x="447.102" y="451.036" type="line"/>
      <point x="447.102" y="542.345" type="line"/>
      <point x="637.104" y="542.345" type="line"/>
      <point x="637.104" y="0" type="line"/>
    </contour>
  </outline>
</glyph>
<glyph name="b" format="2">
  <advance width="695"/>
  <unicode hex="0062"/>
  <outline>
    <contour>
      <point x="401.966" y="-8.75869" type="qcurve" smooth="yes"/>
      <point x="329.449" y="-8.75869"/>
      <point x="232.173" y="50.931"/>
      <point x="184.346" y="175.379"/>
      <point x="184.346" y="271.517" type="qcurve" smooth="yes"/>
      <point x="184.346" y="367.276"/>
      <point x="234.863" y="490.724"/>
      <point x="332.828" y="551.104"/>
      <point x="401.966" y="551.104" type="qcurve" smooth="yes"/>
      <point x="476.138" y="551.104"/>
      <point x="596.759" y="483.104"/>
      <point x="668.138" y="357.655"/>
      <point x="668.138" y="271.517" type="qcurve" smooth="yes"/>
      <point x="668.138" y="185.379"/>
      <point x="596.759" y="59.931"/>
      <point x="476.138" y="-8.75869"/>
    </contour>
    <contour>
      <point x="61.4822" y="0" type="line"/>
      <point x="61.4822" y="742" type="line"/>
      <point x="251.484" y="742" type="line"/>
      <point x="251.484" y="451.036" type="line"/>
      <point x="241.484" y="271.828" type="line"/>
      <point x="242.346" y="92.6197" type="line"/>
      <point x="242.346" y="0" type="line"/>
    </contour>
    <contour>
      <point x="361.931" y="142.415" type="qcurve" smooth="yes"/>
      <point x="394.069" y="142.415"/>
      <point x="445.24" y="172.311"/>
      <point x="475.757" y="230.931"/>
      <point x="475.757" y="271.517" type="qcurve" smooth="yes"/>
      <point x="475.757" y="313.103"/>
      <point x="445.24" y="370.034"/>
      <point x="394.069" y="399.93"/>
      <point x="361.931" y="399.93" type="qcurve" smooth="yes"/>
      <point x="329.793" y="399.93"/>
      <point x="278.622" y="370.034"/>
      <point x="248.105" y="313.103"/>
      <point x="248.105" y="271.517" type="qcurve" smooth="yes"/>
      <point x="248.105" y="230.931"/>
      <point x="278.622" y="172.311"/>
      <point x="329.793" y="142.415"/>
    </contour>
  </outline>
</glyph>
<glyph name="c" format="2">
  <advance width="603"/>
  <unicode hex="0063"/>
  <anchor x="328.345" y="551.655" name="t.uni0308"/>
  <anchor x="319.414" y="0" name="b.uni0324_3"/>
  <outline>
    <contour>
      <point x="337.793" y="-8.75869" type="qcurve" smooth="yes"/>
      <point x="247.517" y="-8.75869"/>
      <point x="106.793" y="62.6207"/>
      <point x="26.8962" y="189.759"/>
      <point x="26.8962" y="271.517" type="qcurve" smooth="yes"/>
      <point x="26.8962" y="353.586"/>
      <point x="106.793" y="479.724"/>
      <point x="247.517" y="551.104"/>
      <point x="337.793" y="551.104" type="qcurve" smooth="yes"/>
      <point x="430.035" y="551.104"/>
      <point x="563.967" y="473.172"/>
      <point x="592.208" y="402.448" type="qcurve"/>
      <point x="445.448" y="326.999" type="line"/>
      <point x="425.965" y="364.999"/>
      <point x="369.828" y="399.93"/>
      <point x="336.793" y="399.93" type="qcurve" smooth="yes"/>
      <point x="304.346" y="399.93"/>
      <point x="250.484" y="370.034"/>
      <point x="219.277" y="313.103"/>
      <point x="219.277" y="271.517" type="qcurve" smooth="yes"/>
      <point x="219.277" y="229.931"/>
      <point x="250.484" y="172.311"/>
      <point x="304.346" y="142.415"/>
      <point x="336.793" y="142.415" type="qcurve" smooth="yes"/>
      <point x="369.828" y="142.415"/>
      <point x="425.965" y="177.036"/>
      <point x="445.448" y="215.346" type="qcurve"/>
      <point x="592.208" y="139.897" type="line"/>
      <point x="563.967" y="69.4831"/>
      <point x="430.035" y="-8.75869"/>
    </contour>
  </outline>
</glyph>
<glyph name="e" format="2">
  <advance width="642"/>
  <unicode hex="0065"/>
  <anchor x="331.655" y="551.655" name="t.uni0308"/>
  <anchor x="331.655" y="0" name="b.uni0324_3"/>
  <anchor x="562.62" y="0" name="m.uni0328_4"/>
  <outline>
    <contour>
      <point x="345.173" y="-8.75869" type="qcurve" smooth="yes"/>
      <point x="249.207" y="-8.75869"/>
      <point x="105.793" y="64"/>
      <point x="26.8962" y="191.138"/>
      <point x="26.8962" y="271.517" type="qcurve" smooth="yes"/>
      <point x="26.8962" y="353.276"/>
      <point x="104.483" y="479.724"/>
      <point x="239.897" y="551.104"/>
      <point x="324.793" y="551.104" type="qcurve" smooth="yes"/>
      <point x="404.862" y="551.104"/>
      <point x="536.587" y="485.552"/>
      <point x="614.932" y="360.173"/>
      <point x="614.932" y="270.276" type="qcurve" smooth="yes"/>
      <point x="614.932" y="259.828"/>
      <point x="613.242" y="233.931"/>
      <point x="612.242" y="223.172" type="qcurve"/>
      <point x="182.863" y="223.172" type="line"/>
      <point x="182.863" y="322.862" type="line"/>
      <point x="511.483" y="322.862" type="line"/>
      <point x="439.206" y="294.793" type="line"/>
      <point x="439.516" y="331.759"/>
      <point x="410.62" y="385.758"/>
      <point x="360.379" y="416.034"/>
      <point x="326.173" y="416.034" type="qcurve" smooth="yes"/>
      <point x="291.966" y="416.034"/>
      <point x="240.725" y="385.758"/>
      <point x="212.829" y="331.448"/>
      <point x="212.829" y="293.862" type="qcurve" smooth="yes"/>
      <point x="212.829" y="264.828" type="line" smooth="yes"/>
      <point x="212.829" y="225.173"/>
      <point x="246.415" y="166.794"/>
      <point x="308.346" y="136.208"/>
      <point x="350.931" y="136.208" type="qcurve" smooth="yes"/>
      <point x="391.414" y="136.208"/>
      <point x="448.483" y="159.311"/>
      <point x="475.793" y="182.725" type="qcurve"/>
      <point x="575.794" y="78.6207" type="line"/>
      <point x="537.035" y="35.931"/>
      <point x="422.828" y="-8.75869"/>
    </contour>
  </outline>
</glyph>
<glyph name="f" format="2">
  <advance width="406"/>
  <unicode hex="0066"/>
  <outline>
    <contour>
      <point x="83.3789" y="0" type="line"/>
      <point x="83.3789" y="535.516" type="line" smooth="yes"/>
      <point x="83.3789" y="633.758"/>
      <point x="200.448" y="750.759"/>
      <point x="308.759" y="750.759" type="qcurve" smooth="yes"/>
      <point x="343.518" y="750.759"/>
      <point x="411.553" y="737.448"/>
      <point x="435.001" y="723.138" type="qcurve"/>
      <point x="387.828" y="588.792" type="line"/>
      <point x="375.897" y="595.654"/>
      <point x="346.484" y="604.895"/>
      <point x="330.622" y="604.895" type="qcurve" smooth="yes"/>
      <point x="301.346" y="604.895"/>
      <point x="267.622" y="570.24"/>
      <point x="267.622" y="533.827" type="qcurve" smooth="yes"/>
      <point x="267.622" y="495.414" type="line"/>
      <point x="273.381" y="415.758" type="line"/>
      <point x="273.381" y="0" type="line"/>
    </contour>
    <contour>
      <point x="4.03427" y="379.93" type="line"/>
      <point x="4.03427" y="521.655" type="line"/>
      <point x="396.553" y="521.655" type="line"/>
      <point x="396.553" y="379.93" type="line"/>
    </contour>
  </outline>
</glyph>
<glyph name="g" format="2">
  <advance width="705"/>
  <unicode hex="0067"/>
  <anchor x="360.276" y="551.655" name="t.uni0308"/>
  <outline>
    <contour>
      <point x="326.448" y="-202.759" type="qcurve" smooth="yes"/>
      <point x="247.931" y="-202.759"/>
      <point x="106.552" y="-167.207"/>
      <point x="57.4136" y="-131.966" type="qcurve"/>
      <point x="126.276" y="0.621591" type="line"/>
      <point x="159.517" y="-25.9301"/>
      <point x="261.31" y="-57.1024"/>
      <point x="309.345" y="-57.1024" type="qcurve" smooth="yes"/>
      <point x="385.862" y="-57.1024"/>
      <point x="453.62" y="9.65586"/>
      <point x="453.62" y="73.9657" type="qcurve" smooth="yes"/>
      <point x="453.62" y="137.654" type="line"/>
      <point x="463.62" y="289.966" type="line"/>
      <point x="462.758" y="442.587" type="line"/>
      <point x="462.758" y="542.345" type="line"/>
      <point x="643.622" y="542.345" type="line"/>
      <point x="643.622" y="99.0695" type="line" smooth="yes"/>
      <point x="643.622" y="-54.9653"/>
      <point x="477.552" y="-202.759"/>
    </contour>
    <contour>
      <point x="292.689" y="27.8277" type="qcurve" smooth="yes"/>
      <point x="220.896" y="27.8277"/>
      <point x="99.9653" y="92.8277"/>
      <point x="26.8962" y="210.207"/>
      <point x="26.8962" y="289.966" type="qcurve" smooth="yes"/>
      <point x="26.8962" y="369.724"/>
      <point x="99.9653" y="487.104"/>
      <point x="220.896" y="551.104"/>
      <point x="292.689" y="551.104" type="qcurve" smooth="yes"/>
      <point x="362.448" y="551.104"/>
      <point x="459.654" y="495.724"/>
      <point x="511.102" y="379.655"/>
      <point x="511.102" y="289.966" type="qcurve" smooth="yes"/>
      <point x="511.102" y="200.276"/>
      <point x="459.654" y="84.207"/>
      <point x="362.448" y="27.8277"/>
    </contour>
    <contour>
      <point x="337.793" y="179.001" type="qcurve" smooth="yes"/>
      <point x="372.241" y="179.001"/>
      <point x="425.413" y="206.898"/>
      <point x="455.62" y="257.138"/>
      <point x="455.62" y="289.966" type="qcurve" smooth="yes"/>
      <point x="455.62" y="323.483"/>
      <point x="425.413" y="373.034"/>
      <point x="372.241" y="399.93"/>
      <point x="337.793" y="399.93" type="qcurve" smooth="yes"/>
      <point x="304.346" y="399.93"/>
      <point x="250.174" y="373.034"/>
      <point x="219.277" y="323.483"/>
      <point x="219.277" y="289.966" type="qcurve" smooth="yes"/>
      <point x="219.277" y="257.138"/>
      <point x="250.174" y="206.898"/>
      <point x="304.346" y="179.001"/>
    </contour>
  </outline>
</glyph>
<glyph name="h" format="2">
  <advance width="696"/>
  <unicode hex="0068"/>
  <anchor x="168.276" y="742" name="t.uni0308"/>
  <anchor x="217.414" y="641.552" name="t.uni0307_1"/>
  <anchor x="321.172" y="551.655" name="t.uni031B_2"/>
  <anchor x="357.793" y="0" name="b.uni0324_3"/>
  <outline>
    <contour>
      <point x="413.863" y="551.104" type="qcurve" smooth="yes"/>
      <point x="477.484" y="551.104"/>
      <point x="578.863" y="500.414"/>
      <point x="637.553" y="393.966"/>
      <point x="637.553" y="309.828" type="qcurve" smooth="yes"/>
      <point x="637.553" y="0" type="line"/>
      <point x="447.551" y="0" type="line"/>
      <point x="447.551" y="278.896" type="line" smooth="yes"/>
      <point x="447.551" y="337.034"/>
      <point x="400.689" y="389.654"/>
      <point x="359.138" y="389.654" type="qcurve" smooth="yes"/>
      <point x="328.69" y="389.654"/>
      <point x="279.449" y="363.378"/>
      <point x="251.484" y="307.31"/>
      <point x="251.484" y="261.655" type="qcurve" smooth="yes"/>
      <point x="251.484" y="0" type="line"/>
      <point x="61.4822" y="0" type="line"/>
      <point x="61.4822" y="742" type="line"/>
      <point x="251.484" y="742" type="line"/>
      <point x="251.484" y="387.931" type="line"/>
      <point x="207.104" y="433.31" type="line"/>
      <point x="237.553" y="491.586"/>
      <point x="345.932" y="551.104"/>
    </contour>
  </outline>
</glyph>
<glyph name="k" format="2">
  <advance width="686"/>
  <unicode hex="006B"/>
  <anchor x="168.276" y="742" name="t.uni0308"/>
  <anchor x="316.172" y="551.655" name="t.uni031B_2"/>
  <anchor x="325.172" y="0" name="b.uni0324_3"/>
  <outline>
    <contour>
      <point x="219.449" y="100.241" type="line"/>
      <point x="223.829" y="327.45" type="line"/>
      <point x="444.792" y="542.345" type="line"/>
      <point x="670.208" y="542.345" type="line"/>
      <point x="424.553" y="289.034" type="line"/>
      <point x="328.311" y="210.758" type="line"/>
    </contour>
    <contour>
      <point x="61.4822" y="0" type="line"/>
      <point x="61.4822" y="742" type="line"/>
      <point x="251.484" y="742" type="line"/>
      <point x="251.484" y="0" type="line"/>
    </contour>
    <contour>
      <point x="459.275" y="0" type="line"/>
      <point x="293.138" y="208.309" type="line"/>
      <point x="410.725" y="353.862" type="line"/>
      <point x="689.139" y="0" type="line"/>
    </contour>
  </outline>
</glyph>
<glyph name="l" format="2">
  <advance width="313"/>
  <unicode hex="006C"/>
  <anchor x="168.276" y="742" name="t.uni0308"/>
  <anchor x="438.344" y="373.103" name="t.periodcentered.loclCAT"/>
  <anchor x="168.276" y="373.103" name="t.uni0307_1"/>
  <anchor x="360.896" y="742" name="t.uni031B_2"/>
  <anchor x="168.276" y="0" name="b.uni0324_3"/>
  <outline>
    <contour>
      <point x="61.4822" y="0" type="line"/>
      <point x="61.4822" y="742" type="line"/>
      <point x="251.484" y="742" type="line"/>
      <point x="251.484" y="0" type="line"/>
    </contour>
  </outline>
</glyph>
<glyph name="m" format="2">
  <advance width="1045"/>
  <unicode hex="006D"/>
  <anchor x="516.517" y="0" name="b.uni0324_3"/>
  <outline>
    <contour>
      <point x="767.483" y="551.104" type="qcurve" smooth="yes"/>
      <point x="830.414" y="551.104"/>
      <point x="929.414" y="500.414"/>
      <point x="986.104" y="393.966"/>
      <point x="986.104" y="309.828" type="qcurve" smooth="yes"/>
      <point x="986.104" y="0" type="line"/>
      <point x="796.102" y="0" type="line"/>
      <point x="796.102" y="278.896" type="line" smooth="yes"/>
      <point x="796.102" y="337.034"/>
      <point x="751.861" y="389.654"/>
      <point x="714" y="389.654" type="qcurve" smooth="yes"/>
      <point x="686.552" y="389.654"/>
      <point x="643.38" y="364.068"/>
      <point x="618.794" y="311.448"/>
      <point x="618.794" y="268.552" type="qcurve" smooth="yes"/>
      <point x="618.794" y="0" type="line"/>
      <point x="428.792" y="0" type="line"/>
      <point x="428.792" y="278.896" type="line" smooth="yes"/>
      <point x="428.792" y="337.034"/>
      <point x="385.931" y="389.654"/>
      <point x="346.69" y="389.654" type="qcurve" smooth="yes"/>
      <point x="319.242" y="389.654"/>
      <point x="276.07" y="364.068"/>
      <point x="251.484" y="311.448"/>
      <point x="251.484" y="268.552" type="qcurve" smooth="yes"/>
      <point x="251.484" y="0" type="line"/>
      <point x="61.4822" y="0" type="line"/>
      <point x="61.4822" y="542.345" type="line"/>
      <point x="242.346" y="542.345" type="line"/>
      <point x="242.346" y="390.621" type="line"/>
      <point x="206.415" y="434" type="line"/>
      <point x="235.863" y="492.276"/>
      <point x="339.553" y="551.104"/>
      <point x="404.484" y="551.104" type="qcurve" smooth="yes"/>
      <point x="477.415" y="551.104"/>
      <point x="588.415" y="476.414"/>
      <point x="607.104" y="397.276" type="qcurve"/>
      <point x="545.242" y="410.448" type="line"/>
      <point x="573.69" y="475.655"/>
      <point x="690.552" y="551.104"/>
    </contour>
  </outline>
</glyph>
<glyph name="p" format="2">
  <advance width="695"/>
  <unicode hex="0070"/>
  <anchor x="361.379" y="551.655" name="t.uni0308"/>
  <anchor x="420.517" y="0" name="b.uni0324_3"/>
  <outline>
    <contour>
      <point x="401.966" y="-8.75869" type="qcurve" smooth="yes"/>
      <point x="332.828" y="-8.75869"/>
      <point x="234.863" y="51.6207"/>
      <point x="184.346" y="175.379"/>
      <point x="184.346" y="270.828" type="qcurve" smooth="yes"/>
      <point x="184.346" y="367.966"/>
      <point x="232.173" y="491.414"/>
      <point x="329.449" y="551.104"/>
      <point x="401.966" y="551.104" type="qcurve" smooth="yes"/>
      <point x="476.138" y="551.104"/>
      <point x="596.759" y="482.414"/>
      <point x="668.138" y="356.966"/>
      <point x="668.138" y="270.828" type="qcurve" smooth="yes"/>
      <point x="668.138" y="184.69"/>
      <point x="596.759" y="59.2413"/>
      <point x="476.138" y="-8.75869"/>
    </contour>
    <contour>
      <point x="61.4822" y="-194" type="line"/>
      <point x="61.4822" y="542.345" type="line"/>
      <point x="242.346" y="542.345" type="line"/>
      <point x="242.346" y="449.725" type="line"/>
      <point x="241.484" y="270.517" type="line"/>
      <point x="251.484" y="91.3094" type="line"/>
      <point x="251.484" y="-194" type="line"/>
    </contour>
    <contour>
      <point x="361.931" y="142.415" type="qcurve" smooth="yes"/>
      <point x="394.069" y="142.415"/>
      <point x="445.24" y="172.311"/>
      <point x="475.757" y="230.242"/>
      <point x="475.757" y="270.828" type="qcurve" smooth="yes"/>
      <point x="475.757" y="312.414"/>
      <point x="445.24" y="370.034"/>
      <point x="394.069" y="399.93"/>
      <point x="361.931" y="399.93" type="qcurve" smooth="yes"/>
      <point x="329.793" y="399.93"/>
      <point x="278.622" y="370.034"/>
      <point x="248.105" y="312.414"/>
      <point x="248.105" y="270.828" type="qcurve" smooth="yes"/>
      <point x="248.105" y="230.242"/>
      <point x="278.622" y="172.311"/>
      <point x="329.793" y="142.415"/>
    </contour>
  </outline>
</glyph>
<glyph name="q" format="2">
  <advance width="695"/>
  <unicode hex="0071"/>
  <anchor x="343.655" y="551.655" name="t.uni0308"/>
  <anchor x="285.828" y="0" name="b.uni0324_3"/>
  <outline>
    <contour>
      <point x="293.069" y="-8.75869" type="qcurve" smooth="yes"/>
      <point x="219.896" y="-8.75869"/>
      <point x="98.2756" y="59.2413"/>
      <point x="26.8962" y="184.69"/>
      <point x="26.8962" y="270.828" type="qcurve" smooth="yes"/>
      <point x="26.8962" y="356.966"/>
      <point x="98.2756" y="482.414"/>
      <point x="219.896" y="551.104"/>
      <point x="293.069" y="551.104" type="qcurve" smooth="yes"/>
      <point x="366.586" y="551.104"/>
      <point x="462.862" y="491.414"/>
      <point x="510.689" y="367.966"/>
      <point x="510.689" y="270.828" type="qcurve" smooth="yes"/>
      <point x="510.689" y="175.379"/>
      <point x="460.172" y="51.6207"/>
      <point x="363.207" y="-8.75869"/>
    </contour>
    <contour>
      <point x="333.104" y="142.415" type="qcurve" smooth="yes"/>
      <point x="365.241" y="142.415"/>
      <point x="416.413" y="172.311"/>
      <point x="446.93" y="230.242"/>
      <point x="446.93" y="270.828" type="qcurve" smooth="yes"/>
      <point x="446.93" y="312.414"/>
      <point x="416.413" y="370.034"/>
      <point x="365.241" y="399.93"/>
      <point x="333.104" y="399.93" type="qcurve" smooth="yes"/>
      <point x="300.966" y="399.93"/>
      <point x="249.794" y="370.034"/>
      <point x="219.277" y="312.414"/>
      <point x="219.277" y="270.828" type="qcurve" smooth="yes"/>
      <point x="219.277" y="230.242"/>
      <point x="249.794" y="172.311"/>
      <point x="300.966" y="142.415"/>
    </contour>
    <contour>
      <point x="443.551" y="-194" type="line"/>
      <point x="443.551" y="91.3094" type="line"/>
      <point x="453.551" y="270.517" type="line"/>
      <point x="452.689" y="449.725" type="line"/>
      <point x="452.689" y="542.345" type="line"/>
      <point x="633.553" y="542.345" type="line"/>
      <point x="633.553" y="-194" type="line"/>
    </contour>
  </outline>
</glyph>
<glyph name="r" format="2">
  <advance width="443"/>
  <unicode hex="0072"/>
  <anchor x="247.483" y="551.655" name="t.uni0308"/>
  <anchor x="168.276" y="0" name="b.uni0324_3"/>
  <outline>
    <contour>
      <point x="61.4822" y="0" type="line"/>
      <point x="61.4822" y="542.345" type="line"/>
      <point x="242.346" y="542.345" type="line"/>
      <point x="242.346" y="383.862" type="line"/>
      <point x="214.794" y="429.31" type="line"/>
      <point x="239.173" y="489.897"/>
      <point x="347.001" y="551.104"/>
      <point x="423.691" y="551.104" type="qcurve"/>
      <point x="423.691" y="379.964" type="line"/>
      <point x="411.173" y="381.654"/>
      <point x="391.587" y="383.344"/>
      <point x="381.449" y="383.344" type="qcurve" smooth="yes"/>
      <point x="323.311" y="383.344"/>
      <point x="251.484" y="319.792"/>
      <point x="251.484" y="248.586" type="qcurve" smooth="yes"/>
      <point x="251.484" y="0" type="line"/>
    </contour>
  </outline>
</glyph>
<glyph name="s" format="2">
  <advance width="547"/>
  <unicode hex="0073"/>
  <anchor x="281.896" y="551.655" name="t.uni0308"/>
  <anchor x="281.896" y="0" name="b.uni0324_3"/>
  <outline>
    <contour>
      <point x="258.104" y="-8.75869" type="qcurve" smooth="yes"/>
      <point x="189.035" y="-8.75869"/>
      <point x="57.6897" y="22.793"/>
      <point x="17.862" y="47.1033" type="qcurve"/>
      <point x="74.8967" y="176.863" type="line"/>
      <point x="112.655" y="153.863"/>
      <point x="214.724" y="126.622"/>
      <point x="264.035" y="126.622" type="qcurve" smooth="yes"/>
      <point x="311.552" y="126.622"/>
      <point x="348.931" y="146.828"/>
      <point x="348.931" y="164.414" type="qcurve" smooth="yes"/>
      <point x="348.931" y="179.828"/>
      <point x="314.31" y="195.172"/>
      <point x="257.379" y="203.345"/>
      <point x="189.138" y="212.655"/>
      <point x="120.207" y="230.345"/>
      <point x="63.2756" y="265.103"/>
      <point x="28.6549" y="324.552"/>
      <point x="28.6549" y="371.241" type="qcurve" smooth="yes"/>
      <point x="28.6549" y="422.621"/>
      <point x="89.793" y="503.517"/>
      <point x="207.655" y="551.104"/>
      <point x="292.518" y="551.104" type="qcurve" smooth="yes"/>
      <point x="350.346" y="551.104"/>
      <point x="466.932" y="528.173"/>
      <point x="507.449" y="505.483" type="qcurve"/>
      <point x="450.415" y="375.723" type="line"/>
      <point x="409.966" y="398.723"/>
      <point x="330.208" y="415.723"/>
      <point x="294.277" y="415.723" type="qcurve" smooth="yes"/>
      <point x="246.311" y="415.723"/>
      <point x="206.622" y="393.517"/>
      <point x="206.622" y="377.621" type="qcurve" smooth="yes"/>
      <point x="206.622" y="361.586"/>
      <point x="241.243" y="345.242"/>
      <point x="298.174" y="336.449"/>
      <point x="366.415" y="327.138"/>
      <point x="434.656" y="308.759"/>
      <point x="491.587" y="274.311"/>
      <point x="526.208" y="215.173"/>
      <point x="526.208" y="168.793" type="qcurve" smooth="yes"/>
      <point x="526.208" y="119.483"/>
      <point x="465.449" y="38.5174"/>
      <point x="345.966" y="-8.75869"/>
    </contour>
  </outline>
</glyph>
<glyph name="t" format="2">
  <advance width="447"/>
  <unicode hex="0074"/>
  <anchor x="195.448" y="675.896" name="t.uni0308"/>
  <anchor x="211.965" y="254.173" name="t.uni0307_1"/>
  <anchor x="362.654" y="742" name="t.uni031B_2"/>
  <anchor x="278.345" y="0" name="b.uni0324_3"/>
  <outline>
    <contour>
      <point x="302.828" y="-8.75869" type="qcurve" smooth="yes"/>
      <point x="198.828" y="-8.75869"/>
      <point x="83.3789" y="93.7244"/>
      <point x="83.3789" y="198.035" type="qcurve" smooth="yes"/>
      <point x="83.3789" y="663.483" type="line"/>
      <point x="273.381" y="663.483" type="line"/>
      <point x="273.381" y="200.346" type="line" smooth="yes"/>
      <point x="273.381" y="170.691"/>
      <point x="304.725" y="137.725"/>
      <point x="330.311" y="137.725" type="qcurve" smooth="yes"/>
      <point x="363.656" y="137.725"/>
      <point x="387.828" y="155.208" type="qcurve"/>
      <point x="435.311" y="22.4136" type="line"/>
      <point x="410.553" y="6.48263"/>
      <point x="340.656" y="-8.75869"/>
    </contour>
    <contour>
      <point x="4.03427" y="379.93" type="line"/>
      <point x="4.03427" y="521.655" type="line"/>
      <point x="396.553" y="521.655" type="line"/>
      <point x="396.553" y="379.93" type="line"/>
    </contour>
  </outline>
</glyph>
<glyph name="u" format="2">
  <advance width="692"/>
  <unicode hex="0075"/>
  <anchor x="350.483" y="551.655" name="t.uni0308"/>
  <anchor x="534.379" y="551.655" name="t.uni031B_2"/>
  <anchor x="350.483" y="0" name="b.uni0324_3"/>
  <anchor x="661.344" y="0" name="m.uni0328_4"/>
  <outline>
    <contour>
      <point x="288.862" y="-8.75869" type="qcurve" smooth="yes"/>
      <point x="222.62" y="-8.75869"/>
      <point x="117.931" y="43.3103"/>
      <point x="58.5512" y="153.517"/>
      <point x="58.5512" y="239.414" type="qcurve" smooth="yes"/>
      <point x="58.5512" y="542.345" type="line"/>
      <point x="248.553" y="542.345" type="line"/>
      <point x="248.553" y="270.346" type="line" smooth="yes"/>
      <point x="248.553" y="207.38"/>
      <point x="296.484" y="152.691"/>
      <point x="339.104" y="152.691" type="qcurve" smooth="yes"/>
      <point x="367.483" y="152.691"/>
      <point x="413.344" y="178.967"/>
      <point x="440.62" y="236.035"/>
      <point x="440.62" y="280.69" type="qcurve" smooth="yes"/>
      <point x="440.62" y="542.345" type="line"/>
      <point x="630.622" y="542.345" type="line"/>
      <point x="630.622" y="0" type="line"/>
      <point x="449.758" y="0" type="line"/>
      <point x="449.758" y="153.035" type="line"/>
      <point x="485" y="109.724" type="line"/>
      <point x="456.62" y="50.069"/>
      <point x="350.862" y="-8.75869"/>
    </contour>
  </outline>
</glyph>
<glyph name="v" format="2">
  <advance width="620"/>
  <unicode hex="0076"/>
  <anchor x="331.31" y="551.655" name="t.uni0308"/>
  <anchor x="331.31" y="0" name="b.uni0324_3"/>
  <outline>
    <contour>
      <point x="211.827" y="0" type="line"/>
      <point x="-11.2761" y="542.345" type="line"/>
      <point x="184.105" y="542.345" type="line"/>
      <point x="361.967" y="88.7249" type="line"/>
      <point x="263.897" y="88.7249" type="line"/>
      <point x="450.896" y="542.345" type="line"/>
      <point x="631.691" y="542.345" type="line"/>
      <point x="408.277" y="0" type="line"/>
    </contour>
  </outline>
</glyph>
<glyph name="w" format="2">
  <advance width="956"/>
  <unicode hex="0077"/>
  <anchor x="499.241" y="551.034" name="t.uni0308"/>
  <anchor x="499.241" y="0" name="b.uni0324_3"/>
  <outline>
    <contour>
      <point x="189.586" y="0" type="line"/>
      <point x="-2.58638" y="542.345" type="line"/>
      <point x="177.277" y="542.345" type="line"/>
      <point x="329.967" y="88.7249" type="line"/>
      <point x="243.724" y="88.7249" type="line"/>
      <point x="403.414" y="542.345" type="line"/>
      <point x="564.691" y="542.345" type="line"/>
      <point x="718.311" y="88.7249" type="line"/>
      <point x="634.138" y="88.7249" type="line"/>
      <point x="791.827" y="542.345" type="line"/>
      <point x="958.794" y="542.345" type="line"/>
      <point x="766.312" y="0" type="line"/>
      <point x="582" y="0" type="line"/>
      <point x="452.414" y="375.275" type="line"/>
      <point x="507.863" y="375.275" type="line"/>
      <point x="373.898" y="0" type="line"/>
    </contour>
  </outline>
</glyph>
<glyph name="x" format="2">
  <advance width="619"/>
  <unicode hex="0078"/>
  <outline>
    <contour>
      <point x="-2.4831" y="0" type="line"/>
      <point x="247.138" y="326.518" type="line"/>
      <point x="242.69" y="219.172" type="line"/>
      <point x="4.44789" y="542.345" type="line"/>
      <point x="218.174" y="542.345" type="line"/>
      <point x="351.898" y="351.104" type="line"/>
      <point x="272.483" y="346.587" type="line"/>
      <point x="414.483" y="542.345" type="line"/>
      <point x="615.174" y="542.345" type="line"/>
      <point x="375.622" y="226.138" type="line"/>
      <point x="375.932" y="330.346" type="line"/>
      <point x="621.726" y="0" type="line"/>
      <point x="404.62" y="0" type="line"/>
      <point x="265.345" y="203.551" type="line"/>
      <point x="345.139" y="192.723" type="line"/>
      <point x="204.346" y="0" type="line"/>
    </contour>
  </outline>
</glyph>
<glyph name="y" format="2">
  <advance width="620"/>
  <unicode hex="0079"/>
  <anchor x="322.931" y="551.655" name="t.uni0308"/>
  <anchor x="552.137" y="0" name="b.uni0324_3"/>
  <outline>
    <contour>
      <point x="154.484" y="-202.759" type="qcurve" smooth="yes"/>
      <point x="111.346" y="-202.759"/>
      <point x="23.9315" y="-176.379"/>
      <point x="-3.44789" y="-153.759" type="qcurve"/>
      <point x="62.5526" y="-21.4127" type="line"/>
      <point x="80.1732" y="-35.9643"/>
      <point x="125.035" y="-53.2056"/>
      <point x="146.897" y="-53.2056" type="qcurve" smooth="yes"/>
      <point x="178.138" y="-53.2056"/>
      <point x="213.862" y="-25.1024"/>
      <point x="226.655" y="5.48356" type="qcurve" smooth="yes"/>
      <point x="252.448" y="67.5178" type="line"/>
      <point x="266.586" y="87.0352" type="line"/>
      <point x="450.896" y="542.345" type="line"/>
      <point x="631.691" y="542.345" type="line"/>
      <point x="397.692" y="-22.4822" type="line" smooth="yes"/>
      <point x="369.554" y="-92.2066"/>
      <point x="296.76" y="-170.931"/>
      <point x="207.829" y="-202.759"/>
    </contour>
    <contour>
      <point x="227.655" y="-22.8277" type="line"/>
      <point x="-11.2761" y="542.345" type="line"/>
      <point x="184.105" y="542.345" type="line"/>
      <point x="359.587" y="103.932" type="line"/>
    </contour>
  </outline>
</glyph>
<glyph name="z" format="2">
  <advance width="556"/>
  <unicode hex="007A"/>
  <anchor x="296.207" y="551.655" name="t.uni0308"/>
  <anchor x="294.655" y="0" name="b.uni0324_3"/>
  <outline>
    <contour>
      <point x="32.793" y="0" type="line"/>
      <point x="32.793" y="111.691" type="line"/>
      <point x="337.447" y="462.069" type="line"/>
      <point x="369.482" y="400.62" type="line"/>
      <point x="40.1723" y="400.62" type="line"/>
      <point x="40.1723" y="542.345" type="line"/>
      <point x="523.001" y="542.345" type="line"/>
      <point x="523.001" y="430.654" type="line"/>
      <point x="218.346" y="80.2765" type="line"/>
      <point x="185.691" y="141.725" type="line"/>
      <point x="533.07" y="141.725" type="line"/>
      <point x="533.07" y="0" type="line"/>
    </contour>
  </outline>
</glyph>
<glyph name="braceleft" format="2">
  <advance width="414"/>
  <unicode hex="007B"/>
  <outline>
    <contour>
      <point x="335.691" y="-194" type="line" smooth="yes"/>
      <point x="231.173" y="-194"/>
      <point x="125.345" y="-91.9305"/>
      <point x="125.345" y="1.31126" type="qcurve" smooth="yes"/>
      <point x="125.345" y="155.551" type="line" smooth="yes"/>
      <point x="125.345" y="179.482"/>
      <point x="101.345" y="201.103"/>
      <point x="81.7239" y="201.103" type="qcurve" smooth="yes"/>
      <point x="48.4136" y="201.103" type="line"/>
      <point x="48.4136" y="346.897" type="line"/>
      <point x="81.7239" y="346.897" type="line" smooth="yes"/>
      <point x="101.345" y="346.897"/>
      <point x="125.345" y="369.518"/>
      <point x="125.345" y="392.449" type="qcurve" smooth="yes"/>
      <point x="125.345" y="546.689" type="line" smooth="yes"/>
      <point x="125.345" y="640.241"/>
      <point x="231.173" y="742"/>
      <point x="335.691" y="742" type="qcurve" smooth="yes"/>
      <point x="401.312" y="742" type="line"/>
      <point x="401.312" y="596.826" type="line"/>
      <point x="387.277" y="596.826" type="line" smooth="yes"/>
      <point x="351.657" y="596.826"/>
      <point x="315.346" y="559.585"/>
      <point x="315.346" y="525.344" type="qcurve" smooth="yes"/>
      <point x="315.346" y="396.518" type="line" smooth="yes"/>
      <point x="315.346" y="347.104"/>
      <point x="287.381" y="292"/>
      <point x="227.691" y="267.862"/>
      <point x="180.828" y="263.552" type="qcurve"/>
      <point x="180.828" y="284.448" type="line"/>
      <point x="227.691" y="280.448"/>
      <point x="287.381" y="256"/>
      <point x="315.346" y="200.896"/>
      <point x="315.346" y="151.482" type="qcurve" smooth="yes"/>
      <point x="315.346" y="22.6563" type="line" smooth="yes"/>
      <point x="315.346" y="-11.585"/>
      <point x="351.657" y="-48.8263"/>
      <point x="387.277" y="-48.8263" type="qcurve" smooth="yes"/>
      <point x="401.312" y="-48.8263" type="line"/>
      <point x="401.312" y="-194" type="line"/>
    </contour>
  </outline>
</glyph>
<glyph name="bar" format="2">
  <advance width="314"/>
  <unicode hex="007C"/>
  <outline>
    <contour>
      <point x="70.3441" y="-194" type="line"/>
      <point x="70.3441" y="742" type="line"/>
      <point x="243.76" y="742" type="line"/>
      <point x="243.76" y="-194" type="line"/>
    </contour>
  </outline>
</glyph>
<glyph name="braceright" format="2">
  <advance width="414"/>
  <unicode hex="007D"/>
  <outline>
    <contour>
      <point x="78.1038" y="-194" type="qcurve" smooth="yes"/>
      <point x="12.4826" y="-194" type="line"/>
      <point x="12.4826" y="-48.8263" type="line"/>
      <point x="26.5169" y="-48.8263" type="line" smooth="yes"/>
      <point x="62.4479" y="-48.8263"/>
      <point x="98.7582" y="-11.585"/>
      <point x="98.7582" y="22.6563" type="qcurve" smooth="yes"/>
      <point x="98.7582" y="151.482" type="line" smooth="yes"/>
      <point x="98.7582" y="200.896"/>
      <point x="127.414" y="256"/>
      <point x="186.414" y="280.448"/>
      <point x="232.966" y="284.448" type="qcurve"/>
      <point x="232.966" y="263.552" type="line"/>
      <point x="186.414" y="267.862"/>
      <point x="127.414" y="292"/>
      <point x="98.7582" y="347.104"/>
      <point x="98.7582" y="396.518" type="qcurve" smooth="yes"/>
      <point x="98.7582" y="525.344" type="line" smooth="yes"/>
      <point x="98.7582" y="559.585"/>
      <point x="62.4479" y="596.826"/>
      <point x="26.5169" y="596.826" type="qcurve" smooth="yes"/>
      <point x="12.4826" y="596.826" type="line"/>
      <point x="12.4826" y="742" type="line"/>
      <point x="78.1038" y="742" type="line" smooth="yes"/>
      <point x="182.932" y="742"/>
      <point x="288.76" y="640.241"/>
      <point x="288.76" y="546.689" type="qcurve" smooth="yes"/>
      <point x="288.76" y="392.449" type="line" smooth="yes"/>
      <point x="288.76" y="369.518"/>
      <point x="312.76" y="346.897"/>
      <point x="332.07" y="346.897" type="qcurve" smooth="yes"/>
      <point x="365.381" y="346.897" type="line"/>
      <point x="365.381" y="201.103" type="line"/>
      <point x="332.07" y="201.103" type="line" smooth="yes"/>
      <point x="312.76" y="201.103"/>
      <point x="288.76" y="179.482"/>
      <point x="288.76" y="155.551" type="qcurve" smooth="yes"/>
      <point x="288.76" y="1.31126" type="line" smooth="yes"/>
      <point x="288.76" y="-91.9305"/>
      <point x="182.932" y="-194"/>
    </contour>
  </outline>
</glyph>
<glyph name="asciitilde" format="2">
  <advance width="609"/>
  <unicode hex="007E"/>
  <outline>
    <contour>
      <point x="404.345" y="243.069" type="qcurve" smooth="yes"/>
      <point x="369.724" y="243.069"/>
      <point x="316.793" y="267.931"/>
      <point x="273.862" y="299.413"/>
      <point x="237.311" y="324.275"/>
      <point x="218.759" y="324.275" type="qcurve" smooth="yes"/>
      <point x="193.966" y="324.275"/>
      <point x="164.173" y="286.931"/>
      <point x="162.173" y="253.827" type="qcurve"/>
      <point x="44.9653" y="253.827" type="line"/>
      <point x="46.9653" y="352.862"/>
      <point x="136.069" y="459.311"/>
      <point x="205.104" y="459.311" type="qcurve" smooth="yes"/>
      <point x="239.724" y="459.311"/>
      <point x="293.345" y="434.449"/>
      <point x="335.586" y="402.966"/>
      <point x="372.138" y="378.104"/>
      <point x="390.69" y="378.104" type="qcurve" smooth="yes"/>
      <point x="415.793" y="378.104"/>
      <point x="446.276" y="415.759"/>
      <point x="447.276" y="448.862" type="qcurve"/>
      <point x="564.484" y="448.862" type="line"/>
      <point x="563.173" y="349.828"/>
      <point x="473.69" y="243.069"/>
    </contour>
  </outline>
</glyph>
<glyph name="exclamdown" format="2">
  <advance width="301"/>
  <unicode hex="00A1"/>
  <outline>
    <contour>
      <point x="226.208" y="287.069" type="line"/>
      <point x="264.07" y="-154" type="line"/>
      <point x="37.5164" y="-154" type="line"/>
      <point x="75.0685" y="287.069" type="line"/>
    </contour>
    <contour>
      <point x="150.793" y="551.104" type="qcurve" smooth="yes"/>
      <point x="201.415" y="551.104"/>
      <point x="264.174" y="489.793"/>
      <point x="264.174" y="446" type="qcurve" smooth="yes"/>
      <point x="264.174" y="402.516"/>
      <point x="201.415" y="342.895"/>
      <point x="150.793" y="342.895" type="qcurve" smooth="yes"/>
      <point x="101.172" y="342.895"/>
      <point x="37.1028" y="402.516"/>
      <point x="37.1028" y="446" type="qcurve" smooth="yes"/>
      <point x="37.1028" y="489.793"/>
      <point x="101.172" y="551.104"/>
    </contour>
  </outline>
</glyph>
<glyph name="cent" format="2">
  <advance width="603"/>
  <unicode hex="00A2"/>
  <outline>
    <contour>
      <point x="268.276" y="-120" type="line"/>
      <point x="268.276" y="662.345" type="line"/>
      <point x="387.863" y="662.345" type="line"/>
      <point x="387.863" y="-120" type="line"/>
    </contour>
    <contour>
      <point x="337.793" y="-8.75869" type="qcurve" smooth="yes"/>
      <point x="247.517" y="-8.75869"/>
      <point x="106.793" y="62.6207"/>
      <point x="26.8962" y="189.759"/>
      <point x="26.8962" y="271.517" type="qcurve" smooth="yes"/>
      <point x="26.8962" y="353.586"/>
      <point x="106.793" y="479.724"/>
      <point x="247.517" y="551.104"/>
      <point x="337.793" y="551.104" type="qcurve" smooth="yes"/>
      <point x="430.035" y="551.104"/>
      <point x="563.967" y="473.172"/>
      <point x="592.208" y="402.448" type="qcurve"/>
      <point x="445.448" y="326.999" type="line"/>
      <point x="425.965" y="364.999"/>
      <point x="369.828" y="399.93"/>
      <point x="336.793" y="399.93" type="qcurve" smooth="yes"/>
      <point x="304.346" y="399.93"/>
      <point x="250.484" y="370.034"/>
      <point x="219.277" y="313.103"/>
      <point x="219.277" y="271.517" type="qcurve" smooth="yes"/>
      <point x="219.277" y="229.931"/>
      <point x="250.484" y="172.311"/>
      <point x="304.346" y="142.415"/>
      <point x="336.793" y="142.415" type="qcurve" smooth="yes"/>
      <point x="369.828" y="142.415"/>
      <point x="425.965" y="177.036"/>
      <point x="445.448" y="215.346" type="qcurve"/>
      <point x="592.208" y="139.897" type="line"/>
      <point x="563.967" y="69.4831"/>
      <point x="430.035" y="-8.75869"/>
    </contour>
  </outline>
</glyph>
<glyph name="currency" format="2">
  <advance width="700"/>
  <unicode hex="00A4"/>
  <outline>
    <contour>
      <point x="130.896" y="429.413" type="line"/>
      <point x="21.7239" y="538.585" type="line"/>
      <point x="127.173" y="645.897" type="line"/>
      <point x="236.656" y="536.724" type="line"/>
    </contour>
    <contour>
      <point x="127.173" y="-10.8967" type="line"/>
      <point x="21.7239" y="96.4145" type="line"/>
      <point x="130.896" y="205.587" type="line"/>
      <point x="236.656" y="98.2756" type="line"/>
    </contour>
    <contour>
      <point x="571.827" y="-10.8967" type="line"/>
      <point x="462.344" y="98.2756" type="line"/>
      <point x="568.104" y="205.587" type="line"/>
      <point x="677.586" y="96.4145" type="line"/>
    </contour>
    <contour>
      <point x="568.104" y="429.413" type="line"/>
      <point x="462.344" y="536.724" type="line"/>
      <point x="571.827" y="645.897" type="line"/>
      <point x="677.586" y="538.585" type="line"/>
    </contour>
    <contour>
      <point x="349.31" y="65.2761" type="qcurve" smooth="yes"/>
      <point x="296.379" y="65.2761"/>
      <point x="201.828" y="105.586"/>
      <point x="131.276" y="175.517"/>
      <point x="90.6554" y="269.138"/>
      <point x="90.6554" y="321.759" type="qcurve" smooth="yes"/>
      <point x="90.6554" y="375.379"/>
      <point x="131.276" y="468.31"/>
      <point x="201.828" y="538.552"/>
      <point x="296.379" y="578.862"/>
      <point x="349.31" y="578.862" type="qcurve" smooth="yes"/>
      <point x="403.241" y="578.862"/>
      <point x="497.103" y="538.552"/>
      <point x="568.345" y="468.31"/>
      <point x="608.276" y="375.379"/>
      <point x="608.276" y="321.759" type="qcurve" smooth="yes"/>
      <point x="608.276" y="269.138"/>
      <point x="567.655" y="175.517"/>
      <point x="497.103" y="105.586"/>
      <point x="403.241" y="65.2761"/>
    </contour>
    <contour>
      <point x="349.31" y="213.898" type="qcurve" smooth="yes"/>
      <point x="380" y="213.898"/>
      <point x="430.275" y="242.967"/>
      <point x="460.964" y="292"/>
      <point x="460.964" y="321.759" type="qcurve" smooth="yes"/>
      <point x="460.964" y="351.827"/>
      <point x="430.275" y="401.171"/>
      <point x="380" y="430.93"/>
      <point x="349.31" y="430.93" type="qcurve" smooth="yes"/>
      <point x="318.931" y="430.93"/>
      <point x="268.656" y="401.171"/>
      <point x="238.967" y="351.827"/>
      <point x="238.967" y="321.759" type="qcurve" smooth="yes"/>
      <point x="238.967" y="292"/>
      <point x="268.656" y="242.967"/>
      <point x="318.931" y="213.898"/>
    </contour>
  </outline>
</glyph>
<glyph name="yen" format="2">
  <advance width="753"/>
  <unicode hex="00A5"/>
  <outline>
    <contour>
      <point x="277.241" y="0" type="line"/>
      <point x="277.241" y="306.379" type="line"/>
      <point x="322.552" y="185.551" type="line"/>
      <point x="-20.4831" y="700" type="line"/>
      <point x="190.864" y="700" type="line"/>
      <point x="446.415" y="320.931" type="line"/>
      <point x="320.552" y="320.931" type="line"/>
      <point x="577.792" y="700" type="line"/>
      <point x="773.105" y="700" type="line"/>
      <point x="431.449" y="185.551" type="line"/>
      <point x="475.381" y="306.379" type="line"/>
      <point x="475.381" y="0" type="line"/>
    </contour>
    <contour>
      <point x="103.276" y="75.5164" type="line"/>
      <point x="103.276" y="172.621" type="line"/>
      <point x="649.346" y="172.621" type="line"/>
      <point x="649.346" y="75.5164" type="line"/>
    </contour>
    <contour>
      <point x="103.276" y="213.516" type="line"/>
      <point x="103.276" y="310.621" type="line"/>
      <point x="649.346" y="310.621" type="line"/>
      <point x="649.346" y="213.516" type="line"/>
    </contour>
  </outline>
</glyph>
<glyph name="brokenbar" format="2">
  <advance width="314"/>
  <unicode hex="00A6"/>
  <outline>
    <contour>
      <point x="70.3441" y="392" type="line"/>
      <point x="70.3441" y="742" type="line"/>
      <point x="243.76" y="742" type="line"/>
      <point x="243.76" y="392" type="line"/>
    </contour>
    <contour>
      <point x="70.3441" y="-194" type="line"/>
      <point x="70.3441" y="156" type="line"/>
      <point x="243.76" y="156" type="line"/>
      <point x="243.76" y="-194" type="line"/>
    </contour>
  </outline>
</glyph>
<glyph name="section" format="2">
  <advance width="535"/>
  <unicode hex="00A7"/>
  <outline>
    <contour>
      <point x="383.449" y="145.621" type="qcurve"/>
      <point x="287.31" y="233.346" type="line"/>
      <point x="313.586" y="241.035"/>
      <point x="344.965" y="274.621"/>
      <point x="344.965" y="296.517" type="qcurve" smooth="yes"/>
      <point x="344.965" y="316.241"/>
      <point x="312.034" y="338.207"/>
      <point x="258.482" y="351.689"/>
      <point x="194.62" y="364.931"/>
      <point x="130.069" y="384.931"/>
      <point x="76.5169" y="420"/>
      <point x="43.5859" y="477.758"/>
      <point x="43.5859" y="522.448" type="qcurve" smooth="yes"/>
      <point x="43.5859" y="575.896"/>
      <point x="102.345" y="659.862"/>
      <point x="220.759" y="708.759"/>
      <point x="309.621" y="708.759" type="qcurve" smooth="yes"/>
      <point x="339.242" y="708.759"/>
      <point x="416.449" y="699.138"/>
      <point x="492.484" y="678.517"/>
      <point x="518.311" y="662.517" type="qcurve"/>
      <point x="465" y="533.999" type="line"/>
      <point x="424.862" y="557.309"/>
      <point x="342.173" y="575.551"/>
      <point x="300.242" y="575.551" type="qcurve" smooth="yes"/>
      <point x="250.725" y="575.551"/>
      <point x="210.553" y="550.034"/>
      <point x="210.553" y="529.207" type="qcurve" smooth="yes"/>
      <point x="210.553" y="512.483"/>
      <point x="242.484" y="492.517"/>
      <point x="296.036" y="480.035"/>
      <point x="359.898" y="466.793"/>
      <point x="423.76" y="445.793"/>
      <point x="477.311" y="408.414"/>
      <point x="509.242" y="348.724"/>
      <point x="509.242" y="303.035" type="qcurve" smooth="yes"/>
      <point x="509.242" y="252.724"/>
      <point x="445.553" y="167.448"/>
    </contour>
    <contour>
      <point x="249.862" y="-108.759" type="qcurve" smooth="yes"/>
      <point x="208.104" y="-108.759"/>
      <point x="120.897" y="-94.138"/>
      <point x="44.6207" y="-68.8967"/>
      <point x="18.793" y="-52.2761" type="qcurve"/>
      <point x="72.1038" y="76.5526" type="line"/>
      <point x="108.931" y="52.9319"/>
      <point x="208" y="24.4493"/>
      <point x="249.724" y="24.4493" type="qcurve" smooth="yes"/>
      <point x="286.862" y="24.4493"/>
      <point x="323.344" y="50.6559"/>
      <point x="323.344" y="70.7934" type="qcurve" smooth="yes"/>
      <point x="323.344" y="90.207"/>
      <point x="290.413" y="110.862"/>
      <point x="237.862" y="123.655"/>
      <point x="173.31" y="135.896"/>
      <point x="109.138" y="155.207"/>
      <point x="56.5859" y="189.207"/>
      <point x="23.6549" y="246.207"/>
      <point x="23.6549" y="289.517" type="qcurve" smooth="yes"/>
      <point x="23.6549" y="346.896"/>
      <point x="88.0343" y="433.241"/>
      <point x="149.448" y="455.069" type="qcurve"/>
      <point x="244.966" y="367.344" type="line"/>
      <point x="219.001" y="360.344"/>
      <point x="187.932" y="326.379"/>
      <point x="187.932" y="304.483" type="qcurve" smooth="yes"/>
      <point x="187.932" y="284.759"/>
      <point x="220.863" y="262.793"/>
      <point x="274.415" y="249"/>
      <point x="339.277" y="236.069"/>
      <point x="403.829" y="216.069"/>
      <point x="457.38" y="180.69"/>
      <point x="490.311" y="121.931"/>
      <point x="490.311" y="77.2418" type="qcurve" smooth="yes"/>
      <point x="490.311" y="24.7934"/>
      <point x="434.932" y="-59.862"/>
      <point x="327.966" y="-108.759"/>
    </contour>
  </outline>
</glyph>
<glyph name="copyright" format="2">
  <advance width="775"/>
  <unicode hex="00A9"/>
  <outline>
    <contour>
      <point x="386.276" y="-3" type="qcurve" smooth="yes"/>
      <point x="311.276" y="-3"/>
      <point x="183.276" y="51"/>
      <point x="87.2756" y="148"/>
      <point x="34.2756" y="276"/>
      <point x="34.2756" y="350" type="qcurve" smooth="yes"/>
      <point x="34.2756" y="424"/>
      <point x="88.2756" y="552"/>
      <point x="184.276" y="649"/>
      <point x="313.276" y="703"/>
      <point x="388.276" y="703" type="qcurve" smooth="yes"/>
      <point x="463.276" y="703"/>
      <point x="592.276" y="650"/>
      <point x="687.276" y="554"/>
      <point x="740.276" y="427"/>
      <point x="740.276" y="352" type="qcurve" smooth="yes"/>
      <point x="740.276" y="277"/>
      <point x="686.276" y="148"/>
      <point x="589.276" y="51"/>
      <point x="461.276" y="-3"/>
    </contour>
    <contour>
      <point x="386.276" y="73.2075" type="qcurve" smooth="yes"/>
      <point x="444.758" y="73.2075"/>
      <point x="544.413" y="116.069"/>
      <point x="618.137" y="191.483"/>
      <point x="659.309" y="292.828"/>
      <point x="659.309" y="352" type="qcurve" smooth="yes"/>
      <point x="659.309" y="411.172"/>
      <point x="619.137" y="511.517"/>
      <point x="547.103" y="585.62"/>
      <point x="447.758" y="626.792"/>
      <point x="388.276" y="626.792" type="qcurve" smooth="yes"/>
      <point x="328.793" y="626.792"/>
      <point x="228.828" y="584.931"/>
      <point x="155.414" y="509.517"/>
      <point x="115.242" y="408.483"/>
      <point x="115.242" y="350" type="qcurve" smooth="yes"/>
      <point x="115.242" y="291.517"/>
      <point x="155.414" y="190.483"/>
      <point x="228.138" y="115.069"/>
      <point x="327.793" y="73.2075"/>
    </contour>
    <contour>
      <point x="400.724" y="149.828" type="qcurve" smooth="yes"/>
      <point x="338.345" y="149.828"/>
      <point x="241.655" y="201.138"/>
      <point x="186.276" y="291.379"/>
      <point x="186.276" y="350" type="qcurve" smooth="yes"/>
      <point x="186.276" y="408.621"/>
      <point x="241.655" y="498.862"/>
      <point x="338.345" y="550.172"/>
      <point x="400.724" y="550.172" type="qcurve" smooth="yes"/>
      <point x="464" y="550.172"/>
      <point x="556.207" y="494.827"/>
      <point x="575.759" y="446.482" type="qcurve"/>
      <point x="467.62" y="387.378" type="line"/>
      <point x="455.137" y="410.93"/>
      <point x="421.069" y="431.102"/>
      <point x="399.724" y="431.102" type="qcurve" smooth="yes"/>
      <point x="379.897" y="431.102"/>
      <point x="346.656" y="412.206"/>
      <point x="326.07" y="375.896"/>
      <point x="326.07" y="350" type="qcurve" smooth="yes"/>
      <point x="326.07" y="324.104"/>
      <point x="346.656" y="287.794"/>
      <point x="379.897" y="268.898"/>
      <point x="399.724" y="268.898" type="qcurve" smooth="yes"/>
      <point x="421.069" y="268.898"/>
      <point x="455.137" y="289.07"/>
      <point x="467.62" y="312.622" type="qcurve"/>
      <point x="575.759" y="254.138" type="line"/>
      <point x="556.207" y="206.173"/>
      <point x="464" y="149.828"/>
    </contour>
  </outline>
</glyph>
<glyph name="ordfeminine" format="2">
  <advance width="417"/>
  <unicode hex="00AA"/>
  <outline>
    <contour>
      <point x="252.689" y="422.172" type="line"/>
      <point x="252.689" y="481.655" type="line"/>
      <point x="243.241" y="495.724" type="line"/>
      <point x="243.241" y="605.965" type="line" smooth="yes"/>
      <point x="243.241" y="632.62"/>
      <point x="208.827" y="659.723"/>
      <point x="170.965" y="659.723" type="qcurve" smooth="yes"/>
      <point x="147.862" y="659.723"/>
      <point x="96.7587" y="645.172"/>
      <point x="78.8277" y="631.931" type="qcurve"/>
      <point x="36.7239" y="711.897" type="line"/>
      <point x="66.862" y="730.517"/>
      <point x="151.69" y="750.759"/>
      <point x="191.379" y="750.759" type="qcurve" smooth="yes"/>
      <point x="278.104" y="750.759"/>
      <point x="372.966" y="677.862"/>
      <point x="372.966" y="599.517" type="qcurve" smooth="yes"/>
      <point x="372.966" y="422.172" type="line"/>
    </contour>
    <contour>
      <point x="150.965" y="416.793" type="qcurve" smooth="yes"/>
      <point x="87.2756" y="416.793"/>
      <point x="22.5859" y="475.241"/>
      <point x="22.5859" y="516.621" type="qcurve" smooth="yes"/>
      <point x="22.5859" y="562.448"/>
      <point x="97.2413" y="613.379"/>
      <point x="176.448" y="613.379" type="qcurve" smooth="yes"/>
      <point x="256.31" y="613.379" type="line"/>
      <point x="256.31" y="551.276" type="line"/>
      <point x="196.414" y="551.276" type="line" smooth="yes"/>
      <point x="169.518" y="551.276"/>
      <point x="144.863" y="536.172"/>
      <point x="144.863" y="521.69" type="qcurve" smooth="yes"/>
      <point x="144.863" y="507.966"/>
      <point x="168.069" y="492.173"/>
      <point x="187.655" y="492.173" type="qcurve" smooth="yes"/>
      <point x="206.862" y="492.173"/>
      <point x="236.379" y="508.276"/>
      <point x="243.241" y="525.138" type="qcurve"/>
      <point x="260.069" y="480.966" type="line"/>
      <point x="251.448" y="449.931"/>
      <point x="196.276" y="416.793"/>
    </contour>
  </outline>
</glyph>
<glyph name="logicalnot" format="2">
  <advance width="609"/>
  <unicode hex="00AC"/>
  <outline>
    <contour>
      <point x="551.035" y="422.897" type="line"/>
      <point x="551.035" y="105.241" type="line"/>
      <point x="397.103" y="105.241" type="line"/>
      <point x="397.103" y="277.723" type="line"/>
      <point x="58.4136" y="277.723" type="line"/>
      <point x="58.4136" y="422.897" type="line"/>
    </contour>
  </outline>
</glyph>
<glyph name="registered" format="2">
  <advance width="775"/>
  <unicode hex="00AE"/>
  <outline>
    <contour>
      <point x="386.276" y="-3" type="qcurve" smooth="yes"/>
      <point x="311.276" y="-3"/>
      <point x="183.276" y="51"/>
      <point x="87.2756" y="148"/>
      <point x="34.2756" y="276"/>
      <point x="34.2756" y="350" type="qcurve" smooth="yes"/>
      <point x="34.2756" y="424"/>
      <point x="88.2756" y="552"/>
      <point x="184.276" y="649"/>
      <point x="313.276" y="703"/>
      <point x="388.276" y="703" type="qcurve" smooth="yes"/>
      <point x="463.276" y="703"/>
      <point x="592.276" y="650"/>
      <point x="687.276" y="554"/>
      <point x="740.276" y="427"/>
      <point x="740.276" y="352" type="qcurve" smooth="yes"/>
      <point x="740.276" y="277"/>
      <point x="686.276" y="148"/>
      <point x="589.276" y="51"/>
      <point x="461.276" y="-3"/>
    </contour>
    <contour>
      <point x="465.482" y="158.897" type="line"/>
      <point x="371.309" y="304" type="line"/>
      <point x="495.897" y="304" type="line"/>
      <point x="590.069" y="158.897" type="line"/>
    </contour>
    <contour>
      <point x="386.276" y="73.2075" type="qcurve" smooth="yes"/>
      <point x="444.758" y="73.2075"/>
      <point x="544.413" y="116.069"/>
      <point x="618.137" y="191.483"/>
      <point x="659.309" y="292.828"/>
      <point x="659.309" y="352" type="qcurve" smooth="yes"/>
      <point x="659.309" y="411.172"/>
      <point x="619.137" y="511.517"/>
      <point x="547.103" y="585.62"/>
      <point x="447.758" y="626.792"/>
      <point x="388.276" y="626.792" type="qcurve" smooth="yes"/>
      <point x="328.793" y="626.792"/>
      <point x="228.828" y="584.931"/>
      <point x="155.414" y="509.517"/>
      <point x="115.242" y="408.483"/>
      <point x="115.242" y="350" type="qcurve" smooth="yes"/>
      <point x="115.242" y="291.517"/>
      <point x="155.414" y="190.483"/>
      <point x="228.138" y="115.069"/>
      <point x="327.793" y="73.2075"/>
    </contour>
    <contour>
      <point x="227.792" y="158.897" type="line"/>
      <point x="227.792" y="541.103" type="line"/>
      <point x="401.517" y="541.103" type="line" smooth="yes"/>
      <point x="483.345" y="541.103"/>
      <point x="574.483" y="465.724"/>
      <point x="574.483" y="402.345" type="qcurve" smooth="yes"/>
      <point x="574.483" y="333.896"/>
      <point x="483.345" y="263.276"/>
      <point x="401.517" y="263.276" type="qcurve" smooth="yes"/>
      <point x="351" y="263.276" type="line"/>
      <point x="351" y="158.897" type="line"/>
    </contour>
    <contour>
      <point x="350.69" y="351.104" type="line"/>
      <point x="393.758" y="351.104" type="line" smooth="yes"/>
      <point x="421.516" y="351.104"/>
      <point x="452.206" y="378.379"/>
      <point x="452.206" y="402.345" type="qcurve" smooth="yes"/>
      <point x="452.206" y="426.31"/>
      <point x="421.516" y="453.275"/>
      <point x="393.758" y="453.275" type="qcurve" smooth="yes"/>
      <point x="350.69" y="453.275" type="line"/>
    </contour>
  </outline>
</glyph>
<glyph name="degree" format="2">
  <advance width="417"/>
  <unicode hex="00B0"/>
  <outline>
    <contour>
      <point x="208.31" y="357.689" type="qcurve" smooth="yes"/>
      <point x="158.552" y="357.689"/>
      <point x="75.6549" y="404.448"/>
      <point x="26.8272" y="484.276"/>
      <point x="26.8272" y="533.724" type="qcurve" smooth="yes"/>
      <point x="26.8272" y="583.172"/>
      <point x="75.6549" y="663"/>
      <point x="158.552" y="709.759"/>
      <point x="208.31" y="709.759" type="qcurve" smooth="yes"/>
      <point x="258.759" y="709.759"/>
      <point x="340.966" y="663"/>
      <point x="389.793" y="583.172"/>
      <point x="389.793" y="533.724" type="qcurve" smooth="yes"/>
      <point x="389.793" y="484.276"/>
      <point x="340.966" y="404.448"/>
      <point x="258.759" y="357.689"/>
    </contour>
    <contour>
      <point x="208.31" y="448.035" type="qcurve" smooth="yes"/>
      <point x="232.793" y="448.035"/>
      <point x="270.827" y="471.207"/>
      <point x="293" y="509.241"/>
      <point x="293" y="533.724" type="qcurve" smooth="yes"/>
      <point x="293" y="558.207"/>
      <point x="270.827" y="596.551"/>
      <point x="232.793" y="619.413"/>
      <point x="208.31" y="619.413" type="qcurve" smooth="yes"/>
      <point x="184.138" y="619.413"/>
      <point x="145.793" y="596.551"/>
      <point x="123.621" y="558.517"/>
      <point x="123.621" y="533.724" type="qcurve" smooth="yes"/>
      <point x="123.621" y="508.931"/>
      <point x="145.793" y="470.897"/>
      <point x="184.138" y="448.035"/>
    </contour>
  </outline>
</glyph>
<glyph name="plusminus" format="2">
  <advance width="609"/>
  <unicode hex="00B1"/>
  <outline>
    <contour>
      <point x="58.4136" y="0" type="line"/>
      <point x="58.4136" y="145.174" type="line"/>
      <point x="551.035" y="145.174" type="line"/>
      <point x="551.035" y="0" type="line"/>
    </contour>
    <contour>
      <point x="227.758" y="221.346" type="line"/>
      <point x="227.758" y="676.105" type="line"/>
      <point x="381.691" y="676.105" type="line"/>
      <point x="381.691" y="221.346" type="line"/>
    </contour>
    <contour>
      <point x="58.4136" y="379.242" type="line"/>
      <point x="58.4136" y="518.208" type="line"/>
      <point x="551.035" y="518.208" type="line"/>
      <point x="551.035" y="379.242" type="line"/>
    </contour>
  </outline>
</glyph>
<glyph name="paragraph" format="2">
  <advance width="707"/>
  <unicode hex="00B6"/>
  <outline>
    <contour>
      <point x="228.379" y="-100" type="line"/>
      <point x="228.379" y="346.654" type="line"/>
      <point x="167.379" y="348.344"/>
      <point x="68.5516" y="396.792"/>
      <point x="11.1033" y="485"/>
      <point x="11.1033" y="544.827" type="qcurve" smooth="yes"/>
      <point x="11.1033" y="604.965"/>
      <point x="73.3103" y="693.862"/>
      <point x="185.655" y="742"/>
      <point x="260.552" y="742" type="qcurve" smooth="yes"/>
      <point x="637.002" y="742" type="line"/>
      <point x="637.002" y="-100" type="line"/>
      <point x="483.242" y="-100" type="line"/>
      <point x="483.242" y="608.723" type="line"/>
      <point x="382.139" y="608.723" type="line"/>
      <point x="382.139" y="-100" type="line"/>
    </contour>
  </outline>
</glyph>
<glyph name="periodcentered" format="2">
  <advance width="323"/>
  <unicode hex="00B7"/>
  <outline>
    <contour>
      <point x="161.449" y="171.723" type="qcurve" smooth="yes"/>
      <point x="111.828" y="171.723"/>
      <point x="47.1376" y="234.724"/>
      <point x="47.1376" y="285.966" type="qcurve" smooth="yes"/>
      <point x="47.1376" y="337.208"/>
      <point x="111.828" y="398.518"/>
      <point x="161.449" y="398.518" type="qcurve" smooth="yes"/>
      <point x="212.07" y="398.518"/>
      <point x="275.45" y="337.208"/>
      <point x="275.45" y="285.966" type="qcurve" smooth="yes"/>
      <point x="275.45" y="234.724"/>
      <point x="212.07" y="171.723"/>
    </contour>
  </outline>
</glyph>
<glyph name="ordmasculine" format="2">
  <advance width="432"/>
  <unicode hex="00BA"/>
  <outline>
    <contour>
      <point x="217.207" y="416.793" type="qcurve" smooth="yes"/>
      <point x="159.379" y="416.793"/>
      <point x="70.793" y="459.483"/>
      <point x="20.3446" y="535.552"/>
      <point x="20.3446" y="583.931" type="qcurve" smooth="yes"/>
      <point x="20.3446" y="633"/>
      <point x="70.793" y="708.069"/>
      <point x="159.379" y="750.759"/>
      <point x="216.207" y="750.759" type="qcurve" smooth="yes"/>
      <point x="274.035" y="750.759"/>
      <point x="361.931" y="708.069"/>
      <point x="412.069" y="633"/>
      <point x="412.069" y="583.931" type="qcurve" smooth="yes"/>
      <point x="412.069" y="535.552"/>
      <point x="361.931" y="459.483"/>
      <point x="274.035" y="416.793"/>
    </contour>
    <contour>
      <point x="216.207" y="512.828" type="qcurve" smooth="yes"/>
      <point x="245.965" y="512.828"/>
      <point x="284.344" y="550.586"/>
      <point x="284.344" y="583.931" type="qcurve" smooth="yes"/>
      <point x="284.344" y="618.276"/>
      <point x="245.965" y="654.723"/>
      <point x="216.207" y="654.723" type="qcurve" smooth="yes"/>
      <point x="186.759" y="654.723"/>
      <point x="148.07" y="618.276"/>
      <point x="148.07" y="583.931" type="qcurve" smooth="yes"/>
      <point x="148.07" y="550.586"/>
      <point x="186.759" y="512.828"/>
    </contour>
  </outline>
</glyph>
<glyph name="questiondown" format="2">
  <advance width="597"/>
  <unicode hex="00BF"/>
  <outline>
    <contour>
      <point x="306.69" y="-167.138" type="qcurve" smooth="yes"/>
      <point x="230.241" y="-167.138"/>
      <point x="110.896" y="-124.138"/>
      <point x="42.9305" y="-41"/>
      <point x="42.9305" y="19.207" type="qcurve" smooth="yes"/>
      <point x="42.9305" y="57.8277"/>
      <point x="66.5512" y="115.828"/>
      <point x="104.482" y="159.138"/>
      <point x="145.413" y="195.759"/>
      <point x="183.344" y="228.621"/>
      <point x="206.965" y="264.655"/>
      <point x="206.965" y="287.069" type="qcurve"/>
      <point x="384.725" y="287.069" type="line"/>
      <point x="384.725" y="254.896"/>
      <point x="363.863" y="204.724"/>
      <point x="331.76" y="164.862"/>
      <point x="295.036" y="131.69"/>
      <point x="262.932" y="100.897"/>
      <point x="242.07" y="68.5521"/>
      <point x="242.07" y="50.1385" type="qcurve" smooth="yes"/>
      <point x="242.07" y="22.4836"/>
      <point x="291.311" y="-10.8263"/>
      <point x="329.862" y="-10.8263" type="qcurve" smooth="yes"/>
      <point x="370.241" y="-10.8263"/>
      <point x="435.241" y="27.415"/>
      <point x="454.965" y="60.277" type="qcurve"/>
      <point x="603.794" y="-19.4131" type="line"/>
      <point x="564.553" y="-86.1376"/>
      <point x="417.069" y="-167.138"/>
    </contour>
    <contour>
      <point x="295.69" y="342.895" type="qcurve" smooth="yes"/>
      <point x="246.069" y="342.895"/>
      <point x="182.309" y="402.516"/>
      <point x="182.309" y="446" type="qcurve" smooth="yes"/>
      <point x="182.309" y="489.793"/>
      <point x="246.069" y="551.104"/>
      <point x="295.69" y="551.104" type="qcurve" smooth="yes"/>
      <point x="346.311" y="551.104"/>
      <point x="409.07" y="489.793"/>
      <point x="409.07" y="446" type="qcurve" smooth="yes"/>
      <point x="409.07" y="402.516"/>
      <point x="346.311" y="342.895"/>
    </contour>
  </outline>
</glyph>
<glyph name="AE" format="2">
  <advance width="1099"/>
  <unicode hex="00C6"/>
  <anchor x="637.93" y="700" name="t.uni0308"/>
  <anchor x="637.93" y="0" name="b.uni0324_3"/>
  <outline>
    <contour>
      <point x="-14.0347" y="0" type="line"/>
      <point x="368.309" y="700" type="line"/>
      <point x="565.07" y="700" type="line"/>
      <point x="565.07" y="546.516" type="line"/>
      <point x="396.792" y="546.516" type="line"/>
      <point x="516.449" y="627.172" type="line"/>
      <point x="188.105" y="0" type="line"/>
    </contour>
    <contour>
      <point x="207.518" y="136.275" type="line"/>
      <point x="209.069" y="282.069" type="line"/>
      <point x="565.07" y="282.069" type="line"/>
      <point x="565.07" y="136.275" type="line"/>
    </contour>
    <contour>
      <point x="678.968" y="428.828" type="line"/>
      <point x="1004" y="428.828" type="line"/>
      <point x="1004" y="281.482" type="line"/>
      <point x="678.657" y="281.482" type="line"/>
    </contour>
    <contour>
      <point x="692.795" y="153.484" type="line"/>
      <point x="1058.93" y="153.484" type="line"/>
      <point x="1058.93" y="0" type="line"/>
      <point x="497.414" y="0" type="line"/>
      <point x="497.414" y="700" type="line"/>
      <point x="1045.62" y="700" type="line"/>
      <point x="1045.62" y="546.516" type="line"/>
      <point x="692.795" y="546.516" type="line"/>
    </contour>
  </outline>
</glyph>
<glyph name="multiply" format="2">
  <advance width="609"/>
  <unicode hex="00D7"/>
  <outline>
    <contour>
      <point x="80.2408" y="227.207" type="line"/>
      <point x="427.828" y="576.035" type="line"/>
      <point x="529.518" y="472.793" type="line"/>
      <point x="181.621" y="123.965" type="line"/>
    </contour>
    <contour>
      <point x="80.2408" y="472.793" type="line"/>
      <point x="181.621" y="576.035" type="line"/>
      <point x="529.518" y="227.207" type="line"/>
      <point x="427.828" y="123.965" type="line"/>
    </contour>
  </outline>
</glyph>
<glyph name="Thorn" format="2">
  <advance width="737"/>
  <unicode hex="00DE"/>
  <outline>
    <contour>
      <point x="227.311" y="110.276" type="line"/>
      <point x="227.311" y="266.518" type="line"/>
      <point x="378.069" y="266.518" type="line" smooth="yes"/>
      <point x="440.103" y="266.518"/>
      <point x="501.378" y="321.069"/>
      <point x="501.378" y="369" type="qcurve" smooth="yes"/>
      <point x="501.378" y="417.241"/>
      <point x="440.103" y="471.482"/>
      <point x="378.069" y="471.482" type="qcurve" smooth="yes"/>
      <point x="227.311" y="471.482" type="line"/>
      <point x="227.311" y="627.724" type="line"/>
      <point x="389.655" y="627.724" type="line" smooth="yes"/>
      <point x="485.793" y="627.724"/>
      <point x="625.38" y="564.966"/>
      <point x="701.208" y="448.759"/>
      <point x="701.208" y="369.31" type="qcurve" smooth="yes"/>
      <point x="701.208" y="289.552"/>
      <point x="625.38" y="173.034"/>
      <point x="485.793" y="110.276"/>
      <point x="389.655" y="110.276" type="qcurve" smooth="yes"/>
    </contour>
    <contour>
      <point x="70.3441" y="0" type="line"/>
      <point x="70.3441" y="700.69" type="line"/>
      <point x="268.484" y="700.69" type="line"/>
      <point x="268.484" y="0" type="line"/>
    </contour>
  </outline>
</glyph>
<glyph name="germandbls" format="2">
  <advance width="703"/>
  <unicode hex="00DF"/>
  <outline>
    <contour>
      <point x="419.449" y="-8.75869" type="qcurve" smooth="yes"/>
      <point x="388.759" y="-8.75869"/>
      <point x="320.242" y="-0.0690138"/>
      <point x="299" y="7.24131" type="qcurve"/>
      <point x="319.449" y="154.415" type="line"/>
      <point x="336.69" y="148.105"/>
      <point x="372.414" y="142.105"/>
      <point x="394.448" y="142.105" type="qcurve" smooth="yes"/>
      <point x="421.586" y="142.105"/>
      <point x="461.206" y="158.76"/>
      <point x="484.171" y="191.759"/>
      <point x="484.171" y="214.966" type="qcurve" smooth="yes"/>
      <point x="484.171" y="250.276"/>
      <point x="432.207" y="286.827"/>
      <point x="384.897" y="286.827" type="qcurve" smooth="yes"/>
      <point x="331.655" y="286.827" type="line"/>
      <point x="331.655" y="432.931" type="line"/>
      <point x="377.827" y="434.621"/>
      <point x="431.93" y="481.552"/>
      <point x="431.93" y="520.62" type="qcurve" smooth="yes"/>
      <point x="431.93" y="556.827"/>
      <point x="386" y="601.275"/>
      <point x="346.448" y="601.275" type="qcurve" smooth="yes"/>
      <point x="302.587" y="601.275"/>
      <point x="251.484" y="550.482"/>
      <point x="251.484" y="502.379" type="qcurve" smooth="yes"/>
      <point x="251.484" y="0" type="line"/>
      <point x="61.4822" y="0" type="line"/>
      <point x="61.4822" y="477.896" type="line" smooth="yes"/>
      <point x="61.4822" y="568.034"/>
      <point x="138.138" y="689.621"/>
      <point x="267.931" y="750.759"/>
      <point x="345.759" y="750.759" type="qcurve" smooth="yes"/>
      <point x="431.483" y="750.759"/>
      <point x="551.277" y="693.621"/>
      <point x="614.484" y="597.103"/>
      <point x="614.484" y="537.345" type="qcurve" smooth="yes"/>
      <point x="614.484" y="489.965"/>
      <point x="572.587" y="414.827"/>
      <point x="502.104" y="362.379"/>
      <point x="415.414" y="334.31"/>
      <point x="371" y="334.31" type="qcurve"/>
      <point x="414.793" y="414.173" type="line"/>
      <point x="495.104" y="414.173"/>
      <point x="612.035" y="366.793"/>
      <point x="676.553" y="275.655"/>
      <point x="676.553" y="209.897" type="qcurve" smooth="yes"/>
      <point x="676.553" y="141.138"/>
      <point x="612.173" y="43"/>
      <point x="496.656" y="-8.75869"/>
    </contour>
  </outline>
</glyph>
<glyph name="ae" format="2">
  <advance width="999"/>
  <unicode hex="00E6"/>
  <anchor x="481.103" y="551.655" name="t.uni0308"/>
  <anchor x="476.862" y="0" name="b.uni0324_3"/>
  <outline>
    <contour>
      <point x="266.276" y="-8.75869" type="qcurve" smooth="yes"/>
      <point x="155.552" y="-8.75869"/>
      <point x="30.4479" y="86.7587"/>
      <point x="30.4479" y="164.276" type="qcurve" smooth="yes"/>
      <point x="30.4479" y="211.483"/>
      <point x="80.7239" y="281.862"/>
      <point x="187.069" y="322.104"/>
      <point x="270.517" y="322.104" type="qcurve" smooth="yes"/>
      <point x="394.965" y="322.104" type="line"/>
      <point x="394.965" y="222.414" type="line"/>
      <point x="296.897" y="222.414" type="line" smooth="yes"/>
      <point x="250.587" y="222.414"/>
      <point x="213.932" y="191.828"/>
      <point x="213.932" y="168.345" type="qcurve" smooth="yes"/>
      <point x="213.932" y="142.069"/>
      <point x="251.553" y="111.104"/>
      <point x="287" y="111.104" type="qcurve" smooth="yes"/>
      <point x="330.862" y="111.104"/>
      <point x="378.965" y="159.793"/>
      <point x="378.965" y="200.31" type="qcurve" smooth="yes"/>
      <point x="378.965" y="311.655" type="line" smooth="yes"/>
      <point x="378.965" y="355.551"/>
      <point x="323.758" y="405.758"/>
      <point x="265.414" y="405.758" type="qcurve" smooth="yes"/>
      <point x="224.241" y="405.758"/>
      <point x="144.897" y="380.896"/>
      <point x="116.655" y="359.344" type="qcurve"/>
      <point x="53.0343" y="487.552" type="line"/>
      <point x="99.1723" y="518.483"/>
      <point x="226.517" y="551.104"/>
      <point x="290.897" y="551.104" type="qcurve" smooth="yes"/>
      <point x="374.621" y="551.104"/>
      <point x="494.586" y="493.897"/>
      <point x="523.311" y="434.863" type="qcurve"/>
      <point x="445.862" y="436.415" type="line"/>
      <point x="484.069" y="490.138"/>
      <point x="609.517" y="551.104"/>
      <point x="684.379" y="551.104" type="qcurve" smooth="yes"/>
      <point x="742.379" y="551.104"/>
      <point x="845.897" y="513.173"/>
      <point x="926.173" y="441.862"/>
      <point x="972.38" y="338.724"/>
      <point x="972.38" y="273.517" type="qcurve" smooth="yes"/>
      <point x="972.38" y="259.069"/>
      <point x="970.69" y="233.172"/>
      <point x="968.69" y="222.414" type="qcurve"/>
      <point x="551.794" y="222.414" type="line"/>
      <point x="551.794" y="322.104" type="line"/>
      <point x="834.826" y="322.104" type="line"/>
      <point x="791.585" y="294.793" type="line"/>
      <point x="791.895" y="333.931"/>
      <point x="762.137" y="387.31"/>
      <point x="711.965" y="416.034"/>
      <point x="681.31" y="416.034" type="qcurve" smooth="yes"/>
      <point x="650.966" y="416.034"/>
      <point x="599.415" y="387.31"/>
      <point x="568.656" y="333.31"/>
      <point x="568.656" y="293.862" type="qcurve" smooth="yes"/>
      <point x="568.656" y="264.828" type="line" smooth="yes"/>
      <point x="568.656" y="225.173"/>
      <point x="601.553" y="166.794"/>
      <point x="663.173" y="136.208"/>
      <point x="706.069" y="136.208" type="qcurve" smooth="yes"/>
      <point x="743.103" y="136.208"/>
      <point x="803" y="159.311"/>
      <point x="831.62" y="182.725" type="qcurve"/>
      <point x="931.931" y="78.6207" type="line"/>
      <point x="892.173" y="35.6207"/>
      <point x="775.586" y="-8.75869"/>
      <point x="702.759" y="-8.75869" type="qcurve" smooth="yes"/>
      <point x="641.448" y="-8.75869"/>
      <point x="530.69" y="25.4826"/>
      <point x="443.483" y="99.6549"/>
      <point x="416.345" y="160.276" type="qcurve"/>
      <point x="509.414" y="159.965" type="line"/>
      <point x="489.517" y="94.0343"/>
      <point x="415.897" y="20.1723"/>
      <point x="320.035" y="-8.75869"/>
    </contour>
  </outline>
</glyph>
<glyph name="eth" format="2">
  <advance width="666"/>
  <unicode hex="00F0"/>
  <outline>
    <contour>
      <point x="305.655" y="-13.8277" type="qcurve" smooth="yes"/>
      <point x="227.448" y="-13.8277"/>
      <point x="101.103" y="45.3103"/>
      <point x="26.8962" y="152.517"/>
      <point x="26.8962" y="224.966" type="qcurve" smooth="yes"/>
      <point x="26.8962" y="293.276"/>
      <point x="94.2066" y="393.586"/>
      <point x="208.448" y="449.276"/>
      <point x="277" y="449.276" type="qcurve" smooth="yes"/>
      <point x="329.862" y="449.276"/>
      <point x="410.827" y="419.931"/>
      <point x="469.62" y="363.863"/>
      <point x="487.068" y="323.277" type="qcurve"/>
      <point x="436.482" y="292.484" type="line"/>
      <point x="438.654" y="311.208"/>
      <point x="439.895" y="352.035"/>
      <point x="439.895" y="381.414" type="qcurve" smooth="yes"/>
      <point x="439.895" y="457.621"/>
      <point x="391.93" y="558.689"/>
      <point x="298.103" y="609.034"/>
      <point x="227.931" y="609.034" type="qcurve" smooth="yes"/>
      <point x="195.965" y="609.034"/>
      <point x="129.172" y="599.482"/>
      <point x="99.793" y="589.482" type="qcurve"/>
      <point x="79.7239" y="730.759" type="line"/>
      <point x="116.862" y="739.38"/>
      <point x="193.345" y="749.311"/>
      <point x="237.586" y="749.311" type="qcurve" smooth="yes"/>
      <point x="361.828" y="749.311"/>
      <point x="541.518" y="656.793"/>
      <point x="639.173" y="475.138"/>
      <point x="639.173" y="339.862" type="qcurve" smooth="yes"/>
      <point x="639.173" y="228.793"/>
      <point x="557.208" y="70.793"/>
      <point x="407.793" y="-13.8277"/>
    </contour>
    <contour>
      <point x="320.552" y="127.449" type="qcurve" smooth="yes"/>
      <point x="351.552" y="127.449"/>
      <point x="397.654" y="150.656"/>
      <point x="423.93" y="191.345"/>
      <point x="423.93" y="217.379" type="qcurve" smooth="yes"/>
      <point x="423.93" y="244.345"/>
      <point x="396.723" y="285.034"/>
      <point x="351.552" y="307.999"/>
      <point x="322.104" y="307.999" type="qcurve" smooth="yes"/>
      <point x="277.38" y="307.999"/>
      <point x="219.967" y="258.758"/>
      <point x="219.967" y="217.379" type="qcurve" smooth="yes"/>
      <point x="219.967" y="189.793"/>
      <point x="246.553" y="149.415"/>
      <point x="292.104" y="127.449"/>
    </contour>
    <contour>
      <point x="147.414" y="456.827" type="line"/>
      <point x="114.276" y="541.621" type="line"/>
      <point x="580.173" y="715.517" type="line"/>
      <point x="613.311" y="630.414" type="line"/>
    </contour>
  </outline>
</glyph>
<glyph name="divide" format="2">
  <advance width="609"/>
  <unicode hex="00F7"/>
  <outline>
    <contour>
      <point x="58.4136" y="277.413" type="line"/>
      <point x="58.4136" y="422.587" type="line"/>
      <point x="551.035" y="422.587" type="line"/>
      <point x="551.035" y="277.413" type="line"/>
    </contour>
    <contour>
      <point x="304.724" y="39.861" type="qcurve" smooth="yes"/>
      <point x="264.241" y="39.861"/>
      <point x="207.931" y="94.4131"/>
      <point x="207.931" y="136.517" type="qcurve" smooth="yes"/>
      <point x="207.931" y="179.31"/>
      <point x="264.241" y="231.173"/>
      <point x="304.724" y="231.173" type="qcurve" smooth="yes"/>
      <point x="345.518" y="231.173"/>
      <point x="401.829" y="179.31"/>
      <point x="401.829" y="136.517" type="qcurve" smooth="yes"/>
      <point x="401.829" y="94.4131"/>
      <point x="345.518" y="39.861"/>
    </contour>
    <contour>
      <point x="304.724" y="468.827" type="qcurve" smooth="yes"/>
      <point x="264.241" y="468.827"/>
      <point x="207.931" y="523.379"/>
      <point x="207.931" y="565.173" type="qcurve" smooth="yes"/>
      <point x="207.931" y="607.966"/>
      <point x="264.241" y="660.139"/>
      <point x="304.724" y="660.139" type="qcurve" smooth="yes"/>
      <point x="345.518" y="660.139"/>
      <point x="401.829" y="607.966"/>
      <point x="401.829" y="565.173" type="qcurve" smooth="yes"/>
      <point x="401.829" y="523.379"/>
      <point x="345.518" y="468.827"/>
    </contour>
  </outline>
</glyph>
<glyph name="thorn" format="2">
  <advance width="695"/>
  <unicode hex="00FE"/>
  <anchor x="418.207" y="551.655" name="t.uni0308"/>
  <anchor x="418.207" y="0" name="b.uni0324_3"/>
  <outline>
    <contour>
      <point x="402.656" y="-8.75869" type="qcurve" smooth="yes"/>
      <point x="332.828" y="-8.75869"/>
      <point x="234.863" y="51.6207"/>
      <point x="184.346" y="175.379"/>
      <point x="184.346" y="270.828" type="qcurve" smooth="yes"/>
      <point x="184.346" y="367.966"/>
      <point x="232.173" y="491.414"/>
      <point x="329.449" y="551.104"/>
      <point x="401.966" y="551.104" type="qcurve" smooth="yes"/>
      <point x="476.138" y="551.104"/>
      <point x="596.759" y="482.414"/>
      <point x="668.138" y="356.966"/>
      <point x="668.138" y="270.828" type="qcurve" smooth="yes"/>
      <point x="668.138" y="184.69"/>
      <point x="596.759" y="59.2413"/>
      <point x="476.138" y="-8.75869"/>
    </contour>
    <contour>
      <point x="61.4822" y="-194" type="line"/>
      <point x="61.4822" y="742" type="line"/>
      <point x="251.484" y="742" type="line"/>
      <point x="251.484" y="449.725" type="line"/>
      <point x="241.484" y="270.517" type="line"/>
      <point x="251.484" y="91.3094" type="line"/>
      <point x="251.484" y="-194" type="line"/>
    </contour>
    <contour>
      <point x="361.931" y="142.415" type="qcurve" smooth="yes"/>
      <point x="394.069" y="142.415"/>
      <point x="445.24" y="172.311"/>
      <point x="475.757" y="230.242"/>
      <point x="475.757" y="270.828" type="qcurve" smooth="yes"/>
      <point x="475.757" y="312.414"/>
      <point x="445.24" y="370.034"/>
      <point x="394.069" y="399.93"/>
      <point x="361.931" y="399.93" type="qcurve" smooth="yes"/>
      <point x="329.793" y="399.93"/>
      <point x="278.622" y="370.034"/>
      <point x="248.105" y="312.414"/>
      <point x="248.105" y="270.828" type="qcurve" smooth="yes"/>
      <point x="248.105" y="230.242"/>
      <point x="278.622" y="172.311"/>
      <point x="329.793" y="142.415"/>
    </contour>
  </outline>
</glyph>
<glyph name="eogonek" format="2">
  <advance width="642"/>
  <unicode hex="0119"/>
  <anchor x="343.276" y="551.655" name="t.uni0308"/>
  <anchor x="343.276" y="0" name="b.uni0324_3"/>
  <outline>
    <contour>
      <point x="456.242" y="-235.655" type="qcurve" smooth="yes"/>
      <point x="386.517" y="-235.655"/>
      <point x="308.483" y="-170.138"/>
      <point x="308.483" y="-114.931" type="qcurve" smooth="yes"/>
      <point x="308.483" y="-73.7239"/>
      <point x="363.035" y="3.96573"/>
      <point x="409.552" y="24.3103" type="qcurve"/>
      <point x="437.138" y="1.41362" type="line"/>
      <point x="416.207" y="-3.51737"/>
      <point x="370.414" y="-8.75869"/>
      <point x="345.173" y="-8.75869" type="qcurve" smooth="yes"/>
      <point x="249.207" y="-8.75869"/>
      <point x="105.793" y="64"/>
      <point x="26.8962" y="191.138"/>
      <point x="26.8962" y="271.517" type="qcurve" smooth="yes"/>
      <point x="26.8962" y="353.276"/>
      <point x="104.483" y="479.724"/>
      <point x="239.897" y="551.104"/>
      <point x="324.793" y="551.104" type="qcurve" smooth="yes"/>
      <point x="404.862" y="551.104"/>
      <point x="536.587" y="485.552"/>
      <point x="614.932" y="360.173"/>
      <point x="614.932" y="270.276" type="qcurve" smooth="yes"/>
      <point x="614.932" y="259.828"/>
      <point x="613.242" y="233.931"/>
      <point x="612.242" y="223.172" type="qcurve"/>
      <point x="182.863" y="223.172" type="line"/>
      <point x="182.863" y="322.862" type="line"/>
      <point x="511.483" y="322.862" type="line"/>
      <point x="439.206" y="294.793" type="line"/>
      <point x="439.516" y="331.759"/>
      <point x="410.62" y="385.758"/>
      <point x="360.379" y="416.034"/>
      <point x="326.173" y="416.034" type="qcurve" smooth="yes"/>
      <point x="291.966" y="416.034"/>
      <point x="240.725" y="385.758"/>
      <point x="212.829" y="331.448"/>
      <point x="212.829" y="293.862" type="qcurve" smooth="yes"/>
      <point x="212.829" y="264.828" type="line" smooth="yes"/>
      <point x="212.829" y="225.173"/>
      <point x="246.415" y="166.794"/>
      <point x="308.346" y="136.208"/>
      <point x="350.931" y="136.208" type="qcurve" smooth="yes"/>
      <point x="391.414" y="136.208"/>
      <point x="448.483" y="159.311"/>
      <point x="475.793" y="182.725" type="qcurve"/>
      <point x="576.484" y="78.6207" type="line"/>
      <point x="567.104" y="68.6207"/>
      <point x="546.415" y="50.2413"/>
      <point x="534.725" y="41.931" type="qcurve" smooth="yes"/>
      <point x="488.966" y="11.069"/>
      <point x="440.656" y="-37.7239"/>
      <point x="423.415" y="-76.8962"/>
      <point x="423.415" y="-95.5169" type="qcurve" smooth="yes"/>
      <point x="423.415" y="-118.379"/>
      <point x="453.966" y="-145.758"/>
      <point x="479.966" y="-145.758" type="qcurve" smooth="yes"/>
      <point x="495.277" y="-145.758"/>
      <point x="526.897" y="-136.758"/>
      <point x="538.208" y="-131.138" type="qcurve"/>
      <point x="563.035" y="-212.655" type="line"/>
      <point x="544.725" y="-222.655"/>
      <point x="486.38" y="-235.655"/>
    </contour>
  </outline>
</glyph>
<glyph name="IJ" format="2">
  <advance width="727"/>
  <unicode hex="0132"/>
  <anchor x="164.035" y="700" name="t.uni0308"/>
  <outline>
    <contour>
      <point x="327.69" y="-13.8277" type="qcurve" smooth="yes"/>
      <point x="242.965" y="-13.8277"/>
      <point x="99.0338" y="30.3103"/>
      <point x="46.5164" y="67.138" type="qcurve"/>
      <point x="119.483" y="210.863" type="line"/>
      <point x="167.621" y="180.174"/>
      <point x="273.31" y="147.484"/>
      <point x="320.724" y="147.484" type="qcurve" smooth="yes"/>
      <point x="393.172" y="147.484"/>
      <point x="464.033" y="225.656"/>
      <point x="464.033" y="309.207" type="qcurve" smooth="yes"/>
      <point x="464.033" y="700" type="line"/>
      <point x="662.173" y="700" type="line"/>
      <point x="662.173" y="320.035" type="line" smooth="yes"/>
      <point x="662.173" y="211.897"/>
      <point x="578.897" y="63"/>
      <point x="428.345" y="-13.8277"/>
    </contour>
    <contour>
      <point x="64.3441" y="328.552" type="line"/>
      <point x="64.3441" y="700" type="line"/>
      <point x="262.484" y="700" type="line"/>
      <point x="262.484" y="328.552" type="line"/>
    </contour>
  </outline>
</glyph>
<glyph name="Eng" format="2">
  <advance width="806"/>
  <unicode hex="014A"/>
  <outline>
    <contour>
      <point x="70.3441" y="0" type="line"/>
      <point x="70.3441" y="700" type="line"/>
      <point x="233.311" y="700" type="line"/>
      <point x="618.792" y="233.657" type="line"/>
      <point x="572.861" y="0" type="line"/>
      <point x="187.38" y="466.343" type="line"/>
      <point x="264.346" y="466.343" type="line"/>
      <point x="264.346" y="0" type="line"/>
    </contour>
    <contour>
      <point x="468.758" y="-202.759" type="qcurve" smooth="yes"/>
      <point x="413" y="-202.759"/>
      <point x="315.551" y="-174.414"/>
      <point x="276.723" y="-144.311" type="qcurve"/>
      <point x="368.276" y="-9.58545" type="line"/>
      <point x="387.448" y="-26.5507"/>
      <point x="430.448" y="-45.447"/>
      <point x="454.965" y="-45.447" type="qcurve" smooth="yes"/>
      <point x="541.826" y="-45.447"/>
      <point x="541.826" y="56.7592" type="qcurve" smooth="yes"/>
      <point x="541.826" y="700" type="line"/>
      <point x="735.828" y="700" type="line"/>
      <point x="735.828" y="85.8629" type="line" smooth="yes"/>
      <point x="735.828" y="-63.5169"/>
      <point x="600.448" y="-202.759"/>
    </contour>
  </outline>
</glyph>
<glyph name="eng" format="2">
  <advance width="696"/>
  <unicode hex="014B"/>
  <outline>
    <contour>
      <point x="413.863" y="551.104" type="qcurve" smooth="yes"/>
      <point x="477.484" y="551.104"/>
      <point x="578.863" y="500.414"/>
      <point x="637.553" y="393.966"/>
      <point x="637.553" y="309.828" type="qcurve" smooth="yes"/>
      <point x="637.553" y="14.3455" type="line" smooth="yes"/>
      <point x="637.553" y="-85.1376"/>
      <point x="522.104" y="-202.759"/>
      <point x="417.483" y="-202.759" type="qcurve" smooth="yes"/>
      <point x="379.345" y="-202.759"/>
      <point x="309.758" y="-188.448"/>
      <point x="285.31" y="-174.517" type="qcurve"/>
      <point x="333.103" y="-40.1714" type="line"/>
      <point x="358.655" y="-56.2747"/>
      <point x="391.862" y="-56.2747" type="qcurve" smooth="yes"/>
      <point x="416.827" y="-56.2747"/>
      <point x="447.551" y="-21.6197"/>
      <point x="447.551" y="14.7939" type="qcurve" smooth="yes"/>
      <point x="447.551" y="278.896" type="line" smooth="yes"/>
      <point x="447.551" y="337.034"/>
      <point x="400.689" y="389.654"/>
      <point x="359.138" y="389.654" type="qcurve" smooth="yes"/>
      <point x="328.69" y="389.654"/>
      <point x="279.449" y="363.378"/>
      <point x="251.484" y="307.31"/>
      <point x="251.484" y="261.655" type="qcurve" smooth="yes"/>
      <point x="251.484" y="0" type="line"/>
      <point x="61.4822" y="0" type="line"/>
      <point x="61.4822" y="542.345" type="line"/>
      <point x="242.346" y="542.345" type="line"/>
      <point x="242.346" y="387.931" type="line"/>
      <point x="207.104" y="433.31" type="line"/>
      <point x="237.553" y="491.586"/>
      <point x="345.932" y="551.104"/>
    </contour>
  </outline>
</glyph>
<glyph name="OE" format="2">
  <advance width="1142"/>
  <unicode hex="0152"/>
  <anchor x="657.379" y="700" name="t.uni0308"/>
  <anchor x="657.379" y="0" name="b.uni0324_3"/>
  <outline>
    <contour>
      <point x="424.621" y="0" type="line" smooth="yes"/>
      <point x="308.862" y="0"/>
      <point x="133.034" y="85.931"/>
      <point x="34.2756" y="242.931"/>
      <point x="34.2756" y="350.379" type="qcurve" smooth="yes"/>
      <point x="34.2756" y="457.448"/>
      <point x="133.034" y="614.069"/>
      <point x="308.862" y="700"/>
      <point x="424.621" y="700" type="qcurve" smooth="yes"/>
      <point x="591.138" y="700" type="line"/>
      <point x="591.138" y="542.378" type="line"/>
      <point x="433.379" y="542.378" type="line" smooth="yes"/>
      <point x="374.138" y="542.378"/>
      <point x="283.863" y="496.62"/>
      <point x="234.105" y="410.517"/>
      <point x="234.105" y="350.69" type="qcurve" smooth="yes"/>
      <point x="234.105" y="289.862"/>
      <point x="283.863" y="203.38"/>
      <point x="374.138" y="157.622"/>
      <point x="433.379" y="157.622" type="qcurve" smooth="yes"/>
      <point x="591.138" y="157.622" type="line"/>
      <point x="591.138" y="0" type="line"/>
    </contour>
    <contour>
      <point x="722.312" y="428.828" type="line"/>
      <point x="1047.35" y="428.828" type="line"/>
      <point x="1047.35" y="281.482" type="line"/>
      <point x="722.312" y="281.482" type="line"/>
    </contour>
    <contour>
      <point x="736.139" y="153.484" type="line"/>
      <point x="1102.28" y="153.484" type="line"/>
      <point x="1102.28" y="0" type="line"/>
      <point x="540.758" y="0" type="line"/>
      <point x="540.758" y="700" type="line"/>
      <point x="1088.97" y="700" type="line"/>
      <point x="1088.97" y="546.516" type="line"/>
      <point x="736.139" y="546.516" type="line"/>
    </contour>
  </outline>
</glyph>
<glyph name="oe" format="2">
  <advance width="1063"/>
  <unicode hex="0153"/>
  <anchor x="539.069" y="551.655" name="t.uni0308"/>
  <anchor x="539.069" y="0" name="b.uni0324_3"/>
  <outline>
    <contour>
      <point x="330.345" y="-8.75869" type="qcurve" smooth="yes"/>
      <point x="243.138" y="-8.75869"/>
      <point x="106.103" y="63.3103"/>
      <point x="26.8962" y="189.759"/>
      <point x="26.8962" y="271.517" type="qcurve" smooth="yes"/>
      <point x="26.8962" y="353.586"/>
      <point x="106.103" y="479.724"/>
      <point x="243.138" y="551.104"/>
      <point x="330.345" y="551.104" type="qcurve" smooth="yes"/>
      <point x="417.552" y="551.104"/>
      <point x="544.759" y="479.724"/>
      <point x="613.828" y="353.586"/>
      <point x="613.828" y="271.517" type="qcurve" smooth="yes"/>
      <point x="613.828" y="189.759"/>
      <point x="544.759" y="63.3103"/>
      <point x="417.552" y="-8.75869"/>
    </contour>
    <contour>
      <point x="333.104" y="142.415" type="qcurve" smooth="yes"/>
      <point x="365.552" y="142.415"/>
      <point x="416.723" y="172.311"/>
      <point x="446.93" y="230.931"/>
      <point x="446.93" y="271.517" type="qcurve" smooth="yes"/>
      <point x="446.93" y="313.103"/>
      <point x="416.723" y="370.034"/>
      <point x="365.552" y="399.93"/>
      <point x="333.104" y="399.93" type="qcurve" smooth="yes"/>
      <point x="300.966" y="399.93"/>
      <point x="249.794" y="370.034"/>
      <point x="219.277" y="313.103"/>
      <point x="219.277" y="271.517" type="qcurve" smooth="yes"/>
      <point x="219.277" y="230.931"/>
      <point x="249.794" y="172.311"/>
      <point x="300.966" y="142.415"/>
    </contour>
    <contour>
      <point x="765.896" y="-8.75869" type="qcurve" smooth="yes"/>
      <point x="671.31" y="-8.75869"/>
      <point x="535.344" y="64"/>
      <point x="462.896" y="191.138"/>
      <point x="462.896" y="271.517" type="qcurve" smooth="yes"/>
      <point x="462.896" y="353.276"/>
      <point x="534.034" y="479.724"/>
      <point x="662" y="551.104"/>
      <point x="745.517" y="551.104" type="qcurve" smooth="yes"/>
      <point x="824.896" y="551.104"/>
      <point x="956.621" y="485.552"/>
      <point x="1036.35" y="360.862"/>
      <point x="1036.35" y="272.345" type="qcurve" smooth="yes"/>
      <point x="1036.35" y="259.138"/>
      <point x="1034.66" y="233.931"/>
      <point x="1032.97" y="223.172" type="qcurve"/>
      <point x="617.38" y="223.172" type="line"/>
      <point x="617.38" y="322.862" type="line"/>
      <point x="899.102" y="322.862" type="line"/>
      <point x="857.861" y="294.793" type="line"/>
      <point x="858.171" y="331.759"/>
      <point x="830.654" y="385.758"/>
      <point x="780.413" y="416.034"/>
      <point x="745.517" y="416.034" type="qcurve" smooth="yes"/>
      <point x="711.31" y="416.034"/>
      <point x="659.69" y="385.758"/>
      <point x="631.484" y="331.448"/>
      <point x="631.484" y="293.862" type="qcurve" smooth="yes"/>
      <point x="631.484" y="264.828" type="line" smooth="yes"/>
      <point x="631.484" y="225.173"/>
      <point x="664.38" y="166.794"/>
      <point x="727.69" y="136.208"/>
      <point x="770.965" y="136.208" type="qcurve" smooth="yes"/>
      <point x="808" y="136.208"/>
      <point x="866.447" y="159.311"/>
      <point x="894.447" y="182.725" type="qcurve"/>
      <point x="996.517" y="78.6207" type="line"/>
      <point x="957.069" y="35.931"/>
      <point x="838.034" y="-8.75869"/>
    </contour>
  </outline>
</glyph>
<glyph name="Uogonek" format="2">
  <advance width="786"/>
  <unicode hex="0172"/>
  <outline>
    <contour>
      <point x="526.757" y="700" type="line"/>
      <point x="721.518" y="700" type="line"/>
      <point x="721.518" y="311.586" type="line" smooth="yes"/>
      <point x="721.518" y="187.897"/>
      <point x="617" y="40.069"/>
      <point x="531.931" y="7.31033" type="qcurve" smooth="yes"/>
      <point x="477.38" y="-13.6897"/>
      <point x="416.38" y="-51.5516"/>
      <point x="392.69" y="-85.3446"/>
      <point x="392.69" y="-101.965" type="qcurve" smooth="yes"/>
      <point x="392.69" y="-121.138"/>
      <point x="420.483" y="-145.758"/>
      <point x="447.862" y="-145.758" type="qcurve" smooth="yes"/>
      <point x="464.552" y="-145.758"/>
      <point x="496.173" y="-136.758"/>
      <point x="507.483" y="-131.138" type="qcurve"/>
      <point x="532.311" y="-212.655" type="line"/>
      <point x="514" y="-222.655"/>
      <point x="455.655" y="-235.655"/>
      <point x="425.517" y="-235.655" type="qcurve" smooth="yes"/>
      <point x="355.483" y="-235.655"/>
      <point x="277.758" y="-171.448"/>
      <point x="277.758" y="-118.552" type="qcurve" smooth="yes"/>
      <point x="277.758" y="-84.3446"/>
      <point x="313.345" y="-23.5169"/>
      <point x="384.621" y="27.1038"/>
      <point x="437.621" y="44.6554" type="qcurve"/>
      <point x="440.759" y="-11.8277" type="line"/>
      <point x="428.69" y="-12.8277"/>
      <point x="405.31" y="-13.8277"/>
      <point x="392.931" y="-13.8277" type="qcurve" smooth="yes"/>
      <point x="238.138" y="-13.8277"/>
      <point x="64.3441" y="155.828"/>
      <point x="64.3441" y="311.586" type="qcurve" smooth="yes"/>
      <point x="64.3441" y="700" type="line"/>
      <point x="262.484" y="700" type="line"/>
      <point x="262.484" y="317.655" type="line" smooth="yes"/>
      <point x="262.484" y="227.725"/>
      <point x="332.897" y="149.553"/>
      <point x="394.621" y="149.553" type="qcurve" smooth="yes"/>
      <point x="457.034" y="149.553"/>
      <point x="526.757" y="227.725"/>
      <point x="526.757" y="317.655" type="qcurve" smooth="yes"/>
    </contour>
  </outline>
</glyph>
<glyph name="longs" format="2">
  <advance width="349"/>
  <unicode hex="017F"/>
  <outline>
    <contour>
      <point x="95.4479" y="0" type="line"/>
      <point x="95.4479" y="535.516" type="line" smooth="yes"/>
      <point x="95.4479" y="633.758"/>
      <point x="212.517" y="750.759"/>
      <point x="320.828" y="750.759" type="qcurve" smooth="yes"/>
      <point x="355.587" y="750.759"/>
      <point x="423.622" y="737.448"/>
      <point x="447.07" y="723.138" type="qcurve"/>
      <point x="399.897" y="588.792" type="line"/>
      <point x="387.966" y="595.654"/>
      <point x="358.553" y="604.895"/>
      <point x="342.691" y="604.895" type="qcurve" smooth="yes"/>
      <point x="314.036" y="604.895"/>
      <point x="285.45" y="570.24"/>
      <point x="285.45" y="533.827" type="qcurve" smooth="yes"/>
      <point x="285.45" y="0" type="line"/>
    </contour>
    <contour>
      <point x="16.1033" y="379.93" type="line"/>
      <point x="16.1033" y="521.655" type="line"/>
      <point x="195.277" y="521.655" type="line"/>
      <point x="195.277" y="379.93" type="line"/>
    </contour>
  </outline>
</glyph>
<glyph name="uni018F" format="2">
  <advance width="818"/>
  <unicode hex="018F"/>
  <outline>
    <contour>
      <point x="409" y="-13.8277" type="qcurve" smooth="yes"/>
      <point x="326.862" y="-13.8277"/>
      <point x="189.034" y="39.4826"/>
      <point x="88.9653" y="138.172"/>
      <point x="34.2756" y="275.31"/>
      <point x="34.2756" y="358.448" type="qcurve" smooth="yes"/>
      <point x="34.2756" y="394.276" type="line"/>
      <point x="604.861" y="394.276" type="line"/>
      <point x="604.861" y="274.517" type="line"/>
      <point x="169.898" y="274.517" type="line"/>
      <point x="233.795" y="322.413" type="line"/>
      <point x="233.795" y="279.276"/>
      <point x="257.381" y="210.862"/>
      <point x="302.691" y="162.173"/>
      <point x="367.483" y="136.208"/>
      <point x="409" y="136.208" type="qcurve" smooth="yes"/>
      <point x="450.517" y="136.208"/>
      <point x="515.309" y="161.863"/>
      <point x="560.309" y="210.552"/>
      <point x="583.585" y="278.034"/>
      <point x="583.585" y="320.551" type="qcurve" smooth="yes"/>
      <point x="583.585" y="358.448" type="line" smooth="yes"/>
      <point x="583.585" y="400.034"/>
      <point x="554.93" y="470.654"/>
      <point x="503.861" y="522.102"/>
      <point x="433.931" y="550.447"/>
      <point x="391.965" y="550.447" type="qcurve" smooth="yes"/>
      <point x="360.621" y="550.447"/>
      <point x="289.897" y="531.757"/>
      <point x="224.724" y="495.068"/>
      <point x="200.862" y="468.447" type="qcurve"/>
      <point x="83.5855" y="591.586" type="line"/>
      <point x="116.585" y="626.655"/>
      <point x="214.551" y="681.931"/>
      <point x="331.896" y="713.828"/>
      <point x="393.655" y="713.828" type="qcurve" smooth="yes"/>
      <point x="479.172" y="713.828"/>
      <point x="622.138" y="660.828"/>
      <point x="726.655" y="563.138"/>
      <point x="783.414" y="430.069"/>
      <point x="783.414" y="350.31" type="qcurve" smooth="yes"/>
      <point x="783.414" y="270.241"/>
      <point x="727.345" y="136.483"/>
      <point x="626.586" y="39.4826"/>
      <point x="489.759" y="-13.8277"/>
    </contour>
  </outline>
</glyph>
<glyph name="florin" format="2">
  <advance width="500"/>
  <unicode hex="0192"/>
  <outline>
    <contour>
      <point x="35.7934" y="-202.759" type="qcurve" smooth="yes"/>
      <point x="-2.3446" y="-202.759"/>
      <point x="-70.2413" y="-188.138"/>
      <point x="-93.6897" y="-174.207" type="qcurve"/>
      <point x="-30.9305" y="-40.1714" type="line"/>
      <point x="-5.6892" y="-56.2747"/>
      <point x="25.2761" y="-56.2747" type="qcurve" smooth="yes"/>
      <point x="50.5516" y="-56.2747"/>
      <point x="86.5169" y="-21.6197"/>
      <point x="90.8272" y="14.7939" type="qcurve" smooth="yes"/>
      <point x="155.172" y="535.516" type="line" smooth="yes"/>
      <point x="166.931" y="634.448"/>
      <point x="297.138" y="750.759"/>
      <point x="404.208" y="750.759" type="qcurve" smooth="yes"/>
      <point x="438.966" y="750.759"/>
      <point x="507.553" y="737.138"/>
      <point x="529.311" y="722.207" type="qcurve"/>
      <point x="466.242" y="588.171" type="line"/>
      <point x="454.621" y="595.033"/>
      <point x="426.518" y="604.275"/>
      <point x="410.656" y="604.275" type="qcurve" smooth="yes"/>
      <point x="381.691" y="604.275"/>
      <point x="343.036" y="569.62"/>
      <point x="338.415" y="533.206" type="qcurve" smooth="yes"/>
      <point x="333.863" y="495.414" type="line"/>
      <point x="330.484" y="415.758" type="line"/>
      <point x="280.139" y="12.4836" type="line" smooth="yes"/>
      <point x="268.07" y="-85.7582"/>
      <point x="139.484" y="-202.759"/>
    </contour>
    <contour>
      <point x="55.7582" y="375.275" type="line"/>
      <point x="72.9653" y="517" type="line"/>
      <point x="465.173" y="517" type="line"/>
      <point x="448.277" y="375.275" type="line"/>
    </contour>
  </outline>
</glyph>
<glyph name="Ohorn" format="2">
  <advance width="846"/>
  <unicode hex="01A0"/>
  <anchor x="424.931" y="700" name="t.uni0308"/>
  <anchor x="424.931" y="0" name="b.uni0324_3"/>
  <outline>
    <contour>
      <point x="423.069" y="-13.8277" type="qcurve" smooth="yes"/>
      <point x="339.31" y="-13.8277"/>
      <point x="196.793" y="40.1723"/>
      <point x="92.3446" y="138.552"/>
      <point x="34.2756" y="271.621"/>
      <point x="34.2756" y="350" type="qcurve" smooth="yes"/>
      <point x="34.2756" y="429.379"/>
      <point x="92.3446" y="561.759"/>
      <point x="198.483" y="660.138"/>
      <point x="344.379" y="713.828"/>
      <point x="431.207" y="713.828" type="qcurve" smooth="yes"/>
      <point x="486.069" y="713.828"/>
      <point x="575.759" y="700.517"/>
      <point x="609.862" y="700.517" type="qcurve" smooth="yes"/>
      <point x="644.207" y="700.517"/>
      <point x="684.62" y="732.379"/>
      <point x="684.62" y="762.552" type="qcurve" smooth="yes"/>
      <point x="684.62" y="779.862"/>
      <point x="673.31" y="810.172"/>
      <point x="664.62" y="821.103" type="qcurve"/>
      <point x="774" y="860.207" type="line"/>
      <point x="790.069" y="839.138"/>
      <point x="808.518" y="786.621"/>
      <point x="808.518" y="755.103" type="qcurve" smooth="yes"/>
      <point x="808.518" y="673.551"/>
      <point x="696.828" y="589.516"/>
      <point x="602.793" y="589.516" type="qcurve" smooth="yes"/>
      <point x="559.379" y="589.516"/>
      <point x="479.275" y="600.275"/>
      <point x="441.689" y="604.965" type="qcurve"/>
      <point x="666.001" y="633.689" type="line"/>
      <point x="709.794" y="604.31"/>
      <point x="775.449" y="518.138"/>
      <point x="811.552" y="411.483"/>
      <point x="811.552" y="350" type="qcurve" smooth="yes"/>
      <point x="811.552" y="271.31"/>
      <point x="753.483" y="138.241"/>
      <point x="649.035" y="39.862"/>
      <point x="507.517" y="-13.8277"/>
    </contour>
    <contour>
      <point x="423.069" y="149.553" type="qcurve" smooth="yes"/>
      <point x="463.207" y="149.553"/>
      <point x="531.689" y="178.208"/>
      <point x="583.068" y="230.656"/>
      <point x="611.723" y="304.655"/>
      <point x="611.723" y="350" type="qcurve" smooth="yes"/>
      <point x="611.723" y="395.345"/>
      <point x="583.068" y="469.344"/>
      <point x="531.689" y="521.792"/>
      <point x="463.207" y="550.447"/>
      <point x="423.069" y="550.447" type="qcurve" smooth="yes"/>
      <point x="382.931" y="550.447"/>
      <point x="314.139" y="522.102"/>
      <point x="262.76" y="469.344"/>
      <point x="234.105" y="395.655"/>
      <point x="234.105" y="350" type="qcurve" smooth="yes"/>
      <point x="234.105" y="304.655"/>
      <point x="262.76" y="230.656"/>
      <point x="314.139" y="177.898"/>
      <point x="382.931" y="149.553"/>
    </contour>
  </outline>
</glyph>
<glyph name="ohorn" format="2">
  <advance width="666"/>
  <unicode hex="01A1"/>
  <anchor x="343.655" y="551.655" name="t.uni0308"/>
  <anchor x="343.655" y="0" name="b.uni0324_3"/>
  <outline>
    <contour>
      <point x="333.104" y="-8.75869" type="qcurve" smooth="yes"/>
      <point x="243.828" y="-8.75869"/>
      <point x="106.103" y="63.3103"/>
      <point x="26.8962" y="189.759"/>
      <point x="26.8962" y="271.517" type="qcurve" smooth="yes"/>
      <point x="26.8962" y="353.586"/>
      <point x="106.103" y="479.724"/>
      <point x="245.517" y="551.104"/>
      <point x="335.483" y="551.104" type="qcurve" smooth="yes"/>
      <point x="361.104" y="551.104"/>
      <point x="402.242" y="546.724"/>
      <point x="437.242" y="542.035"/>
      <point x="453.414" y="542.035" type="qcurve" smooth="yes"/>
      <point x="482.448" y="542.035"/>
      <point x="510.552" y="576.897"/>
      <point x="510.552" y="604.897" type="qcurve" smooth="yes"/>
      <point x="510.552" y="622.207"/>
      <point x="497.862" y="652.517"/>
      <point x="488.862" y="663.448" type="qcurve"/>
      <point x="598.242" y="702.552" type="line"/>
      <point x="614.001" y="681.483"/>
      <point x="634.449" y="628.966"/>
      <point x="634.449" y="597.448" type="qcurve" smooth="yes"/>
      <point x="634.449" y="547.483"/>
      <point x="584.725" y="472"/>
      <point x="496.483" y="430.723"/>
      <point x="438.897" y="430.723" type="qcurve" smooth="yes"/>
      <point x="412.241" y="430.723"/>
      <point x="361.379" y="436.792"/>
      <point x="338.931" y="441.172" type="qcurve"/>
      <point x="463.863" y="526.276" type="line"/>
      <point x="545.311" y="494.517"/>
      <point x="639.311" y="360.828"/>
      <point x="639.311" y="271.517" type="qcurve" smooth="yes"/>
      <point x="639.311" y="189.759"/>
      <point x="560.415" y="63.3103"/>
      <point x="422.38" y="-8.75869"/>
    </contour>
    <contour>
      <point x="333.104" y="142.415" type="qcurve" smooth="yes"/>
      <point x="365.241" y="142.415"/>
      <point x="416.413" y="172.311"/>
      <point x="446.93" y="230.931"/>
      <point x="446.93" y="271.517" type="qcurve" smooth="yes"/>
      <point x="446.93" y="313.103"/>
      <point x="416.723" y="370.034"/>
      <point x="365.552" y="399.93"/>
      <point x="333.104" y="399.93" type="qcurve" smooth="yes"/>
      <point x="300.966" y="399.93"/>
      <point x="249.794" y="370.034"/>
      <point x="219.277" y="313.103"/>
      <point x="219.277" y="271.517" type="qcurve" smooth="yes"/>
      <point x="219.277" y="230.931"/>
      <point x="249.794" y="172.311"/>
      <point x="300.966" y="142.415"/>
    </contour>
  </outline>
</glyph>
<glyph name="uni01E5" format="2">
  <advance width="718"/>
  <unicode hex="01E5"/>
  <outline>
    <contour>
      <point x="323.69" y="-202.759" type="qcurve" smooth="yes"/>
      <point x="246.552" y="-202.759"/>
      <point x="105.172" y="-165.828"/>
      <point x="57.4136" y="-131.966" type="qcurve"/>
      <point x="126.276" y="-6.27512" type="line"/>
      <point x="158.138" y="-32.1371"/>
      <point x="259.241" y="-63.9991"/>
      <point x="310.724" y="-63.9991" type="qcurve" smooth="yes"/>
      <point x="383.792" y="-63.9991"/>
      <point x="453.62" y="1.37981"/>
      <point x="453.62" y="67.069" type="qcurve" smooth="yes"/>
      <point x="453.62" y="130.758" type="line"/>
      <point x="463.62" y="289.966" type="line"/>
      <point x="462.758" y="442.587" type="line"/>
      <point x="462.758" y="542.345" type="line"/>
      <point x="643.622" y="542.345" type="line"/>
      <point x="643.622" y="99.0695" type="line" smooth="yes"/>
      <point x="643.622" y="-51.5169"/>
      <point x="481" y="-202.759"/>
    </contour>
    <contour>
      <point x="267.896" y="-24.9648" type="line"/>
      <point x="267.896" y="53.1732" type="line"/>
      <point x="706.932" y="54.1732" type="line"/>
      <point x="706.932" y="-24.2751" type="line"/>
    </contour>
    <contour>
      <point x="285.792" y="78.3455" type="qcurve" smooth="yes"/>
      <point x="208.482" y="78.3455"/>
      <point x="91.6892" y="138.966"/>
      <point x="26.8962" y="245.828"/>
      <point x="26.8962" y="314.69" type="qcurve" smooth="yes"/>
      <point x="26.8962" y="383.552"/>
      <point x="91.6892" y="490.104"/>
      <point x="207.792" y="550.414"/>
      <point x="285.103" y="550.414" type="qcurve" smooth="yes"/>
      <point x="352.792" y="550.414"/>
      <point x="454.137" y="498.414"/>
      <point x="511.102" y="394.173"/>
      <point x="511.102" y="313.311" type="qcurve" smooth="yes"/>
      <point x="511.102" y="233.138"/>
      <point x="454.827" y="128.966"/>
      <point x="353.482" y="78.3455"/>
    </contour>
    <contour>
      <point x="337.793" y="211.036" type="qcurve" smooth="yes"/>
      <point x="373.621" y="211.036"/>
      <point x="426.792" y="236.243"/>
      <point x="455.62" y="283.173"/>
      <point x="455.62" y="314.69" type="qcurve" smooth="yes"/>
      <point x="455.62" y="346.897"/>
      <point x="426.792" y="392.827"/>
      <point x="373.621" y="418.034"/>
      <point x="337.793" y="418.034" type="qcurve" smooth="yes"/>
      <point x="302.277" y="418.034"/>
      <point x="248.105" y="392.827"/>
      <point x="219.277" y="346.897"/>
      <point x="219.277" y="314.69" type="qcurve" smooth="yes"/>
      <point x="219.277" y="283.173"/>
      <point x="248.105" y="236.243"/>
      <point x="302.277" y="211.036"/>
    </contour>
  </outline>
</glyph>
<glyph name="uni01EA" format="2">
  <advance width="846"/>
  <unicode hex="01EA"/>
  <anchor x="424.931" y="700" name="t.uni0308"/>
  <outline>
    <contour>
      <point x="450.621" y="-235.655" type="qcurve" smooth="yes"/>
      <point x="380.586" y="-235.655"/>
      <point x="302.862" y="-171.448"/>
      <point x="302.862" y="-118.552" type="qcurve" smooth="yes"/>
      <point x="302.862" y="-84.3446"/>
      <point x="338.138" y="-23.2066"/>
      <point x="409.724" y="27.4141"/>
      <point x="462.724" y="44.6554" type="qcurve"/>
      <point x="473.173" y="-11.138" type="line"/>
      <point x="456.655" y="-12.138"/>
      <point x="433.138" y="-13.8277"/>
      <point x="423.069" y="-13.8277" type="qcurve" smooth="yes"/>
      <point x="339.31" y="-13.8277"/>
      <point x="197.103" y="39.862"/>
      <point x="92.3446" y="138.241"/>
      <point x="34.2756" y="271.31"/>
      <point x="34.2756" y="350" type="qcurve" smooth="yes"/>
      <point x="34.2756" y="429.379"/>
      <point x="92.3446" y="561.759"/>
      <point x="197.103" y="660.138"/>
      <point x="339.31" y="713.828"/>
      <point x="423.069" y="713.828" type="qcurve" smooth="yes"/>
      <point x="507.517" y="713.828"/>
      <point x="649.035" y="660.138"/>
      <point x="753.483" y="561.759"/>
      <point x="811.552" y="429.379"/>
      <point x="811.552" y="350" type="qcurve" smooth="yes"/>
      <point x="811.552" y="263.069"/>
      <point x="743.311" y="124.138"/>
      <point x="626.449" y="28.7587"/>
      <point x="552.828" y="5.31033" type="qcurve" smooth="yes"/>
      <point x="504.38" y="-10.138"/>
      <point x="444.208" y="-45.069"/>
      <point x="417.794" y="-82.4826"/>
      <point x="417.794" y="-101.965" type="qcurve" smooth="yes"/>
      <point x="417.794" y="-121.138"/>
      <point x="445.587" y="-145.758"/>
      <point x="472.966" y="-145.758" type="qcurve" smooth="yes"/>
      <point x="489.656" y="-145.758"/>
      <point x="521.277" y="-136.758"/>
      <point x="532.587" y="-131.138" type="qcurve"/>
      <point x="557.415" y="-212.655" type="line"/>
      <point x="539.104" y="-222.655"/>
      <point x="480.759" y="-235.655"/>
    </contour>
    <contour>
      <point x="423.069" y="149.553" type="qcurve" smooth="yes"/>
      <point x="463.207" y="149.553"/>
      <point x="531.689" y="177.898"/>
      <point x="583.068" y="230.656"/>
      <point x="611.723" y="304.655"/>
      <point x="611.723" y="350" type="qcurve" smooth="yes"/>
      <point x="611.723" y="395.655"/>
      <point x="583.068" y="469.344"/>
      <point x="531.689" y="522.102"/>
      <point x="463.207" y="550.447"/>
      <point x="423.069" y="550.447" type="qcurve" smooth="yes"/>
      <point x="382.931" y="550.447"/>
      <point x="314.139" y="522.102"/>
      <point x="262.76" y="469.344"/>
      <point x="234.105" y="395.655"/>
      <point x="234.105" y="350" type="qcurve" smooth="yes"/>
      <point x="234.105" y="304.655"/>
      <point x="262.76" y="230.656"/>
      <point x="314.139" y="177.898"/>
      <point x="382.931" y="149.553"/>
    </contour>
  </outline>
</glyph>
<glyph name="uni01EB" format="2">
  <advance width="666"/>
  <unicode hex="01EB"/>
  <anchor x="340.345" y="551.655" name="t.uni0308"/>
  <anchor x="340.345" y="276.172" name="t.uni0307_1"/>
  <anchor x="427.345" y="551.345" name="t.uni031B_2"/>
  <anchor x="340.345" y="0" name="b.uni0324_3"/>
  <outline>
    <contour>
      <point x="364.173" y="-235.655" type="qcurve" smooth="yes"/>
      <point x="294.138" y="-235.655"/>
      <point x="216.414" y="-171.448"/>
      <point x="216.414" y="-119.172" type="qcurve" smooth="yes"/>
      <point x="216.414" y="-84.6549"/>
      <point x="251.69" y="-23.8962"/>
      <point x="322.655" y="23.9657"/>
      <point x="375.035" y="37.7587" type="qcurve"/>
      <point x="381.966" y="-4.75869" type="line"/>
      <point x="368.724" y="-6.06901"/>
      <point x="345.104" y="-8.75869"/>
      <point x="333.104" y="-8.75869" type="qcurve" smooth="yes"/>
      <point x="243.828" y="-8.75869"/>
      <point x="106.103" y="63.3103"/>
      <point x="26.8962" y="189.759"/>
      <point x="26.8962" y="271.517" type="qcurve" smooth="yes"/>
      <point x="26.8962" y="353.586"/>
      <point x="106.103" y="479.724"/>
      <point x="243.828" y="551.104"/>
      <point x="333.104" y="551.104" type="qcurve" smooth="yes"/>
      <point x="422.38" y="551.104"/>
      <point x="561.104" y="479.724"/>
      <point x="639.311" y="353.586"/>
      <point x="639.311" y="271.517" type="qcurve" smooth="yes"/>
      <point x="639.311" y="180.759"/>
      <point x="539.966" y="44.931"/>
      <point x="456.69" y="12.2413" type="qcurve" smooth="yes"/>
      <point x="406.138" y="-7.31033"/>
      <point x="351.587" y="-46.4826"/>
      <point x="331.346" y="-83.3446"/>
      <point x="331.346" y="-100.965" type="qcurve" smooth="yes"/>
      <point x="331.346" y="-119.758"/>
      <point x="359.138" y="-145.758"/>
      <point x="386.518" y="-145.758" type="qcurve" smooth="yes"/>
      <point x="403.208" y="-145.758"/>
      <point x="434.828" y="-136.758"/>
      <point x="446.138" y="-131.138" type="qcurve"/>
      <point x="470.966" y="-212.655" type="line"/>
      <point x="452.656" y="-222.655"/>
      <point x="394.311" y="-235.655"/>
    </contour>
    <contour>
      <point x="333.104" y="142.415" type="qcurve" smooth="yes"/>
      <point x="365.552" y="142.415"/>
      <point x="416.723" y="172.311"/>
      <point x="446.93" y="230.931"/>
      <point x="446.93" y="271.517" type="qcurve" smooth="yes"/>
      <point x="446.93" y="313.103"/>
      <point x="416.723" y="370.034"/>
      <point x="365.552" y="399.93"/>
      <point x="333.104" y="399.93" type="qcurve" smooth="yes"/>
      <point x="300.966" y="399.93"/>
      <point x="249.794" y="370.034"/>
      <point x="219.277" y="313.103"/>
      <point x="219.277" y="271.517" type="qcurve" smooth="yes"/>
      <point x="219.277" y="230.931"/>
      <point x="249.794" y="172.311"/>
      <point x="300.966" y="142.415"/>
    </contour>
  </outline>
</glyph>
<glyph name="uni0237" format="2">
  <advance width="320"/>
  <unicode hex="0237"/>
  <anchor x="176.276" y="551.655" name="t.uni0308"/>
  <outline>
    <contour>
      <point x="38.4831" y="-202.759" type="qcurve" smooth="yes"/>
      <point x="0.345069" y="-202.759"/>
      <point x="-69.2413" y="-188.448"/>
      <point x="-93.6897" y="-174.517" type="qcurve"/>
      <point x="-45.8962" y="-40.1714" type="line"/>
      <point x="-20.3446" y="-56.2747"/>
      <point x="12.862" y="-56.2747" type="qcurve" smooth="yes"/>
      <point x="37.8272" y="-56.2747"/>
      <point x="68.5512" y="-21.6197"/>
      <point x="68.5512" y="14.7939" type="qcurve" smooth="yes"/>
      <point x="68.5512" y="542.345" type="line"/>
      <point x="258.553" y="542.345" type="line"/>
      <point x="258.553" y="14.3455" type="line" smooth="yes"/>
      <point x="258.553" y="-85.1376"/>
      <point x="143.104" y="-202.759"/>
    </contour>
  </outline>
</glyph>
<glyph name="uni0259" format="2">
  <advance width="642"/>
  <unicode hex="0259"/>
  <anchor x="330.655" y="551.655" name="t.uni0308"/>
  <anchor x="330.655" y="0" name="b.uni0324_3"/>
  <anchor x="99.6897" y="551.655" name="m.uni0328_4"/>
  <outline>
    <contour>
      <point x="296.655" y="551.104" type="qcurve" smooth="yes"/>
      <point x="393.621" y="551.104"/>
      <point x="536.035" y="478.345"/>
      <point x="614.932" y="352.207"/>
      <point x="614.932" y="270.828" type="qcurve" smooth="yes"/>
      <point x="614.932" y="189.069"/>
      <point x="537.346" y="62.6207"/>
      <point x="402.621" y="-8.75869"/>
      <point x="317.035" y="-8.75869" type="qcurve" smooth="yes"/>
      <point x="236.966" y="-8.75869"/>
      <point x="105.241" y="56.793"/>
      <point x="26.8962" y="183.172"/>
      <point x="26.8962" y="272.069" type="qcurve" smooth="yes"/>
      <point x="26.8962" y="282.517"/>
      <point x="28.5859" y="308.414"/>
      <point x="29.5859" y="319.173" type="qcurve"/>
      <point x="458.965" y="319.173" type="line"/>
      <point x="458.965" y="219.483" type="line"/>
      <point x="130.346" y="219.483" type="line"/>
      <point x="202.622" y="247.552" type="line"/>
      <point x="202.622" y="211.276"/>
      <point x="231.208" y="156.587"/>
      <point x="282.138" y="126.311"/>
      <point x="315.655" y="126.311" type="qcurve" smooth="yes"/>
      <point x="349.862" y="126.311"/>
      <point x="401.103" y="156.587"/>
      <point x="428.999" y="211.897"/>
      <point x="428.999" y="248.483" type="qcurve" smooth="yes"/>
      <point x="428.999" y="277.517" type="line" smooth="yes"/>
      <point x="428.999" y="318.172"/>
      <point x="395.413" y="375.551"/>
      <point x="333.793" y="406.137"/>
      <point x="290.897" y="406.137" type="qcurve" smooth="yes"/>
      <point x="251.104" y="406.137"/>
      <point x="193.656" y="383.034"/>
      <point x="166.035" y="359.62" type="qcurve"/>
      <point x="66.0343" y="463.724" type="line"/>
      <point x="104.793" y="507.104"/>
      <point x="219.31" y="551.104"/>
    </contour>
  </outline>
</glyph>
<glyph name="uni02B9" format="2">
  <advance width="242"/>
  <unicode hex="02B9"/>
  <outline>
    <contour>
      <point x="53.2066" y="408.069" type="line"/>
      <point x="40.6892" y="700" type="line"/>
      <point x="201.208" y="700" type="line"/>
      <point x="188.38" y="408.069" type="line"/>
    </contour>
  </outline>
</glyph>
<glyph name="uni02BE" format="2">
  <advance width="600"/>
  <unicode hex="02BE"/>
  <outline>
    <contour>
      <point x="299.69" y="591.241" type="qcurve"/>
      <point x="299.69" y="661.311" type="line"/>
      <point x="324.552" y="661.311"/>
      <point x="357.103" y="693.173"/>
      <point x="357.103" y="718.104" type="qcurve" smooth="yes"/>
      <point x="357.103" y="743.345"/>
      <point x="324.241" y="775.207"/>
      <point x="299.69" y="775.207" type="qcurve"/>
      <point x="299.69" y="845.587" type="line"/>
      <point x="337.828" y="845.587"/>
      <point x="397.414" y="811.138"/>
      <point x="432.242" y="753.931"/>
      <point x="432.242" y="718.104" type="qcurve" smooth="yes"/>
      <point x="432.242" y="682.966"/>
      <point x="397.414" y="625.379"/>
      <point x="337.828" y="591.241"/>
    </contour>
  </outline>
</glyph>
<glyph name="uni02BF" format="2">
  <advance width="600"/>
  <unicode hex="02BF"/>
  <outline>
    <contour>
      <point x="299.69" y="591.241" type="line"/>
      <point x="262.552" y="591.241"/>
      <point x="201.965" y="625.379"/>
      <point x="167.138" y="682.966"/>
      <point x="167.138" y="718.104" type="qcurve" smooth="yes"/>
      <point x="167.138" y="753.931"/>
      <point x="201.965" y="811.138"/>
      <point x="262.552" y="845.587"/>
      <point x="299.69" y="845.587" type="qcurve"/>
      <point x="299.69" y="775.207" type="line"/>
      <point x="276.138" y="775.207"/>
      <point x="242.586" y="743.345"/>
      <point x="242.586" y="718.104" type="qcurve" smooth="yes"/>
      <point x="242.586" y="693.173"/>
      <point x="275.828" y="661.311"/>
      <point x="299.69" y="661.311" type="qcurve"/>
    </contour>
  </outline>
</glyph>
<glyph name="uni02C8" format="2">
  <advance width="194"/>
  <unicode hex="02C8"/>
  <outline>
    <contour>
      <point x="35.5169" y="500.414" type="line"/>
      <point x="35.5169" y="700.69" type="line"/>
      <point x="158.104" y="700.69" type="line"/>
      <point x="158.104" y="500.414" type="line"/>
    </contour>
  </outline>
</glyph>
<glyph name="uni02C9" format="2">
  <advance width="600"/>
  <unicode hex="02C9"/>
  <outline>
    <contour>
      <point x="103.034" y="631.724" type="line"/>
      <point x="103.034" y="734.208" type="line"/>
      <point x="496.966" y="734.208" type="line"/>
      <point x="496.966" y="631.724" type="line"/>
    </contour>
  </outline>
</glyph>
<glyph name="uni02CA" format="2">
  <advance width="600"/>
  <unicode hex="02CA"/>
  <outline>
    <contour>
      <point x="202.448" y="607" type="line"/>
      <point x="335.689" y="758.931" type="line"/>
      <point x="526.484" y="758.931" type="line"/>
      <point x="337.552" y="607" type="line"/>
    </contour>
  </outline>
</glyph>
<glyph name="uni02CB" format="2">
  <advance width="600"/>
  <unicode hex="02CB"/>
  <outline>
    <contour>
      <point x="262.448" y="607" type="line"/>
      <point x="73.5164" y="758.931" type="line"/>
      <point x="264.311" y="758.931" type="line"/>
      <point x="397.552" y="607" type="line"/>
    </contour>
  </outline>
</glyph>
<glyph name="uni02CC" format="2">
  <advance width="197"/>
  <unicode hex="02CC"/>
  <outline>
    <contour>
      <point x="35.5169" y="-230.276" type="line"/>
      <point x="35.5169" y="-30" type="line"/>
      <point x="161.173" y="-30" type="line"/>
      <point x="161.173" y="-230.276" type="line"/>
    </contour>
  </outline>
</glyph>
<glyph name="gravecomb" format="2">
  <unicode hex="0300"/>
  <anchor x="300" y="551.655" name="_t.uni0308"/>
  <anchor x="300" y="551.655" name="_t.uni0308_2"/>
  <anchor x="300" y="551.655" name="_m.uni0308"/>
  <anchor x="300" y="775.206" name="m.uni0308"/>
  <outline>
    <contour>
      <point x="262.448" y="607" type="line"/>
      <point x="73.5164" y="758.931" type="line"/>
      <point x="264.311" y="758.931" type="line"/>
      <point x="397.552" y="607" type="line"/>
    </contour>
  </outline>
</glyph>
<glyph name="acutecomb" format="2">
  <unicode hex="0301"/>
  <anchor x="300" y="551.655" name="_t.uni0308"/>
  <anchor x="300" y="551.655" name="_t.uni0308_2"/>
  <anchor x="300" y="551.655" name="_m.uni0308"/>
  <anchor x="300" y="775.206" name="m.uni0308"/>
  <outline>
    <contour>
      <point x="215.207" y="607" type="line"/>
      <point x="271.31" y="758.931" type="line"/>
      <point x="441.587" y="758.931" type="line"/>
      <point x="329.793" y="607" type="line"/>
    </contour>
  </outline>
</glyph>
<glyph name="uni0302" format="2">
  <unicode hex="0302"/>
  <anchor x="300" y="551.655" name="_t.uni0308"/>
  <anchor x="300" y="551.655" name="_t.uni0308_2"/>
  <anchor x="300" y="551.655" name="_m.uni0308"/>
  <anchor x="300" y="765.206" name="m.uni0308"/>
  <outline>
    <contour>
      <point x="87.7925" y="607" type="line"/>
      <point x="217.965" y="758.931" type="line"/>
      <point x="382.035" y="758.931" type="line"/>
      <point x="512.208" y="607" type="line"/>
      <point x="385.552" y="607" type="line"/>
      <point x="245.414" y="731.724" type="line"/>
      <point x="354.586" y="731.724" type="line"/>
      <point x="214.448" y="607" type="line"/>
    </contour>
  </outline>
</glyph>
<glyph name="tildecomb" format="2">
  <unicode hex="0303"/>
  <anchor x="300" y="551.655" name="_t.uni0308"/>
  <anchor x="300" y="551.655" name="_t.uni0308_2"/>
  <anchor x="300" y="551.655" name="_m.uni0308"/>
  <anchor x="300" y="765.206" name="m.uni0308"/>
  <outline>
    <contour>
      <point x="377.897" y="600.414" type="qcurve" smooth="yes"/>
      <point x="351.138" y="600.414"/>
      <point x="309.69" y="619.034"/>
      <point x="275.931" y="643.276"/>
      <point x="248.241" y="661.896"/>
      <point x="234.241" y="661.896" type="qcurve" smooth="yes"/>
      <point x="214.31" y="661.896"/>
      <point x="189.69" y="634.034"/>
      <point x="187.69" y="609.172" type="qcurve"/>
      <point x="94.9648" y="609.172" type="line"/>
      <point x="96.9648" y="681.966"/>
      <point x="163.689" y="768.208"/>
      <point x="222.103" y="768.208" type="qcurve" smooth="yes"/>
      <point x="248.862" y="768.208"/>
      <point x="290.621" y="749.587"/>
      <point x="324.379" y="725.346"/>
      <point x="352.759" y="706.725"/>
      <point x="365.759" y="706.725" type="qcurve" smooth="yes"/>
      <point x="386.379" y="706.725"/>
      <point x="411.31" y="733.587"/>
      <point x="412.31" y="756.759" type="qcurve"/>
      <point x="505.035" y="756.759" type="line"/>
      <point x="504.035" y="686.966"/>
      <point x="436.311" y="600.414"/>
    </contour>
  </outline>
</glyph>
<glyph name="uni0304" format="2">
  <unicode hex="0304"/>
  <anchor x="300" y="551.655" name="_t.uni0308"/>
  <anchor x="300" y="551.655" name="_t.uni0308_2"/>
  <anchor x="300" y="551.655" name="_m.uni0308"/>
  <anchor x="300" y="745.206" name="m.uni0308"/>
  <outline>
    <contour>
      <point x="103.034" y="631.724" type="line"/>
      <point x="103.034" y="734.208" type="line"/>
      <point x="496.966" y="734.208" type="line"/>
      <point x="496.966" y="631.724" type="line"/>
    </contour>
  </outline>
</glyph>
<glyph name="uni0306" format="2">
  <unicode hex="0306"/>
  <anchor x="300" y="551.655" name="_t.uni0308"/>
  <anchor x="300" y="551.655" name="_t.uni0308_2"/>
  <anchor x="300" y="551.655" name="_m.uni0308"/>
  <anchor x="300" y="765.206" name="m.uni0308"/>
  <outline>
    <contour>
      <point x="300" y="598.241" type="qcurve" smooth="yes"/>
      <point x="216.207" y="598.241"/>
      <point x="107.413" y="684.276"/>
      <point x="103.723" y="758.931" type="qcurve"/>
      <point x="219.793" y="758.931" type="line"/>
      <point x="221.793" y="728.449"/>
      <point x="266.828" y="692.656"/>
      <point x="300" y="692.656" type="qcurve" smooth="yes"/>
      <point x="333.172" y="692.656"/>
      <point x="378.517" y="728.449"/>
      <point x="380.207" y="758.931" type="qcurve"/>
      <point x="496.277" y="758.931" type="line"/>
      <point x="492.587" y="684.276"/>
      <point x="383.793" y="598.241"/>
    </contour>
  </outline>
</glyph>
<glyph name="uni0307" format="2">
  <unicode hex="0307"/>
  <anchor x="300" y="551.655" name="_t.uni0308"/>
  <anchor x="300" y="715.207" name="_t.uni0307_1"/>
  <anchor x="300" y="551.655" name="_t.uni0308_2"/>
  <anchor x="300" y="551.655" name="_m.uni0308"/>
  <anchor x="300" y="825.757" name="m.uni0308"/>
  <outline>
    <contour>
      <point x="300" y="604.758" type="qcurve" smooth="yes"/>
      <point x="256.827" y="604.758"/>
      <point x="201.206" y="660.379"/>
      <point x="201.206" y="703.552" type="qcurve" smooth="yes"/>
      <point x="201.206" y="746.725"/>
      <point x="256.827" y="802.346"/>
      <point x="300" y="802.346" type="qcurve" smooth="yes"/>
      <point x="343.173" y="802.346"/>
      <point x="398.794" y="746.725"/>
      <point x="398.794" y="703.552" type="qcurve" smooth="yes"/>
      <point x="398.794" y="660.379"/>
      <point x="343.173" y="604.758"/>
    </contour>
  </outline>
</glyph>
<glyph name="uni0308" format="2">
  <unicode hex="0308"/>
  <anchor x="300" y="551.655" name="_t.uni0308"/>
  <anchor x="300" y="551.655" name="_t.uni0308_2"/>
  <anchor x="300" y="551.655" name="_m.uni0308"/>
  <anchor x="300" y="756.447" name="m.uni0308"/>
  <outline>
    <contour>
      <point x="406.035" y="605.827" type="qcurve" smooth="yes"/>
      <point x="372.69" y="605.827"/>
      <point x="326.586" y="648.552"/>
      <point x="326.586" y="683.897" type="qcurve" smooth="yes"/>
      <point x="326.586" y="719.242"/>
      <point x="372.69" y="762.656"/>
      <point x="406.035" y="762.656" type="qcurve" smooth="yes"/>
      <point x="439.38" y="762.656"/>
      <point x="485.484" y="719.242"/>
      <point x="485.484" y="683.897" type="qcurve" smooth="yes"/>
      <point x="485.484" y="648.552"/>
      <point x="439.38" y="605.827"/>
    </contour>
    <contour>
      <point x="193.965" y="605.827" type="qcurve" smooth="yes"/>
      <point x="160.62" y="605.827"/>
      <point x="114.516" y="648.552"/>
      <point x="114.516" y="683.897" type="qcurve" smooth="yes"/>
      <point x="114.516" y="719.242"/>
      <point x="160.62" y="762.656"/>
      <point x="193.965" y="762.656" type="qcurve" smooth="yes"/>
      <point x="227.31" y="762.656"/>
      <point x="273.414" y="719.242"/>
      <point x="273.414" y="683.897" type="qcurve" smooth="yes"/>
      <point x="273.414" y="648.552"/>
      <point x="227.31" y="605.827"/>
    </contour>
  </outline>
</glyph>
<glyph name="hookabovecomb" format="2">
  <unicode hex="0309"/>
  <anchor x="300" y="551.655" name="_t.uni0308"/>
  <anchor x="300" y="551.655" name="_t.uni0308_2"/>
  <anchor x="300" y="551.655" name="_m.uni0308"/>
  <anchor x="300" y="845.206" name="m.uni0308"/>
  <outline>
    <contour>
      <point x="336.483" y="597" type="qcurve"/>
      <point x="278.103" y="655.173" type="line"/>
      <point x="307.103" y="669.173"/>
      <point x="326.896" y="697.724"/>
      <point x="326.896" y="712.897" type="qcurve" smooth="yes"/>
      <point x="326.896" y="731.517"/>
      <point x="302.345" y="753.069"/>
      <point x="282.103" y="753.069" type="qcurve" smooth="yes"/>
      <point x="253.172" y="753.069"/>
      <point x="224.172" y="733.379" type="qcurve"/>
      <point x="185" y="806.828" type="line"/>
      <point x="209.138" y="825.277"/>
      <point x="270.862" y="843.725"/>
      <point x="303.448" y="843.725" type="qcurve" smooth="yes"/>
      <point x="361.483" y="843.725"/>
      <point x="433.587" y="780.38"/>
      <point x="433.587" y="728.793" type="qcurve" smooth="yes"/>
      <point x="433.587" y="682.897"/>
      <point x="384.311" y="619.069"/>
    </contour>
  </outline>
</glyph>
<glyph name="uni030A" format="2">
  <unicode hex="030A"/>
  <anchor x="300" y="551.655" name="_t.uni0308"/>
  <anchor x="300" y="551.655" name="_t.uni0308_2"/>
  <anchor x="300" y="551.655" name="_m.uni0308"/>
  <anchor x="300" y="846.447" name="m.uni0308"/>
  <outline>
    <contour>
      <point x="299.69" y="591.241" type="qcurve" smooth="yes"/>
      <point x="262.862" y="591.241"/>
      <point x="202.896" y="625.379"/>
      <point x="168.069" y="682.966"/>
      <point x="168.069" y="718.104" type="qcurve" smooth="yes"/>
      <point x="168.069" y="753.931"/>
      <point x="202.896" y="811.138"/>
      <point x="262.862" y="845.587"/>
      <point x="299.69" y="845.587" type="qcurve" smooth="yes"/>
      <point x="337.517" y="845.587"/>
      <point x="396.793" y="811.138"/>
      <point x="431.621" y="753.931"/>
      <point x="431.621" y="718.104" type="qcurve" smooth="yes"/>
      <point x="431.621" y="682.966"/>
      <point x="396.793" y="625.379"/>
      <point x="337.517" y="591.241"/>
    </contour>
    <contour>
      <point x="299.69" y="660.69" type="qcurve" smooth="yes"/>
      <point x="324.552" y="660.69"/>
      <point x="357.103" y="692.862"/>
      <point x="357.103" y="718.104" type="qcurve" smooth="yes"/>
      <point x="357.103" y="743.345"/>
      <point x="324.241" y="775.828"/>
      <point x="299.69" y="775.828" type="qcurve" smooth="yes"/>
      <point x="276.138" y="775.828"/>
      <point x="242.586" y="743.655"/>
      <point x="242.586" y="718.104" type="qcurve" smooth="yes"/>
      <point x="242.586" y="692.862"/>
      <point x="275.828" y="660.69"/>
    </contour>
  </outline>
</glyph>
<glyph name="uni030B" format="2">
  <unicode hex="030B"/>
  <anchor x="300" y="551.655" name="_t.uni0308"/>
  <anchor x="300" y="551.655" name="_t.uni0308_2"/>
  <anchor x="300" y="551.655" name="_m.uni0308"/>
  <anchor x="300" y="775.206" name="m.uni0308"/>
  <outline>
    <contour>
      <point x="342.931" y="607" type="line"/>
      <point x="405.172" y="758.931" type="line"/>
      <point x="575.035" y="758.931" type="line"/>
      <point x="474.622" y="607" type="line"/>
    </contour>
    <contour>
      <point x="125.378" y="607" type="line"/>
      <point x="187.93" y="758.931" type="line"/>
      <point x="357.793" y="758.931" type="line"/>
      <point x="257.069" y="607" type="line"/>
    </contour>
  </outline>
</glyph>
<glyph name="uni030C" format="2">
  <unicode hex="030C"/>
  <anchor x="300" y="551.655" name="_t.uni0308"/>
  <anchor x="300" y="551.655" name="_t.uni0308_2"/>
  <anchor x="300" y="551.655" name="_m.uni0308"/>
  <anchor x="300" y="765.206" name="m.uni0308"/>
  <outline>
    <contour>
      <point x="217.965" y="607" type="line"/>
      <point x="87.7925" y="758.931" type="line"/>
      <point x="214.448" y="758.931" type="line"/>
      <point x="354.586" y="634.517" type="line"/>
      <point x="245.414" y="634.517" type="line"/>
      <point x="385.552" y="758.931" type="line"/>
      <point x="512.208" y="758.931" type="line"/>
      <point x="382.035" y="607" type="line"/>
    </contour>
  </outline>
</glyph>
<glyph name="uni0311" format="2">
  <unicode hex="0311"/>
  <anchor x="300" y="551.655" name="_t.uni0308"/>
  <anchor x="300" y="551.655" name="_t.uni0308_2"/>
  <anchor x="300" y="551.655" name="_m.uni0308"/>
  <anchor x="300" y="765.206" name="m.uni0308"/>
  <outline>
    <contour>
      <point x="103.723" y="607" type="line"/>
      <point x="107.413" y="681.655"/>
      <point x="216.207" y="767.69"/>
      <point x="300" y="767.69" type="qcurve" smooth="yes"/>
      <point x="383.793" y="767.69"/>
      <point x="492.587" y="681.655"/>
      <point x="496.277" y="607" type="qcurve"/>
      <point x="380.207" y="607" type="line"/>
      <point x="378.517" y="637.483"/>
      <point x="333.172" y="673.276"/>
      <point x="300" y="673.276" type="qcurve" smooth="yes"/>
      <point x="266.828" y="673.276"/>
      <point x="221.793" y="637.483"/>
      <point x="219.793" y="607" type="qcurve"/>
    </contour>
  </outline>
</glyph>
<glyph name="uni0312" format="2">
  <unicode hex="0312"/>
  <anchor x="300" y="551.655" name="_t.uni0308"/>
  <anchor x="300" y="551.655" name="_t.uni0308_2"/>
  <anchor x="300" y="551.655" name="_m.uni0308"/>
  <anchor x="300" y="816.447" name="m.uni0308"/>
  <outline>
    <contour>
      <point x="300" y="598.241" type="qcurve" smooth="yes"/>
      <point x="253.448" y="598.241"/>
      <point x="207.275" y="635.207"/>
      <point x="207.275" y="665.173" type="qcurve" smooth="yes"/>
      <point x="207.275" y="678.242"/>
      <point x="217.723" y="712.208"/>
      <point x="232.931" y="737.104" type="qcurve"/>
      <point x="282.276" y="824.587" type="line"/>
      <point x="382.897" y="824.587" type="line"/>
      <point x="325.035" y="667.655" type="line"/>
      <point x="300" y="730.725" type="line"/>
      <point x="345.552" y="730.725"/>
      <point x="392.725" y="696.449"/>
      <point x="392.725" y="665.173" type="qcurve" smooth="yes"/>
      <point x="392.725" y="634.897"/>
      <point x="346.552" y="598.241"/>
    </contour>
  </outline>
</glyph>
<glyph name="uni031B" format="2">
  <unicode hex="031B"/>
  <anchor x="300" y="551.655" name="_t.uni031B_2"/>
  <outline>
    <contour>
      <point x="273.414" y="421.723" type="line"/>
      <point x="273.414" y="542.345" type="line"/>
      <point x="306.897" y="542.345" type="line" smooth="yes"/>
      <point x="331.31" y="542.345"/>
      <point x="364.379" y="576.586"/>
      <point x="364.379" y="604.586" type="qcurve" smooth="yes"/>
      <point x="364.379" y="621.897"/>
      <point x="353.379" y="652.517"/>
      <point x="344.379" y="663.138" type="qcurve"/>
      <point x="454.07" y="702.242" type="line"/>
      <point x="470.139" y="681.483"/>
      <point x="488.587" y="628.966"/>
      <point x="488.587" y="597.138" type="qcurve" smooth="yes"/>
      <point x="488.587" y="514.207"/>
      <point x="388.759" y="421.723"/>
      <point x="300" y="421.723" type="qcurve" smooth="yes"/>
    </contour>
  </outline>
</glyph>
<glyph name="dotbelowcomb" format="2">
  <unicode hex="0323"/>
  <anchor x="300" y="-202.792" name="t.uni0324"/>
  <outline>
    <contour>
      <point x="300" y="-217.931" type="qcurve" smooth="yes"/>
      <point x="266.655" y="-217.931"/>
      <point x="220.551" y="-176.207"/>
      <point x="220.551" y="-140.862" type="qcurve" smooth="yes"/>
      <point x="220.551" y="-105.517"/>
      <point x="266.655" y="-61.7925"/>
      <point x="300" y="-61.7925" type="qcurve" smooth="yes"/>
      <point x="333.345" y="-61.7925"/>
      <point x="379.449" y="-105.517"/>
      <point x="379.449" y="-140.862" type="qcurve" smooth="yes"/>
      <point x="379.449" y="-176.207"/>
      <point x="333.345" y="-217.931"/>
    </contour>
  </outline>
</glyph>
<glyph name="uni0324" format="2">
  <unicode hex="0324"/>
  <anchor x="300" y="-188.758" name="t.uni0324"/>
  <outline>
    <contour>
      <point x="400.724" y="-210.483" type="qcurve" smooth="yes"/>
      <point x="369.069" y="-210.483"/>
      <point x="325.345" y="-169.448"/>
      <point x="325.345" y="-136.483" type="qcurve" smooth="yes"/>
      <point x="325.345" y="-103.138"/>
      <point x="369.069" y="-61.7925"/>
      <point x="400.724" y="-61.7925" type="qcurve" smooth="yes"/>
      <point x="432.38" y="-61.7925"/>
      <point x="476.104" y="-103.138"/>
      <point x="476.104" y="-136.483" type="qcurve" smooth="yes"/>
      <point x="476.104" y="-169.448"/>
      <point x="432.38" y="-210.483"/>
    </contour>
    <contour>
      <point x="199.276" y="-210.483" type="qcurve" smooth="yes"/>
      <point x="167.62" y="-210.483"/>
      <point x="124.206" y="-169.448"/>
      <point x="124.206" y="-136.483" type="qcurve" smooth="yes"/>
      <point x="124.206" y="-103.138"/>
      <point x="167.62" y="-61.7925"/>
      <point x="199.276" y="-61.7925" type="qcurve" smooth="yes"/>
      <point x="231.241" y="-61.7925"/>
      <point x="274.966" y="-103.138"/>
      <point x="274.966" y="-136.483" type="qcurve" smooth="yes"/>
      <point x="274.966" y="-169.448"/>
      <point x="231.241" y="-210.483"/>
    </contour>
  </outline>
</glyph>
<glyph name="uni0326" format="2">
  <unicode hex="0326"/>
  <anchor x="300" y="-202.792" name="t.uni0324"/>
  <outline>
    <contour>
      <point x="235.379" y="-268.138" type="line"/>
      <point x="279.345" y="-131.517" type="line"/>
      <point x="300" y="-194.586" type="line"/>
      <point x="260.896" y="-194.586"/>
      <point x="220.551" y="-159.31"/>
      <point x="220.551" y="-129.034" type="qcurve" smooth="yes"/>
      <point x="220.551" y="-98.7582"/>
      <point x="263.276" y="-61.7925"/>
      <point x="300" y="-61.7925" type="qcurve" smooth="yes"/>
      <point x="337.035" y="-61.7925"/>
      <point x="379.449" y="-99.0685"/>
      <point x="379.449" y="-129.034" type="qcurve" smooth="yes"/>
      <point x="379.449" y="-142.103"/>
      <point x="371.38" y="-177.379"/>
      <point x="357.552" y="-201.276" type="qcurve" smooth="yes"/>
      <point x="321.035" y="-268.138" type="line"/>
    </contour>
  </outline>
</glyph>
<glyph name="uni0327" format="2">
  <unicode hex="0327"/>
  <outline>
    <contour>
      <point x="263.345" y="-235.655" type="qcurve" smooth="yes"/>
      <point x="237.724" y="-235.655"/>
      <point x="185.138" y="-223.966"/>
      <point x="167.517" y="-214.655" type="qcurve"/>
      <point x="193.655" y="-140.345" type="line"/>
      <point x="206.517" y="-145.586"/>
      <point x="238.138" y="-153.586"/>
      <point x="256.448" y="-153.586" type="qcurve" smooth="yes"/>
      <point x="283.379" y="-153.586"/>
      <point x="306.31" y="-137.724"/>
      <point x="306.31" y="-125.552" type="qcurve" smooth="yes"/>
      <point x="306.31" y="-114.379"/>
      <point x="285.138" y="-100.897"/>
      <point x="260.965" y="-100.897" type="qcurve" smooth="yes"/>
      <point x="223.689" y="-100.897" type="line"/>
      <point x="250.379" y="9.06901" type="line"/>
      <point x="349.311" y="9.06901" type="line"/>
      <point x="335.311" y="-51.069" type="line"/>
      <point x="381.38" y="-56.4484"/>
      <point x="421.242" y="-104.138"/>
      <point x="421.242" y="-132.31" type="qcurve" smooth="yes"/>
      <point x="421.242" y="-180.138"/>
      <point x="334.759" y="-235.655"/>
    </contour>
  </outline>
</glyph>
